%TF.GenerationSoftware,KiCad,Pcbnew,7.0.9*%
%TF.CreationDate,2023-12-10T19:04:28+01:00*%
%TF.ProjectId,ledctrl,6c656463-7472-46c2-9e6b-696361645f70,rev?*%
%TF.SameCoordinates,Original*%
%TF.FileFunction,Legend,Bot*%
%TF.FilePolarity,Positive*%
%FSLAX46Y46*%
G04 Gerber Fmt 4.6, Leading zero omitted, Abs format (unit mm)*
G04 Created by KiCad (PCBNEW 7.0.9) date 2023-12-10 19:04:28*
%MOMM*%
%LPD*%
G01*
G04 APERTURE LIST*
G04 Aperture macros list*
%AMRoundRect*
0 Rectangle with rounded corners*
0 $1 Rounding radius*
0 $2 $3 $4 $5 $6 $7 $8 $9 X,Y pos of 4 corners*
0 Add a 4 corners polygon primitive as box body*
4,1,4,$2,$3,$4,$5,$6,$7,$8,$9,$2,$3,0*
0 Add four circle primitives for the rounded corners*
1,1,$1+$1,$2,$3*
1,1,$1+$1,$4,$5*
1,1,$1+$1,$6,$7*
1,1,$1+$1,$8,$9*
0 Add four rect primitives between the rounded corners*
20,1,$1+$1,$2,$3,$4,$5,0*
20,1,$1+$1,$4,$5,$6,$7,0*
20,1,$1+$1,$6,$7,$8,$9,0*
20,1,$1+$1,$8,$9,$2,$3,0*%
G04 Aperture macros list end*
%ADD10C,0.200000*%
%ADD11C,0.250000*%
%ADD12C,0.150000*%
%ADD13RoundRect,0.600000X0.600000X-0.600000X0.600000X0.600000X-0.600000X0.600000X-0.600000X-0.600000X0*%
%ADD14C,2.400000*%
%ADD15C,0.650000*%
%ADD16O,2.100000X1.000000*%
%ADD17O,1.600000X1.000000*%
%ADD18RoundRect,0.425000X0.425000X-0.425000X0.425000X0.425000X-0.425000X0.425000X-0.425000X-0.425000X0*%
%ADD19O,1.700000X1.700000*%
%ADD20RoundRect,0.425000X-0.425000X0.425000X-0.425000X-0.425000X0.425000X-0.425000X0.425000X0.425000X0*%
%ADD21RoundRect,0.650000X0.650000X0.650000X-0.650000X0.650000X-0.650000X-0.650000X0.650000X-0.650000X0*%
%ADD22C,2.600000*%
%ADD23C,0.800000*%
%ADD24C,6.400000*%
%ADD25RoundRect,0.425000X-0.425000X-0.425000X0.425000X-0.425000X0.425000X0.425000X-0.425000X0.425000X0*%
G04 APERTURE END LIST*
D10*
X86150000Y-6750000D02*
X94550000Y-6750000D01*
D11*
X82500000Y-1800000D02*
X82500000Y8200000D01*
X72500000Y-1800000D02*
X72500000Y8200000D01*
X47500000Y-1800000D02*
X47500000Y8200000D01*
X57499999Y-1800000D02*
X57500000Y8200000D01*
X37500000Y-1800000D02*
X37500000Y8200000D01*
X27500000Y-1800000D02*
X27500000Y8200000D01*
X62500000Y-1800000D02*
X62500000Y8200000D01*
D10*
X94550000Y-13750000D02*
X86150000Y-13750000D01*
D11*
X17500000Y-1800000D02*
X17500000Y8200000D01*
X-2500000Y-1800000D02*
X-2500000Y8200000D01*
X87500000Y-1800000D02*
X87500000Y8200000D01*
D10*
X94550000Y-20750000D02*
X86150000Y-20750000D01*
D11*
X7499999Y-1800000D02*
X7500000Y8200000D01*
X71285713Y2947642D02*
X70571428Y2947642D01*
X71428570Y2519071D02*
X70928570Y4019071D01*
X70928570Y4019071D02*
X70428570Y2519071D01*
X69928571Y3090500D02*
X68785714Y3090500D01*
D12*
G36*
X-7450503Y-38744029D02*
G01*
X-7397609Y-38796923D01*
X-7366791Y-38920196D01*
X-7366791Y-39168392D01*
X-7397609Y-39291666D01*
X-7450504Y-39344560D01*
X-7499973Y-39369295D01*
X-7616944Y-39369295D01*
X-7666412Y-39344561D01*
X-7719307Y-39291665D01*
X-7750125Y-39168394D01*
X-7750125Y-38920194D01*
X-7719307Y-38796923D01*
X-7666412Y-38744029D01*
X-7616944Y-38719295D01*
X-7499973Y-38719295D01*
X-7450503Y-38744029D01*
G37*
G36*
X-4471554Y-38988342D02*
G01*
X-4683611Y-38988342D01*
X-4733079Y-38963608D01*
X-4753961Y-38942725D01*
X-4778697Y-38893255D01*
X-4778697Y-38814381D01*
X-4753961Y-38764911D01*
X-4733079Y-38744029D01*
X-4683611Y-38719295D01*
X-4471554Y-38719295D01*
X-4471554Y-38988342D01*
G37*
G36*
X-9012409Y-37760791D02*
G01*
X-8991525Y-37781674D01*
X-8966791Y-37831143D01*
X-8966791Y-37986208D01*
X-8991526Y-38035678D01*
X-9012409Y-38056561D01*
X-9061877Y-38081295D01*
X-9178848Y-38081295D01*
X-9228316Y-38056561D01*
X-9249199Y-38035677D01*
X-9273934Y-37986209D01*
X-9273934Y-37831142D01*
X-9249199Y-37781673D01*
X-9228317Y-37760791D01*
X-9178848Y-37736057D01*
X-9061877Y-37736057D01*
X-9012409Y-37760791D01*
G37*
G36*
X-7450503Y-37456029D02*
G01*
X-7397609Y-37508923D01*
X-7366791Y-37632196D01*
X-7366791Y-37880392D01*
X-7397609Y-38003666D01*
X-7450504Y-38056560D01*
X-7499973Y-38081295D01*
X-7616944Y-38081295D01*
X-7666412Y-38056561D01*
X-7719307Y-38003665D01*
X-7750125Y-37880394D01*
X-7750125Y-37632194D01*
X-7719307Y-37508923D01*
X-7666412Y-37456029D01*
X-7616944Y-37431295D01*
X-7499973Y-37431295D01*
X-7450503Y-37456029D01*
G37*
G36*
X-8212408Y-36168029D02*
G01*
X-8159514Y-36220923D01*
X-8128696Y-36344196D01*
X-8128696Y-36592392D01*
X-8159514Y-36715666D01*
X-8212409Y-36768560D01*
X-8261878Y-36793295D01*
X-8378849Y-36793295D01*
X-8428317Y-36768561D01*
X-8481212Y-36715665D01*
X-8512030Y-36592394D01*
X-8512030Y-36344194D01*
X-8481212Y-36220923D01*
X-8428317Y-36168029D01*
X-8378849Y-36143295D01*
X-8261878Y-36143295D01*
X-8212408Y-36168029D01*
G37*
G36*
X-5309650Y-36793295D02*
G01*
X-5412956Y-36793295D01*
X-5498897Y-36764648D01*
X-5553962Y-36709582D01*
X-5582932Y-36651642D01*
X-5616793Y-36516202D01*
X-5616793Y-36420387D01*
X-5582932Y-36284946D01*
X-5553962Y-36227006D01*
X-5498898Y-36171942D01*
X-5412956Y-36143295D01*
X-5309650Y-36143295D01*
X-5309650Y-36793295D01*
G37*
G36*
X-6100611Y-36564723D02*
G01*
X-6273450Y-36564723D01*
X-6187030Y-36305465D01*
X-6100611Y-36564723D01*
G37*
G36*
X-8212408Y-34880029D02*
G01*
X-8159514Y-34932923D01*
X-8128696Y-35056196D01*
X-8128696Y-35304392D01*
X-8159514Y-35427666D01*
X-8212409Y-35480560D01*
X-8261878Y-35505295D01*
X-8378849Y-35505295D01*
X-8428317Y-35480561D01*
X-8481212Y-35427665D01*
X-8512030Y-35304394D01*
X-8512030Y-35056194D01*
X-8481212Y-34932923D01*
X-8428317Y-34880029D01*
X-8378849Y-34855295D01*
X-8261878Y-34855295D01*
X-8212408Y-34880029D01*
G37*
G36*
X-4207268Y-39633581D02*
G01*
X-9576199Y-39633581D01*
X-9576199Y-38648479D01*
X-9461913Y-38648479D01*
X-9455966Y-38673839D01*
X-9113108Y-39473839D01*
X-9077989Y-39511238D01*
X-9027048Y-39517314D01*
X-8984118Y-39489223D01*
X-8969289Y-39440110D01*
X-8971362Y-39431271D01*
X-8660890Y-39431271D01*
X-8651981Y-39481795D01*
X-8612681Y-39514772D01*
X-8587029Y-39519295D01*
X-8129886Y-39519295D01*
X-8081677Y-39501748D01*
X-8056025Y-39457319D01*
X-8064934Y-39406795D01*
X-8104234Y-39373818D01*
X-8129886Y-39369295D01*
X-8283458Y-39369295D01*
X-8283458Y-39177628D01*
X-7900125Y-39177628D01*
X-7898939Y-39180885D01*
X-7897886Y-39195818D01*
X-7859791Y-39348199D01*
X-7855648Y-39354332D01*
X-7855003Y-39361705D01*
X-7840063Y-39383042D01*
X-7763872Y-39459233D01*
X-7762390Y-39459924D01*
X-7744380Y-39473282D01*
X-7668190Y-39511377D01*
X-7663736Y-39511889D01*
X-7660301Y-39514772D01*
X-7634649Y-39519295D01*
X-7482268Y-39519295D01*
X-7478055Y-39517761D01*
X-7473694Y-39518804D01*
X-7448727Y-39511377D01*
X-7372536Y-39473282D01*
X-7371411Y-39472094D01*
X-7353044Y-39459233D01*
X-7338106Y-39444295D01*
X-7023935Y-39444295D01*
X-7006388Y-39492504D01*
X-6961959Y-39518156D01*
X-6911435Y-39509247D01*
X-6878458Y-39469947D01*
X-6873935Y-39444295D01*
X-6873935Y-39399664D01*
X-6071268Y-39399664D01*
X-6066225Y-39418482D01*
X-6064527Y-39437896D01*
X-6058852Y-39446000D01*
X-6057990Y-39449219D01*
X-6055260Y-39451130D01*
X-6049587Y-39459233D01*
X-6011492Y-39497328D01*
X-5993832Y-39505562D01*
X-5977871Y-39516739D01*
X-5974454Y-39516440D01*
X-5971483Y-39518156D01*
X-5968103Y-39517560D01*
X-5964996Y-39519009D01*
X-5946177Y-39513966D01*
X-5926764Y-39512269D01*
X-5922949Y-39509597D01*
X-5920959Y-39509247D01*
X-5918837Y-39506719D01*
X-5918659Y-39506594D01*
X-5915441Y-39505732D01*
X-5913529Y-39503002D01*
X-5905427Y-39497329D01*
X-5867331Y-39459234D01*
X-5864208Y-39452538D01*
X-5728242Y-39452538D01*
X-5705504Y-39498527D01*
X-5658524Y-39519140D01*
X-5609286Y-39504732D01*
X-5591293Y-39485898D01*
X-5387030Y-39179503D01*
X-5182767Y-39485898D01*
X-5141425Y-39516277D01*
X-5090229Y-39512976D01*
X-5053132Y-39477537D01*
X-5047493Y-39426545D01*
X-5057959Y-39402693D01*
X-5296891Y-39044295D01*
X-5208002Y-38910961D01*
X-4928697Y-38910961D01*
X-4927163Y-38915174D01*
X-4928205Y-38919536D01*
X-4920779Y-38944502D01*
X-4882683Y-39020693D01*
X-4881493Y-39021818D01*
X-4868634Y-39040185D01*
X-4830539Y-39078280D01*
X-4829057Y-39078971D01*
X-4811047Y-39092329D01*
X-4734857Y-39130424D01*
X-4730403Y-39130936D01*
X-4727563Y-39133319D01*
X-4915139Y-39401285D01*
X-4928410Y-39450842D01*
X-4906723Y-39497336D01*
X-4860223Y-39519011D01*
X-4810670Y-39505726D01*
X-4792255Y-39487305D01*
X-4547981Y-39138342D01*
X-4471554Y-39138342D01*
X-4471554Y-39444295D01*
X-4454007Y-39492504D01*
X-4409578Y-39518156D01*
X-4359054Y-39509247D01*
X-4326077Y-39469947D01*
X-4321554Y-39444295D01*
X-4321554Y-38644295D01*
X-4328217Y-38625986D01*
X-4331602Y-38606795D01*
X-4336786Y-38602444D01*
X-4339101Y-38596086D01*
X-4355974Y-38586343D01*
X-4370902Y-38573818D01*
X-4380644Y-38572100D01*
X-4383530Y-38570434D01*
X-4386812Y-38571012D01*
X-4396554Y-38569295D01*
X-4701316Y-38569295D01*
X-4705529Y-38570828D01*
X-4709890Y-38569787D01*
X-4734857Y-38577213D01*
X-4811047Y-38615308D01*
X-4812172Y-38616497D01*
X-4830539Y-38629357D01*
X-4868634Y-38667452D01*
X-4869326Y-38668936D01*
X-4882683Y-38686944D01*
X-4920779Y-38763135D01*
X-4921291Y-38767588D01*
X-4924174Y-38771024D01*
X-4928697Y-38796676D01*
X-4928697Y-38910961D01*
X-5208002Y-38910961D01*
X-5057959Y-38685897D01*
X-5045818Y-38636052D01*
X-5068555Y-38590063D01*
X-5115536Y-38569450D01*
X-5164774Y-38583857D01*
X-5182767Y-38602692D01*
X-5387030Y-38909086D01*
X-5591293Y-38602692D01*
X-5632635Y-38572313D01*
X-5683831Y-38575615D01*
X-5720928Y-38611053D01*
X-5726567Y-38662045D01*
X-5716101Y-38685898D01*
X-5477169Y-39044295D01*
X-5716101Y-39402692D01*
X-5728242Y-39452538D01*
X-5864208Y-39452538D01*
X-5859097Y-39441577D01*
X-5847918Y-39425612D01*
X-5848507Y-39418868D01*
X-5845649Y-39412738D01*
X-5850690Y-39393921D01*
X-5852389Y-39374504D01*
X-5858064Y-39366399D01*
X-5858926Y-39363183D01*
X-5861654Y-39361272D01*
X-5867330Y-39353167D01*
X-5905426Y-39315071D01*
X-5923084Y-39306836D01*
X-5939049Y-39295659D01*
X-5942464Y-39295957D01*
X-5945435Y-39294243D01*
X-5948815Y-39294839D01*
X-5951923Y-39293390D01*
X-5970742Y-39298432D01*
X-5990156Y-39300131D01*
X-5993969Y-39302801D01*
X-5995959Y-39303152D01*
X-5998080Y-39305679D01*
X-5998258Y-39305804D01*
X-6001477Y-39306667D01*
X-6003388Y-39309396D01*
X-6011493Y-39315072D01*
X-6049588Y-39353168D01*
X-6057821Y-39370825D01*
X-6068999Y-39386789D01*
X-6068408Y-39393532D01*
X-6071268Y-39399664D01*
X-6873935Y-39399664D01*
X-6873935Y-38980616D01*
X-6071268Y-38980616D01*
X-6066225Y-38999435D01*
X-6064527Y-39018848D01*
X-6058853Y-39026950D01*
X-6057991Y-39030170D01*
X-6055260Y-39032081D01*
X-6049587Y-39040185D01*
X-6011492Y-39078280D01*
X-5993832Y-39086514D01*
X-5977871Y-39097691D01*
X-5974454Y-39097392D01*
X-5971483Y-39099108D01*
X-5968103Y-39098512D01*
X-5964996Y-39099961D01*
X-5946177Y-39094918D01*
X-5926764Y-39093221D01*
X-5922949Y-39090549D01*
X-5920959Y-39090199D01*
X-5918837Y-39087671D01*
X-5918659Y-39087546D01*
X-5915441Y-39086684D01*
X-5913529Y-39083954D01*
X-5905427Y-39078281D01*
X-5867331Y-39040186D01*
X-5859095Y-39022526D01*
X-5847918Y-39006562D01*
X-5848507Y-38999820D01*
X-5845649Y-38993690D01*
X-5850691Y-38974871D01*
X-5852390Y-38955455D01*
X-5858064Y-38947351D01*
X-5858926Y-38944135D01*
X-5861654Y-38942224D01*
X-5867331Y-38934118D01*
X-5905427Y-38896023D01*
X-5923087Y-38887788D01*
X-5939048Y-38876613D01*
X-5942463Y-38876911D01*
X-5945435Y-38875196D01*
X-5948815Y-38875792D01*
X-5951923Y-38874343D01*
X-5970743Y-38879385D01*
X-5990155Y-38881084D01*
X-5993968Y-38883753D01*
X-5995959Y-38884105D01*
X-5998080Y-38886633D01*
X-5998259Y-38886758D01*
X-6001478Y-38887621D01*
X-6003389Y-38890350D01*
X-6011492Y-38896024D01*
X-6049587Y-38934119D01*
X-6057820Y-38951776D01*
X-6068999Y-38967741D01*
X-6068408Y-38974484D01*
X-6071268Y-38980616D01*
X-6873935Y-38980616D01*
X-6873935Y-38644295D01*
X-6891482Y-38596086D01*
X-6935911Y-38570434D01*
X-6986435Y-38579343D01*
X-7019412Y-38618643D01*
X-7023935Y-38644295D01*
X-7023935Y-39444295D01*
X-7338106Y-39444295D01*
X-7276853Y-39383041D01*
X-7273726Y-39376335D01*
X-7267736Y-39371989D01*
X-7257126Y-39348200D01*
X-7219030Y-39195818D01*
X-7219390Y-39192369D01*
X-7216791Y-39177628D01*
X-7216791Y-38910961D01*
X-7217976Y-38907703D01*
X-7219030Y-38892771D01*
X-7257126Y-38740389D01*
X-7261268Y-38734256D01*
X-7261913Y-38726884D01*
X-7276854Y-38705547D01*
X-7353044Y-38629357D01*
X-7354525Y-38628666D01*
X-7372536Y-38615308D01*
X-7448727Y-38577213D01*
X-7453180Y-38576700D01*
X-7456616Y-38573818D01*
X-7482268Y-38569295D01*
X-7634649Y-38569295D01*
X-7638862Y-38570828D01*
X-7643223Y-38569787D01*
X-7668190Y-38577213D01*
X-7744380Y-38615308D01*
X-7745505Y-38616496D01*
X-7763871Y-38629356D01*
X-7840063Y-38705547D01*
X-7843190Y-38712254D01*
X-7849181Y-38716601D01*
X-7859791Y-38740390D01*
X-7897886Y-38892771D01*
X-7897525Y-38896219D01*
X-7900125Y-38910961D01*
X-7900125Y-39177628D01*
X-8283458Y-39177628D01*
X-8283458Y-38863455D01*
X-8259110Y-38887804D01*
X-8257627Y-38888495D01*
X-8239618Y-38901853D01*
X-8163427Y-38939948D01*
X-8112460Y-38945813D01*
X-8069647Y-38917546D01*
X-8055021Y-38868372D01*
X-8075424Y-38821301D01*
X-8096345Y-38805784D01*
X-8161649Y-38773131D01*
X-8223981Y-38710800D01*
X-8296054Y-38602692D01*
X-8299530Y-38600137D01*
X-8301005Y-38596086D01*
X-8319854Y-38585202D01*
X-8337396Y-38572313D01*
X-8341698Y-38572590D01*
X-8345434Y-38570434D01*
X-8366870Y-38574214D01*
X-8388593Y-38575615D01*
X-8391711Y-38578594D01*
X-8395958Y-38579343D01*
X-8409948Y-38596015D01*
X-8425689Y-38611053D01*
X-8426162Y-38615339D01*
X-8428935Y-38618643D01*
X-8433458Y-38644295D01*
X-8433458Y-39369295D01*
X-8587029Y-39369295D01*
X-8635238Y-39386842D01*
X-8660890Y-39431271D01*
X-8971362Y-39431271D01*
X-8975236Y-39414751D01*
X-9273289Y-38719295D01*
X-8853696Y-38719295D01*
X-8805487Y-38701748D01*
X-8779835Y-38657319D01*
X-8788744Y-38606795D01*
X-8828044Y-38573818D01*
X-8853696Y-38569295D01*
X-9387030Y-38569295D01*
X-9395355Y-38572325D01*
X-9404154Y-38571276D01*
X-9418796Y-38580857D01*
X-9435239Y-38586842D01*
X-9439669Y-38594515D01*
X-9447084Y-38599367D01*
X-9452141Y-38616117D01*
X-9460891Y-38631271D01*
X-9459352Y-38639997D01*
X-9461913Y-38648479D01*
X-9576199Y-38648479D01*
X-9576199Y-38003914D01*
X-9423934Y-38003914D01*
X-9422400Y-38008127D01*
X-9423442Y-38012488D01*
X-9416016Y-38037455D01*
X-9377921Y-38113645D01*
X-9376732Y-38114770D01*
X-9363873Y-38133136D01*
X-9325778Y-38171232D01*
X-9324296Y-38171922D01*
X-9306285Y-38185282D01*
X-9230094Y-38223377D01*
X-9225640Y-38223889D01*
X-9222205Y-38226772D01*
X-9196553Y-38231295D01*
X-9044172Y-38231295D01*
X-9039958Y-38229761D01*
X-9035598Y-38230803D01*
X-9010631Y-38223377D01*
X-8934441Y-38185282D01*
X-8933316Y-38184094D01*
X-8914948Y-38171232D01*
X-8886988Y-38143271D01*
X-8660890Y-38143271D01*
X-8651981Y-38193795D01*
X-8612681Y-38226772D01*
X-8587029Y-38231295D01*
X-8129886Y-38231295D01*
X-8081677Y-38213748D01*
X-8056025Y-38169319D01*
X-8064934Y-38118795D01*
X-8104234Y-38085818D01*
X-8129886Y-38081295D01*
X-8283458Y-38081295D01*
X-8283458Y-37889628D01*
X-7900125Y-37889628D01*
X-7898939Y-37892885D01*
X-7897886Y-37907818D01*
X-7859791Y-38060199D01*
X-7855648Y-38066332D01*
X-7855003Y-38073705D01*
X-7840063Y-38095042D01*
X-7763872Y-38171233D01*
X-7762390Y-38171924D01*
X-7744380Y-38185282D01*
X-7668190Y-38223377D01*
X-7663736Y-38223889D01*
X-7660301Y-38226772D01*
X-7634649Y-38231295D01*
X-7482268Y-38231295D01*
X-7478055Y-38229761D01*
X-7473694Y-38230804D01*
X-7448727Y-38223377D01*
X-7372536Y-38185282D01*
X-7371411Y-38184094D01*
X-7353044Y-38171233D01*
X-7338106Y-38156295D01*
X-7023935Y-38156295D01*
X-7006388Y-38204504D01*
X-6961959Y-38230156D01*
X-6911435Y-38221247D01*
X-6878458Y-38181947D01*
X-6873935Y-38156295D01*
X-6873935Y-38111664D01*
X-6071268Y-38111664D01*
X-6066225Y-38130482D01*
X-6064527Y-38149896D01*
X-6058852Y-38158000D01*
X-6057990Y-38161219D01*
X-6055260Y-38163130D01*
X-6049587Y-38171233D01*
X-6011492Y-38209328D01*
X-5993832Y-38217562D01*
X-5977871Y-38228739D01*
X-5974454Y-38228440D01*
X-5971483Y-38230156D01*
X-5968103Y-38229560D01*
X-5964996Y-38231009D01*
X-5946177Y-38225966D01*
X-5926764Y-38224269D01*
X-5922949Y-38221597D01*
X-5920959Y-38221247D01*
X-5918837Y-38218719D01*
X-5918659Y-38218594D01*
X-5915441Y-38217732D01*
X-5913529Y-38215002D01*
X-5905427Y-38209329D01*
X-5867331Y-38171234D01*
X-5864208Y-38164538D01*
X-5728242Y-38164538D01*
X-5705504Y-38210527D01*
X-5658524Y-38231140D01*
X-5609286Y-38216732D01*
X-5591293Y-38197898D01*
X-5387030Y-37891503D01*
X-5182767Y-38197898D01*
X-5141425Y-38228277D01*
X-5090229Y-38224976D01*
X-5053132Y-38189537D01*
X-5047493Y-38138545D01*
X-5057959Y-38114693D01*
X-5296891Y-37756295D01*
X-5057959Y-37397897D01*
X-5045818Y-37348052D01*
X-5048182Y-37343271D01*
X-5003748Y-37343271D01*
X-4994839Y-37393795D01*
X-4955539Y-37426772D01*
X-4929887Y-37431295D01*
X-4776315Y-37431295D01*
X-4776315Y-38156295D01*
X-4758768Y-38204504D01*
X-4714339Y-38230156D01*
X-4663815Y-38221247D01*
X-4630838Y-38181947D01*
X-4626315Y-38156295D01*
X-4626315Y-37431295D01*
X-4472744Y-37431295D01*
X-4424535Y-37413748D01*
X-4398883Y-37369319D01*
X-4407792Y-37318795D01*
X-4447092Y-37285818D01*
X-4472744Y-37281295D01*
X-4929887Y-37281295D01*
X-4978096Y-37298842D01*
X-5003748Y-37343271D01*
X-5048182Y-37343271D01*
X-5068555Y-37302063D01*
X-5115536Y-37281450D01*
X-5164774Y-37295857D01*
X-5182767Y-37314692D01*
X-5387030Y-37621086D01*
X-5591293Y-37314692D01*
X-5632635Y-37284313D01*
X-5683831Y-37287615D01*
X-5720928Y-37323053D01*
X-5726567Y-37374045D01*
X-5716101Y-37397898D01*
X-5477169Y-37756295D01*
X-5716101Y-38114692D01*
X-5728242Y-38164538D01*
X-5864208Y-38164538D01*
X-5859097Y-38153577D01*
X-5847918Y-38137612D01*
X-5848507Y-38130868D01*
X-5845649Y-38124738D01*
X-5850690Y-38105921D01*
X-5852389Y-38086504D01*
X-5858064Y-38078399D01*
X-5858926Y-38075183D01*
X-5861654Y-38073272D01*
X-5867330Y-38065167D01*
X-5905426Y-38027071D01*
X-5923084Y-38018836D01*
X-5939049Y-38007659D01*
X-5942464Y-38007957D01*
X-5945435Y-38006243D01*
X-5948815Y-38006839D01*
X-5951923Y-38005390D01*
X-5970742Y-38010432D01*
X-5990156Y-38012131D01*
X-5993969Y-38014801D01*
X-5995959Y-38015152D01*
X-5998080Y-38017679D01*
X-5998258Y-38017804D01*
X-6001477Y-38018667D01*
X-6003388Y-38021396D01*
X-6011493Y-38027072D01*
X-6049588Y-38065168D01*
X-6057821Y-38082825D01*
X-6068999Y-38098789D01*
X-6068408Y-38105532D01*
X-6071268Y-38111664D01*
X-6873935Y-38111664D01*
X-6873935Y-37692616D01*
X-6071268Y-37692616D01*
X-6066225Y-37711435D01*
X-6064527Y-37730848D01*
X-6058853Y-37738950D01*
X-6057991Y-37742170D01*
X-6055260Y-37744081D01*
X-6049587Y-37752185D01*
X-6011492Y-37790280D01*
X-5993832Y-37798514D01*
X-5977871Y-37809691D01*
X-5974454Y-37809392D01*
X-5971483Y-37811108D01*
X-5968103Y-37810512D01*
X-5964996Y-37811961D01*
X-5946177Y-37806918D01*
X-5926764Y-37805221D01*
X-5922949Y-37802549D01*
X-5920959Y-37802199D01*
X-5918837Y-37799671D01*
X-5918659Y-37799546D01*
X-5915441Y-37798684D01*
X-5913529Y-37795954D01*
X-5905427Y-37790281D01*
X-5867331Y-37752186D01*
X-5859095Y-37734526D01*
X-5847918Y-37718562D01*
X-5848507Y-37711820D01*
X-5845649Y-37705690D01*
X-5850691Y-37686871D01*
X-5852390Y-37667455D01*
X-5858064Y-37659351D01*
X-5858926Y-37656135D01*
X-5861654Y-37654224D01*
X-5867331Y-37646118D01*
X-5905427Y-37608023D01*
X-5923087Y-37599788D01*
X-5939048Y-37588613D01*
X-5942463Y-37588911D01*
X-5945435Y-37587196D01*
X-5948815Y-37587792D01*
X-5951923Y-37586343D01*
X-5970743Y-37591385D01*
X-5990155Y-37593084D01*
X-5993968Y-37595753D01*
X-5995959Y-37596105D01*
X-5998080Y-37598633D01*
X-5998259Y-37598758D01*
X-6001478Y-37599621D01*
X-6003389Y-37602350D01*
X-6011492Y-37608024D01*
X-6049587Y-37646119D01*
X-6057820Y-37663776D01*
X-6068999Y-37679741D01*
X-6068408Y-37686484D01*
X-6071268Y-37692616D01*
X-6873935Y-37692616D01*
X-6873935Y-37356295D01*
X-6891482Y-37308086D01*
X-6935911Y-37282434D01*
X-6986435Y-37291343D01*
X-7019412Y-37330643D01*
X-7023935Y-37356295D01*
X-7023935Y-38156295D01*
X-7338106Y-38156295D01*
X-7276853Y-38095041D01*
X-7273726Y-38088335D01*
X-7267736Y-38083989D01*
X-7257126Y-38060200D01*
X-7219030Y-37907818D01*
X-7219390Y-37904369D01*
X-7216791Y-37889628D01*
X-7216791Y-37622961D01*
X-7217976Y-37619703D01*
X-7219030Y-37604771D01*
X-7257126Y-37452389D01*
X-7261268Y-37446256D01*
X-7261913Y-37438884D01*
X-7276854Y-37417547D01*
X-7353044Y-37341357D01*
X-7354525Y-37340666D01*
X-7372536Y-37327308D01*
X-7448727Y-37289213D01*
X-7453180Y-37288700D01*
X-7456616Y-37285818D01*
X-7482268Y-37281295D01*
X-7634649Y-37281295D01*
X-7638862Y-37282828D01*
X-7643223Y-37281787D01*
X-7668190Y-37289213D01*
X-7744380Y-37327308D01*
X-7745505Y-37328496D01*
X-7763871Y-37341356D01*
X-7840063Y-37417547D01*
X-7843190Y-37424254D01*
X-7849181Y-37428601D01*
X-7859791Y-37452390D01*
X-7897886Y-37604771D01*
X-7897525Y-37608219D01*
X-7900125Y-37622961D01*
X-7900125Y-37889628D01*
X-8283458Y-37889628D01*
X-8283458Y-37575455D01*
X-8259110Y-37599804D01*
X-8257627Y-37600495D01*
X-8239618Y-37613853D01*
X-8163427Y-37651948D01*
X-8112460Y-37657813D01*
X-8069647Y-37629546D01*
X-8055021Y-37580372D01*
X-8075424Y-37533301D01*
X-8096345Y-37517784D01*
X-8161649Y-37485131D01*
X-8223981Y-37422800D01*
X-8296054Y-37314692D01*
X-8299530Y-37312137D01*
X-8301005Y-37308086D01*
X-8319854Y-37297202D01*
X-8337396Y-37284313D01*
X-8341698Y-37284590D01*
X-8345434Y-37282434D01*
X-8366870Y-37286214D01*
X-8388593Y-37287615D01*
X-8391711Y-37290594D01*
X-8395958Y-37291343D01*
X-8409948Y-37308015D01*
X-8425689Y-37323053D01*
X-8426162Y-37327339D01*
X-8428935Y-37330643D01*
X-8433458Y-37356295D01*
X-8433458Y-38081295D01*
X-8587029Y-38081295D01*
X-8635238Y-38098842D01*
X-8660890Y-38143271D01*
X-8886988Y-38143271D01*
X-8876853Y-38133136D01*
X-8876161Y-38131652D01*
X-8862805Y-38113646D01*
X-8824710Y-38037456D01*
X-8824197Y-38033002D01*
X-8821314Y-38029566D01*
X-8816791Y-38003914D01*
X-8816791Y-37699152D01*
X-8817976Y-37695894D01*
X-8819030Y-37680962D01*
X-8857126Y-37528580D01*
X-8857369Y-37528218D01*
X-8867483Y-37505168D01*
X-8943673Y-37390883D01*
X-8946489Y-37388813D01*
X-8953044Y-37379452D01*
X-8991139Y-37341357D01*
X-8992620Y-37340666D01*
X-9010631Y-37327308D01*
X-9086822Y-37289213D01*
X-9091275Y-37288700D01*
X-9094711Y-37285818D01*
X-9120363Y-37281295D01*
X-9272744Y-37281295D01*
X-9320953Y-37298842D01*
X-9346605Y-37343271D01*
X-9337696Y-37393795D01*
X-9298396Y-37426772D01*
X-9272744Y-37431295D01*
X-9138068Y-37431295D01*
X-9088598Y-37456029D01*
X-9064361Y-37480266D01*
X-8999497Y-37577562D01*
X-8993217Y-37602681D01*
X-9010631Y-37593975D01*
X-9015084Y-37593462D01*
X-9018520Y-37590580D01*
X-9044172Y-37586057D01*
X-9196553Y-37586057D01*
X-9200765Y-37587590D01*
X-9205127Y-37586548D01*
X-9230094Y-37593975D01*
X-9306285Y-37632070D01*
X-9307410Y-37633259D01*
X-9325777Y-37646119D01*
X-9363872Y-37684214D01*
X-9364562Y-37685695D01*
X-9377921Y-37703706D01*
X-9416016Y-37779897D01*
X-9416528Y-37784350D01*
X-9419411Y-37787786D01*
X-9423934Y-37813438D01*
X-9423934Y-38003914D01*
X-9576199Y-38003914D01*
X-9576199Y-36715914D01*
X-9423934Y-36715914D01*
X-9422400Y-36720127D01*
X-9423442Y-36724488D01*
X-9416016Y-36749455D01*
X-9377921Y-36825645D01*
X-9376732Y-36826770D01*
X-9363873Y-36845136D01*
X-9325778Y-36883232D01*
X-9324296Y-36883922D01*
X-9306285Y-36897282D01*
X-9230094Y-36935377D01*
X-9225640Y-36935889D01*
X-9222205Y-36938772D01*
X-9196553Y-36943295D01*
X-9006077Y-36943295D01*
X-9001863Y-36941761D01*
X-8997503Y-36942803D01*
X-8972536Y-36935377D01*
X-8896346Y-36897282D01*
X-8895220Y-36896092D01*
X-8876854Y-36883233D01*
X-8838758Y-36845137D01*
X-8817077Y-36798640D01*
X-8830354Y-36749086D01*
X-8872379Y-36719659D01*
X-8923487Y-36724130D01*
X-8944824Y-36739071D01*
X-8974314Y-36768561D01*
X-9023782Y-36793295D01*
X-9178848Y-36793295D01*
X-9228316Y-36768561D01*
X-9249199Y-36747677D01*
X-9273934Y-36698209D01*
X-9273934Y-36601628D01*
X-8662030Y-36601628D01*
X-8660844Y-36604885D01*
X-8659791Y-36619818D01*
X-8621696Y-36772199D01*
X-8617553Y-36778332D01*
X-8616908Y-36785705D01*
X-8601968Y-36807042D01*
X-8525777Y-36883233D01*
X-8524295Y-36883924D01*
X-8506285Y-36897282D01*
X-8430095Y-36935377D01*
X-8425641Y-36935889D01*
X-8422206Y-36938772D01*
X-8396554Y-36943295D01*
X-8244173Y-36943295D01*
X-8239960Y-36941761D01*
X-8235599Y-36942804D01*
X-8210632Y-36935377D01*
X-8134441Y-36897282D01*
X-8133316Y-36896094D01*
X-8114949Y-36883233D01*
X-8100011Y-36868295D01*
X-7785840Y-36868295D01*
X-7768293Y-36916504D01*
X-7723864Y-36942156D01*
X-7673340Y-36933247D01*
X-7640363Y-36893947D01*
X-7635840Y-36868295D01*
X-7635840Y-36823664D01*
X-6833173Y-36823664D01*
X-6828130Y-36842482D01*
X-6826432Y-36861896D01*
X-6820757Y-36870000D01*
X-6819895Y-36873219D01*
X-6817165Y-36875130D01*
X-6811492Y-36883233D01*
X-6773397Y-36921328D01*
X-6755737Y-36929562D01*
X-6739776Y-36940739D01*
X-6736359Y-36940440D01*
X-6733388Y-36942156D01*
X-6730008Y-36941560D01*
X-6726901Y-36943009D01*
X-6708082Y-36937966D01*
X-6688669Y-36936269D01*
X-6684854Y-36933597D01*
X-6682864Y-36933247D01*
X-6680742Y-36930719D01*
X-6680564Y-36930594D01*
X-6677346Y-36929732D01*
X-6675434Y-36927002D01*
X-6667332Y-36921329D01*
X-6629236Y-36883234D01*
X-6621002Y-36865577D01*
X-6609823Y-36849612D01*
X-6610263Y-36844578D01*
X-6524848Y-36844578D01*
X-6523447Y-36895862D01*
X-6489410Y-36934247D01*
X-6438661Y-36941772D01*
X-6394948Y-36914917D01*
X-6382546Y-36892012D01*
X-6323450Y-36714723D01*
X-6050611Y-36714723D01*
X-5991515Y-36892012D01*
X-5959624Y-36932198D01*
X-5909363Y-36942484D01*
X-5864249Y-36918055D01*
X-5845392Y-36870344D01*
X-5849213Y-36844578D01*
X-5955593Y-36525438D01*
X-5766793Y-36525438D01*
X-5765607Y-36528695D01*
X-5764554Y-36543629D01*
X-5726458Y-36696010D01*
X-5724468Y-36698955D01*
X-5720779Y-36711360D01*
X-5682684Y-36787550D01*
X-5681497Y-36788673D01*
X-5668635Y-36807042D01*
X-5592445Y-36883233D01*
X-5588381Y-36885127D01*
X-5586034Y-36888949D01*
X-5563129Y-36901351D01*
X-5448843Y-36939446D01*
X-5447208Y-36939401D01*
X-5425126Y-36943295D01*
X-5234650Y-36943295D01*
X-5216341Y-36936631D01*
X-5197150Y-36933247D01*
X-5192799Y-36928062D01*
X-5186441Y-36925748D01*
X-5176698Y-36908874D01*
X-5164173Y-36893947D01*
X-5162455Y-36884204D01*
X-5160789Y-36881319D01*
X-5161367Y-36878036D01*
X-5159650Y-36868295D01*
X-5159650Y-36715914D01*
X-4966792Y-36715914D01*
X-4965258Y-36720127D01*
X-4966300Y-36724488D01*
X-4958874Y-36749455D01*
X-4920779Y-36825645D01*
X-4919590Y-36826770D01*
X-4906731Y-36845136D01*
X-4868636Y-36883232D01*
X-4867154Y-36883922D01*
X-4849143Y-36897282D01*
X-4772952Y-36935377D01*
X-4768498Y-36935889D01*
X-4765063Y-36938772D01*
X-4739411Y-36943295D01*
X-4548935Y-36943295D01*
X-4547396Y-36942734D01*
X-4525218Y-36939446D01*
X-4410932Y-36901351D01*
X-4370746Y-36869460D01*
X-4360460Y-36819199D01*
X-4384888Y-36774085D01*
X-4432600Y-36755228D01*
X-4458366Y-36759049D01*
X-4561105Y-36793295D01*
X-4721706Y-36793295D01*
X-4771174Y-36768561D01*
X-4792057Y-36747677D01*
X-4816792Y-36698209D01*
X-4816792Y-36657428D01*
X-4792058Y-36607960D01*
X-4771174Y-36587076D01*
X-4713234Y-36558106D01*
X-4568840Y-36522008D01*
X-4565895Y-36520019D01*
X-4553489Y-36516329D01*
X-4477299Y-36478234D01*
X-4476173Y-36477044D01*
X-4457807Y-36464185D01*
X-4419712Y-36426090D01*
X-4419019Y-36424604D01*
X-4405663Y-36406598D01*
X-4367567Y-36330408D01*
X-4367054Y-36325953D01*
X-4364172Y-36322518D01*
X-4359649Y-36296866D01*
X-4359649Y-36220676D01*
X-4361182Y-36216462D01*
X-4360141Y-36212101D01*
X-4367567Y-36187134D01*
X-4405663Y-36110944D01*
X-4406852Y-36109818D01*
X-4419712Y-36091452D01*
X-4457807Y-36053357D01*
X-4459288Y-36052666D01*
X-4477299Y-36039308D01*
X-4553489Y-36001213D01*
X-4557942Y-36000700D01*
X-4561378Y-35997818D01*
X-4587030Y-35993295D01*
X-4777507Y-35993295D01*
X-4779045Y-35993855D01*
X-4801224Y-35997144D01*
X-4915509Y-36035239D01*
X-4955695Y-36067130D01*
X-4965981Y-36117391D01*
X-4941552Y-36162505D01*
X-4893841Y-36181362D01*
X-4868075Y-36177541D01*
X-4765337Y-36143295D01*
X-4604735Y-36143295D01*
X-4555267Y-36168029D01*
X-4534383Y-36188912D01*
X-4509649Y-36238381D01*
X-4509649Y-36279160D01*
X-4534383Y-36328629D01*
X-4555267Y-36349513D01*
X-4613205Y-36378482D01*
X-4757601Y-36414581D01*
X-4760544Y-36416569D01*
X-4772953Y-36420260D01*
X-4849143Y-36458356D01*
X-4850268Y-36459545D01*
X-4868635Y-36472405D01*
X-4906730Y-36510500D01*
X-4907420Y-36511981D01*
X-4920779Y-36529992D01*
X-4958874Y-36606182D01*
X-4959386Y-36610635D01*
X-4962269Y-36614071D01*
X-4966792Y-36639723D01*
X-4966792Y-36715914D01*
X-5159650Y-36715914D01*
X-5159650Y-36068295D01*
X-5166313Y-36049986D01*
X-5169698Y-36030795D01*
X-5174882Y-36026444D01*
X-5177197Y-36020086D01*
X-5194070Y-36010343D01*
X-5208998Y-35997818D01*
X-5218740Y-35996100D01*
X-5221626Y-35994434D01*
X-5224908Y-35995012D01*
X-5234650Y-35993295D01*
X-5425126Y-35993295D01*
X-5426664Y-35993855D01*
X-5448843Y-35997144D01*
X-5563129Y-36035239D01*
X-5566639Y-36038025D01*
X-5571108Y-36038416D01*
X-5592445Y-36053357D01*
X-5668635Y-36129547D01*
X-5669325Y-36131028D01*
X-5682684Y-36149039D01*
X-5720779Y-36225230D01*
X-5721184Y-36228756D01*
X-5726458Y-36240580D01*
X-5764554Y-36392961D01*
X-5764193Y-36396409D01*
X-5766793Y-36411152D01*
X-5766793Y-36525438D01*
X-5955593Y-36525438D01*
X-6115880Y-36044578D01*
X-6117222Y-36042886D01*
X-6117281Y-36040728D01*
X-6133030Y-36022966D01*
X-6147771Y-36004392D01*
X-6149884Y-36003959D01*
X-6151318Y-36002343D01*
X-6174796Y-35998861D01*
X-6198032Y-35994106D01*
X-6199930Y-35995133D01*
X-6202067Y-35994817D01*
X-6222294Y-36007244D01*
X-6243146Y-36018535D01*
X-6243939Y-36020541D01*
X-6245779Y-36021672D01*
X-6258182Y-36044578D01*
X-6524848Y-36844578D01*
X-6610263Y-36844578D01*
X-6610412Y-36842868D01*
X-6607554Y-36836738D01*
X-6612595Y-36817921D01*
X-6614294Y-36798504D01*
X-6619969Y-36790399D01*
X-6620831Y-36787183D01*
X-6623559Y-36785272D01*
X-6629235Y-36777167D01*
X-6667331Y-36739071D01*
X-6684989Y-36730836D01*
X-6700954Y-36719659D01*
X-6704369Y-36719957D01*
X-6707340Y-36718243D01*
X-6710720Y-36718839D01*
X-6713828Y-36717390D01*
X-6732647Y-36722432D01*
X-6752061Y-36724131D01*
X-6755874Y-36726801D01*
X-6757864Y-36727152D01*
X-6759985Y-36729679D01*
X-6760163Y-36729804D01*
X-6763382Y-36730667D01*
X-6765293Y-36733396D01*
X-6773398Y-36739072D01*
X-6811493Y-36777168D01*
X-6819726Y-36794825D01*
X-6830904Y-36810789D01*
X-6830313Y-36817532D01*
X-6833173Y-36823664D01*
X-7635840Y-36823664D01*
X-7635840Y-36404616D01*
X-6833173Y-36404616D01*
X-6828130Y-36423435D01*
X-6826432Y-36442848D01*
X-6820758Y-36450950D01*
X-6819896Y-36454170D01*
X-6817165Y-36456081D01*
X-6811492Y-36464185D01*
X-6773397Y-36502280D01*
X-6755737Y-36510514D01*
X-6739776Y-36521691D01*
X-6736359Y-36521392D01*
X-6733388Y-36523108D01*
X-6730008Y-36522512D01*
X-6726901Y-36523961D01*
X-6708082Y-36518918D01*
X-6688669Y-36517221D01*
X-6684854Y-36514549D01*
X-6682864Y-36514199D01*
X-6680742Y-36511671D01*
X-6680564Y-36511546D01*
X-6677346Y-36510684D01*
X-6675434Y-36507954D01*
X-6667332Y-36502281D01*
X-6629236Y-36464186D01*
X-6621000Y-36446526D01*
X-6609823Y-36430562D01*
X-6610412Y-36423820D01*
X-6607554Y-36417690D01*
X-6612596Y-36398871D01*
X-6614295Y-36379455D01*
X-6619969Y-36371351D01*
X-6620831Y-36368135D01*
X-6623559Y-36366224D01*
X-6629236Y-36358118D01*
X-6667332Y-36320023D01*
X-6684992Y-36311788D01*
X-6700953Y-36300613D01*
X-6704368Y-36300911D01*
X-6707340Y-36299196D01*
X-6710720Y-36299792D01*
X-6713828Y-36298343D01*
X-6732648Y-36303385D01*
X-6752060Y-36305084D01*
X-6755873Y-36307753D01*
X-6757864Y-36308105D01*
X-6759985Y-36310633D01*
X-6760164Y-36310758D01*
X-6763383Y-36311621D01*
X-6765294Y-36314350D01*
X-6773397Y-36320024D01*
X-6811492Y-36358119D01*
X-6819725Y-36375776D01*
X-6830904Y-36391741D01*
X-6830313Y-36398484D01*
X-6833173Y-36404616D01*
X-7635840Y-36404616D01*
X-7635840Y-36068295D01*
X-7653387Y-36020086D01*
X-7697816Y-35994434D01*
X-7748340Y-36003343D01*
X-7781317Y-36042643D01*
X-7785840Y-36068295D01*
X-7785840Y-36868295D01*
X-8100011Y-36868295D01*
X-8038758Y-36807041D01*
X-8035631Y-36800335D01*
X-8029641Y-36795989D01*
X-8019031Y-36772200D01*
X-7980935Y-36619818D01*
X-7981295Y-36616369D01*
X-7978696Y-36601628D01*
X-7978696Y-36334961D01*
X-7979881Y-36331703D01*
X-7980935Y-36316771D01*
X-8019031Y-36164389D01*
X-8023173Y-36158256D01*
X-8023818Y-36150884D01*
X-8038759Y-36129547D01*
X-8114949Y-36053357D01*
X-8116430Y-36052666D01*
X-8134441Y-36039308D01*
X-8210632Y-36001213D01*
X-8215085Y-36000700D01*
X-8218521Y-35997818D01*
X-8244173Y-35993295D01*
X-8396554Y-35993295D01*
X-8400767Y-35994828D01*
X-8405128Y-35993787D01*
X-8430095Y-36001213D01*
X-8506285Y-36039308D01*
X-8507410Y-36040496D01*
X-8525776Y-36053356D01*
X-8601968Y-36129547D01*
X-8605095Y-36136254D01*
X-8611086Y-36140601D01*
X-8621696Y-36164390D01*
X-8659791Y-36316771D01*
X-8659430Y-36320219D01*
X-8662030Y-36334961D01*
X-8662030Y-36601628D01*
X-9273934Y-36601628D01*
X-9273934Y-36543142D01*
X-9249199Y-36493673D01*
X-9228317Y-36472791D01*
X-9178848Y-36448057D01*
X-9023782Y-36448057D01*
X-8974313Y-36472791D01*
X-8944823Y-36502281D01*
X-8944376Y-36502489D01*
X-8944162Y-36502934D01*
X-8921147Y-36513320D01*
X-8898327Y-36523961D01*
X-8897851Y-36523833D01*
X-8897401Y-36524037D01*
X-8873111Y-36517204D01*
X-8848772Y-36510683D01*
X-8848488Y-36510278D01*
X-8848014Y-36510145D01*
X-8833794Y-36489292D01*
X-8819346Y-36468657D01*
X-8819388Y-36468166D01*
X-8819111Y-36467759D01*
X-8817163Y-36441784D01*
X-8855259Y-36060832D01*
X-8862169Y-36046480D01*
X-8864935Y-36030795D01*
X-8872967Y-36024055D01*
X-8877516Y-36014608D01*
X-8892033Y-36008056D01*
X-8904235Y-35997818D01*
X-8921443Y-35994783D01*
X-8924277Y-35993505D01*
X-8925979Y-35993983D01*
X-8929887Y-35993295D01*
X-9310839Y-35993295D01*
X-9359048Y-36010842D01*
X-9384700Y-36055271D01*
X-9375791Y-36105795D01*
X-9336491Y-36138772D01*
X-9310839Y-36143295D01*
X-8997761Y-36143295D01*
X-8981857Y-36302327D01*
X-9006077Y-36298057D01*
X-9196553Y-36298057D01*
X-9200765Y-36299590D01*
X-9205127Y-36298548D01*
X-9230094Y-36305975D01*
X-9306285Y-36344070D01*
X-9307410Y-36345259D01*
X-9325777Y-36358119D01*
X-9363872Y-36396214D01*
X-9364562Y-36397695D01*
X-9377921Y-36415706D01*
X-9416016Y-36491897D01*
X-9416528Y-36496350D01*
X-9419411Y-36499786D01*
X-9423934Y-36525438D01*
X-9423934Y-36715914D01*
X-9576199Y-36715914D01*
X-9576199Y-35300604D01*
X-9460891Y-35300604D01*
X-9451982Y-35351128D01*
X-9412682Y-35384105D01*
X-9387030Y-35388628D01*
X-9347744Y-35388628D01*
X-9347744Y-35580295D01*
X-9330197Y-35628504D01*
X-9285768Y-35654156D01*
X-9235244Y-35645247D01*
X-9202267Y-35605947D01*
X-9197744Y-35580295D01*
X-9197744Y-35388628D01*
X-8891791Y-35388628D01*
X-8886405Y-35386667D01*
X-8880790Y-35387817D01*
X-8862802Y-35378076D01*
X-8843582Y-35371081D01*
X-8840716Y-35366117D01*
X-8835676Y-35363388D01*
X-8828159Y-35344368D01*
X-8817930Y-35326652D01*
X-8818925Y-35321006D01*
X-8816819Y-35315676D01*
X-8817123Y-35313628D01*
X-8662030Y-35313628D01*
X-8660844Y-35316885D01*
X-8659791Y-35331818D01*
X-8621696Y-35484199D01*
X-8617553Y-35490332D01*
X-8616908Y-35497705D01*
X-8601968Y-35519042D01*
X-8525777Y-35595233D01*
X-8524295Y-35595924D01*
X-8506285Y-35609282D01*
X-8430095Y-35647377D01*
X-8425641Y-35647889D01*
X-8422206Y-35650772D01*
X-8396554Y-35655295D01*
X-8244173Y-35655295D01*
X-8239960Y-35653761D01*
X-8235599Y-35654804D01*
X-8210632Y-35647377D01*
X-8134441Y-35609282D01*
X-8133316Y-35608094D01*
X-8114949Y-35595233D01*
X-8100011Y-35580295D01*
X-7785840Y-35580295D01*
X-7768293Y-35628504D01*
X-7723864Y-35654156D01*
X-7673340Y-35645247D01*
X-7640363Y-35605947D01*
X-7635840Y-35580295D01*
X-7635840Y-35535664D01*
X-6833173Y-35535664D01*
X-6828130Y-35554482D01*
X-6826432Y-35573896D01*
X-6820757Y-35582000D01*
X-6819895Y-35585219D01*
X-6817165Y-35587130D01*
X-6811492Y-35595233D01*
X-6773397Y-35633328D01*
X-6755737Y-35641562D01*
X-6739776Y-35652739D01*
X-6736359Y-35652440D01*
X-6733388Y-35654156D01*
X-6730008Y-35653560D01*
X-6726901Y-35655009D01*
X-6708082Y-35649966D01*
X-6688669Y-35648269D01*
X-6684854Y-35645597D01*
X-6682864Y-35645247D01*
X-6680742Y-35642719D01*
X-6680564Y-35642594D01*
X-6677346Y-35641732D01*
X-6675434Y-35639002D01*
X-6667332Y-35633329D01*
X-6629236Y-35595234D01*
X-6621002Y-35577577D01*
X-6613786Y-35567271D01*
X-6527558Y-35567271D01*
X-6518649Y-35617795D01*
X-6479349Y-35650772D01*
X-6453697Y-35655295D01*
X-6072745Y-35655295D01*
X-6054436Y-35648631D01*
X-6035245Y-35645247D01*
X-6030894Y-35640062D01*
X-6024536Y-35637748D01*
X-6014793Y-35620874D01*
X-6002268Y-35605947D01*
X-6000550Y-35596204D01*
X-5998884Y-35593319D01*
X-5999462Y-35590036D01*
X-5997745Y-35580295D01*
X-5997745Y-34849948D01*
X-5804602Y-34849948D01*
X-5791326Y-34899502D01*
X-5749300Y-34928929D01*
X-5698193Y-34924459D01*
X-5676856Y-34909519D01*
X-5651278Y-34883942D01*
X-5565337Y-34855295D01*
X-5513486Y-34855295D01*
X-5427543Y-34883942D01*
X-5372479Y-34939006D01*
X-5343509Y-34996945D01*
X-5309649Y-35132387D01*
X-5309649Y-35228202D01*
X-5343509Y-35363643D01*
X-5372479Y-35421582D01*
X-5427544Y-35476648D01*
X-5513486Y-35505295D01*
X-5565337Y-35505295D01*
X-5651278Y-35476648D01*
X-5676855Y-35451071D01*
X-5723352Y-35429390D01*
X-5772906Y-35442667D01*
X-5802333Y-35484693D01*
X-5797861Y-35535800D01*
X-5782921Y-35557137D01*
X-5744825Y-35595233D01*
X-5740760Y-35597128D01*
X-5738414Y-35600948D01*
X-5715509Y-35613351D01*
X-5601224Y-35651446D01*
X-5599589Y-35651401D01*
X-5577507Y-35655295D01*
X-5501316Y-35655295D01*
X-5499777Y-35654734D01*
X-5477599Y-35651446D01*
X-5363313Y-35613351D01*
X-5359801Y-35610563D01*
X-5355333Y-35610173D01*
X-5333997Y-35595233D01*
X-5257806Y-35519041D01*
X-5257114Y-35517558D01*
X-5243758Y-35499550D01*
X-5207940Y-35427914D01*
X-5004887Y-35427914D01*
X-5003353Y-35432127D01*
X-5004395Y-35436488D01*
X-4996969Y-35461455D01*
X-4958874Y-35537645D01*
X-4957685Y-35538770D01*
X-4944826Y-35557136D01*
X-4906731Y-35595232D01*
X-4905249Y-35595922D01*
X-4887238Y-35609282D01*
X-4811047Y-35647377D01*
X-4806593Y-35647889D01*
X-4803158Y-35650772D01*
X-4777506Y-35655295D01*
X-4587030Y-35655295D01*
X-4585491Y-35654734D01*
X-4563313Y-35651446D01*
X-4449027Y-35613351D01*
X-4408841Y-35581460D01*
X-4398555Y-35531199D01*
X-4422983Y-35486085D01*
X-4470695Y-35467228D01*
X-4496461Y-35471049D01*
X-4599200Y-35505295D01*
X-4759801Y-35505295D01*
X-4809269Y-35480561D01*
X-4830152Y-35459677D01*
X-4854887Y-35410209D01*
X-4854887Y-35369428D01*
X-4830153Y-35319960D01*
X-4809269Y-35299076D01*
X-4751329Y-35270106D01*
X-4606935Y-35234008D01*
X-4603990Y-35232019D01*
X-4591584Y-35228329D01*
X-4515394Y-35190234D01*
X-4514268Y-35189044D01*
X-4495902Y-35176185D01*
X-4457807Y-35138090D01*
X-4457114Y-35136604D01*
X-4443758Y-35118598D01*
X-4405662Y-35042408D01*
X-4405149Y-35037953D01*
X-4402267Y-35034518D01*
X-4397744Y-35008866D01*
X-4397744Y-34932676D01*
X-4399277Y-34928462D01*
X-4398236Y-34924101D01*
X-4405662Y-34899134D01*
X-4443758Y-34822944D01*
X-4444947Y-34821818D01*
X-4457807Y-34803452D01*
X-4495902Y-34765357D01*
X-4497383Y-34764666D01*
X-4515394Y-34751308D01*
X-4591584Y-34713213D01*
X-4596037Y-34712700D01*
X-4599473Y-34709818D01*
X-4625125Y-34705295D01*
X-4815602Y-34705295D01*
X-4817140Y-34705855D01*
X-4839319Y-34709144D01*
X-4953604Y-34747239D01*
X-4993790Y-34779130D01*
X-5004076Y-34829391D01*
X-4979647Y-34874505D01*
X-4931936Y-34893362D01*
X-4906170Y-34889541D01*
X-4803432Y-34855295D01*
X-4642830Y-34855295D01*
X-4593362Y-34880029D01*
X-4572478Y-34900912D01*
X-4547744Y-34950381D01*
X-4547744Y-34991160D01*
X-4572478Y-35040629D01*
X-4593362Y-35061513D01*
X-4651300Y-35090482D01*
X-4795696Y-35126581D01*
X-4798639Y-35128569D01*
X-4811048Y-35132260D01*
X-4887238Y-35170356D01*
X-4888363Y-35171545D01*
X-4906730Y-35184405D01*
X-4944825Y-35222500D01*
X-4945515Y-35223981D01*
X-4958874Y-35241992D01*
X-4996969Y-35318182D01*
X-4997481Y-35322635D01*
X-5000364Y-35326071D01*
X-5004887Y-35351723D01*
X-5004887Y-35427914D01*
X-5207940Y-35427914D01*
X-5205663Y-35423360D01*
X-5205257Y-35419833D01*
X-5199984Y-35408010D01*
X-5161888Y-35255628D01*
X-5162248Y-35252179D01*
X-5159649Y-35237438D01*
X-5159649Y-35123152D01*
X-5160834Y-35119894D01*
X-5161888Y-35104962D01*
X-5199984Y-34952580D01*
X-5201972Y-34949636D01*
X-5205663Y-34937230D01*
X-5243758Y-34861039D01*
X-5244944Y-34859915D01*
X-5257807Y-34841547D01*
X-5333997Y-34765357D01*
X-5338060Y-34763462D01*
X-5340408Y-34759641D01*
X-5363313Y-34747239D01*
X-5477599Y-34709144D01*
X-5479233Y-34709188D01*
X-5501316Y-34705295D01*
X-5577507Y-34705295D01*
X-5579045Y-34705855D01*
X-5601224Y-34709144D01*
X-5715509Y-34747239D01*
X-5719020Y-34750025D01*
X-5723487Y-34750416D01*
X-5744824Y-34765356D01*
X-5782920Y-34803451D01*
X-5804602Y-34849948D01*
X-5997745Y-34849948D01*
X-5997745Y-34780295D01*
X-6015292Y-34732086D01*
X-6059721Y-34706434D01*
X-6110245Y-34715343D01*
X-6143222Y-34754643D01*
X-6147745Y-34780295D01*
X-6147745Y-35505295D01*
X-6453697Y-35505295D01*
X-6501906Y-35522842D01*
X-6527558Y-35567271D01*
X-6613786Y-35567271D01*
X-6609823Y-35561612D01*
X-6610412Y-35554868D01*
X-6607554Y-35548738D01*
X-6612595Y-35529921D01*
X-6614294Y-35510504D01*
X-6619969Y-35502399D01*
X-6620831Y-35499183D01*
X-6623559Y-35497272D01*
X-6629235Y-35489167D01*
X-6667331Y-35451071D01*
X-6684989Y-35442836D01*
X-6700954Y-35431659D01*
X-6704369Y-35431957D01*
X-6707340Y-35430243D01*
X-6710720Y-35430839D01*
X-6713828Y-35429390D01*
X-6732647Y-35434432D01*
X-6752061Y-35436131D01*
X-6755874Y-35438801D01*
X-6757864Y-35439152D01*
X-6759985Y-35441679D01*
X-6760163Y-35441804D01*
X-6763382Y-35442667D01*
X-6765293Y-35445396D01*
X-6773398Y-35451072D01*
X-6811493Y-35489168D01*
X-6819726Y-35506825D01*
X-6830904Y-35522789D01*
X-6830313Y-35529532D01*
X-6833173Y-35535664D01*
X-7635840Y-35535664D01*
X-7635840Y-35116616D01*
X-6833173Y-35116616D01*
X-6828130Y-35135435D01*
X-6826432Y-35154848D01*
X-6820758Y-35162950D01*
X-6819896Y-35166170D01*
X-6817165Y-35168081D01*
X-6811492Y-35176185D01*
X-6773397Y-35214280D01*
X-6755737Y-35222514D01*
X-6739776Y-35233691D01*
X-6736359Y-35233392D01*
X-6733388Y-35235108D01*
X-6730008Y-35234512D01*
X-6726901Y-35235961D01*
X-6708082Y-35230918D01*
X-6688669Y-35229221D01*
X-6684854Y-35226549D01*
X-6682864Y-35226199D01*
X-6680742Y-35223671D01*
X-6680564Y-35223546D01*
X-6677346Y-35222684D01*
X-6675434Y-35219954D01*
X-6667332Y-35214281D01*
X-6629236Y-35176186D01*
X-6621000Y-35158526D01*
X-6609823Y-35142562D01*
X-6610412Y-35135820D01*
X-6607554Y-35129690D01*
X-6612596Y-35110871D01*
X-6614295Y-35091455D01*
X-6619969Y-35083351D01*
X-6620831Y-35080135D01*
X-6623559Y-35078224D01*
X-6629236Y-35070118D01*
X-6667332Y-35032023D01*
X-6684992Y-35023788D01*
X-6700953Y-35012613D01*
X-6704368Y-35012911D01*
X-6707340Y-35011196D01*
X-6710720Y-35011792D01*
X-6713828Y-35010343D01*
X-6732648Y-35015385D01*
X-6752060Y-35017084D01*
X-6755873Y-35019753D01*
X-6757864Y-35020105D01*
X-6759985Y-35022633D01*
X-6760164Y-35022758D01*
X-6763383Y-35023621D01*
X-6765294Y-35026350D01*
X-6773397Y-35032024D01*
X-6811492Y-35070119D01*
X-6819725Y-35087776D01*
X-6830904Y-35103741D01*
X-6830313Y-35110484D01*
X-6833173Y-35116616D01*
X-7635840Y-35116616D01*
X-7635840Y-34780295D01*
X-7653387Y-34732086D01*
X-7697816Y-34706434D01*
X-7748340Y-34715343D01*
X-7781317Y-34754643D01*
X-7785840Y-34780295D01*
X-7785840Y-35580295D01*
X-8100011Y-35580295D01*
X-8038758Y-35519041D01*
X-8035631Y-35512335D01*
X-8029641Y-35507989D01*
X-8019031Y-35484200D01*
X-7980935Y-35331818D01*
X-7981295Y-35328369D01*
X-7978696Y-35313628D01*
X-7978696Y-35046961D01*
X-7979881Y-35043703D01*
X-7980935Y-35028771D01*
X-8019031Y-34876389D01*
X-8023173Y-34870256D01*
X-8023818Y-34862884D01*
X-8038759Y-34841547D01*
X-8114949Y-34765357D01*
X-8116430Y-34764666D01*
X-8134441Y-34751308D01*
X-8210632Y-34713213D01*
X-8215085Y-34712700D01*
X-8218521Y-34709818D01*
X-8244173Y-34705295D01*
X-8396554Y-34705295D01*
X-8400767Y-34706828D01*
X-8405128Y-34705787D01*
X-8430095Y-34713213D01*
X-8506285Y-34751308D01*
X-8507410Y-34752496D01*
X-8525776Y-34765356D01*
X-8601968Y-34841547D01*
X-8605095Y-34848254D01*
X-8611086Y-34852601D01*
X-8621696Y-34876390D01*
X-8659791Y-35028771D01*
X-8659430Y-35032219D01*
X-8662030Y-35046961D01*
X-8662030Y-35313628D01*
X-8817123Y-35313628D01*
X-8820640Y-35289911D01*
X-9011117Y-34718483D01*
X-9043008Y-34678297D01*
X-9093269Y-34668011D01*
X-9138383Y-34692440D01*
X-9157240Y-34740151D01*
X-9153419Y-34765917D01*
X-8995848Y-35238628D01*
X-9197744Y-35238628D01*
X-9197744Y-35046961D01*
X-9215291Y-34998752D01*
X-9259720Y-34973100D01*
X-9310244Y-34982009D01*
X-9343221Y-35021309D01*
X-9347744Y-35046961D01*
X-9347744Y-35238628D01*
X-9387030Y-35238628D01*
X-9435239Y-35256175D01*
X-9460891Y-35300604D01*
X-9576199Y-35300604D01*
X-9576199Y-34553725D01*
X-4207268Y-34553725D01*
X-4207268Y-39633581D01*
G37*
D11*
X51071427Y2947643D02*
X50357142Y2947643D01*
X51214284Y2519072D02*
X50714284Y4019072D01*
X50714284Y4019072D02*
X50214284Y2519072D01*
X48999999Y4019072D02*
X49714285Y4019072D01*
X49714285Y4019072D02*
X49785713Y3304786D01*
X49785713Y3304786D02*
X49714285Y3376215D01*
X49714285Y3376215D02*
X49571428Y3447643D01*
X49571428Y3447643D02*
X49214285Y3447643D01*
X49214285Y3447643D02*
X49071428Y3376215D01*
X49071428Y3376215D02*
X48999999Y3304786D01*
X48999999Y3304786D02*
X48928570Y3161929D01*
X48928570Y3161929D02*
X48928570Y2804786D01*
X48928570Y2804786D02*
X48999999Y2661929D01*
X48999999Y2661929D02*
X49071428Y2590501D01*
X49071428Y2590501D02*
X49214285Y2519072D01*
X49214285Y2519072D02*
X49571428Y2519072D01*
X49571428Y2519072D02*
X49714285Y2590501D01*
X49714285Y2590501D02*
X49785713Y2661929D01*
X76071427Y2947642D02*
X75357142Y2947642D01*
X76214284Y2519071D02*
X75714284Y4019071D01*
X75714284Y4019071D02*
X75214284Y2519071D01*
X74071428Y4019071D02*
X74357142Y4019071D01*
X74357142Y4019071D02*
X74499999Y3947642D01*
X74499999Y3947642D02*
X74571428Y3876214D01*
X74571428Y3876214D02*
X74714285Y3661928D01*
X74714285Y3661928D02*
X74785713Y3376214D01*
X74785713Y3376214D02*
X74785713Y2804785D01*
X74785713Y2804785D02*
X74714285Y2661928D01*
X74714285Y2661928D02*
X74642856Y2590500D01*
X74642856Y2590500D02*
X74499999Y2519071D01*
X74499999Y2519071D02*
X74214285Y2519071D01*
X74214285Y2519071D02*
X74071428Y2590500D01*
X74071428Y2590500D02*
X73999999Y2661928D01*
X73999999Y2661928D02*
X73928570Y2804785D01*
X73928570Y2804785D02*
X73928570Y3161928D01*
X73928570Y3161928D02*
X73999999Y3304785D01*
X73999999Y3304785D02*
X74071428Y3376214D01*
X74071428Y3376214D02*
X74214285Y3447642D01*
X74214285Y3447642D02*
X74499999Y3447642D01*
X74499999Y3447642D02*
X74642856Y3376214D01*
X74642856Y3376214D02*
X74714285Y3304785D01*
X74714285Y3304785D02*
X74785713Y3161928D01*
X36107142Y2519071D02*
X36107142Y4019071D01*
X35249999Y2519071D02*
X35892856Y3376214D01*
X35249999Y4019071D02*
X36107142Y3161928D01*
X34749999Y4019071D02*
X33821427Y4019071D01*
X33821427Y4019071D02*
X34321427Y3447642D01*
X34321427Y3447642D02*
X34107142Y3447642D01*
X34107142Y3447642D02*
X33964285Y3376214D01*
X33964285Y3376214D02*
X33892856Y3304785D01*
X33892856Y3304785D02*
X33821427Y3161928D01*
X33821427Y3161928D02*
X33821427Y2804785D01*
X33821427Y2804785D02*
X33892856Y2661928D01*
X33892856Y2661928D02*
X33964285Y2590500D01*
X33964285Y2590500D02*
X34107142Y2519071D01*
X34107142Y2519071D02*
X34535713Y2519071D01*
X34535713Y2519071D02*
X34678570Y2590500D01*
X34678570Y2590500D02*
X34749999Y2661928D01*
X60642857Y3304786D02*
X60428571Y3233358D01*
X60428571Y3233358D02*
X60357142Y3161929D01*
X60357142Y3161929D02*
X60285714Y3019072D01*
X60285714Y3019072D02*
X60285714Y2804786D01*
X60285714Y2804786D02*
X60357142Y2661929D01*
X60357142Y2661929D02*
X60428571Y2590501D01*
X60428571Y2590501D02*
X60571428Y2519072D01*
X60571428Y2519072D02*
X61142857Y2519072D01*
X61142857Y2519072D02*
X61142857Y4019072D01*
X61142857Y4019072D02*
X60642857Y4019072D01*
X60642857Y4019072D02*
X60500000Y3947643D01*
X60500000Y3947643D02*
X60428571Y3876215D01*
X60428571Y3876215D02*
X60357142Y3733358D01*
X60357142Y3733358D02*
X60357142Y3590501D01*
X60357142Y3590501D02*
X60428571Y3447643D01*
X60428571Y3447643D02*
X60500000Y3376215D01*
X60500000Y3376215D02*
X60642857Y3304786D01*
X60642857Y3304786D02*
X61142857Y3304786D01*
X58785714Y2519072D02*
X59285714Y3233358D01*
X59642857Y2519072D02*
X59642857Y4019072D01*
X59642857Y4019072D02*
X59071428Y4019072D01*
X59071428Y4019072D02*
X58928571Y3947643D01*
X58928571Y3947643D02*
X58857142Y3876215D01*
X58857142Y3876215D02*
X58785714Y3733358D01*
X58785714Y3733358D02*
X58785714Y3519072D01*
X58785714Y3519072D02*
X58857142Y3376215D01*
X58857142Y3376215D02*
X58928571Y3304786D01*
X58928571Y3304786D02*
X59071428Y3233358D01*
X59071428Y3233358D02*
X59642857Y3233358D01*
X46107142Y2519071D02*
X46107142Y4019071D01*
X45249999Y2519071D02*
X45892856Y3376214D01*
X45249999Y4019071D02*
X46107142Y3161928D01*
X43964285Y3519071D02*
X43964285Y2519071D01*
X44321427Y4090500D02*
X44678570Y3019071D01*
X44678570Y3019071D02*
X43749999Y3019071D01*
D12*
G36*
X29881190Y-40531295D02*
G01*
X29777884Y-40531295D01*
X29691942Y-40502648D01*
X29636877Y-40447582D01*
X29607907Y-40389642D01*
X29574047Y-40254202D01*
X29574047Y-40158387D01*
X29607907Y-40022946D01*
X29636877Y-39965006D01*
X29691941Y-39909942D01*
X29777884Y-39881295D01*
X29881190Y-39881295D01*
X29881190Y-40531295D01*
G37*
G36*
X26490713Y-40150342D02*
G01*
X26278656Y-40150342D01*
X26229188Y-40125608D01*
X26208305Y-40104725D01*
X26183570Y-40055255D01*
X26183570Y-39976381D01*
X26208305Y-39926911D01*
X26229188Y-39906029D01*
X26278656Y-39881295D01*
X26490713Y-39881295D01*
X26490713Y-40150342D01*
G37*
G36*
X26757380Y-38862342D02*
G01*
X26545323Y-38862342D01*
X26495855Y-38837608D01*
X26474972Y-38816725D01*
X26450237Y-38767255D01*
X26450237Y-38688381D01*
X26474972Y-38638911D01*
X26495855Y-38618029D01*
X26545323Y-38593295D01*
X26757380Y-38593295D01*
X26757380Y-38862342D01*
G37*
G36*
X27452133Y-39014723D02*
G01*
X27279294Y-39014723D01*
X27365713Y-38755465D01*
X27452133Y-39014723D01*
G37*
G36*
X31821667Y-40795581D02*
G01*
X22338332Y-40795581D01*
X22338332Y-40453914D01*
X22452618Y-40453914D01*
X22454151Y-40458127D01*
X22453110Y-40462488D01*
X22460536Y-40487455D01*
X22498631Y-40563645D01*
X22499819Y-40564770D01*
X22512679Y-40583136D01*
X22550774Y-40621232D01*
X22552255Y-40621922D01*
X22570267Y-40635282D01*
X22646458Y-40673377D01*
X22650911Y-40673889D01*
X22654347Y-40676772D01*
X22679999Y-40681295D01*
X22908570Y-40681295D01*
X22912782Y-40679761D01*
X22917144Y-40680804D01*
X22942111Y-40673377D01*
X23018302Y-40635282D01*
X23019426Y-40634094D01*
X23037795Y-40621232D01*
X23075890Y-40583136D01*
X23097570Y-40536640D01*
X23084292Y-40487085D01*
X23042266Y-40457659D01*
X22991159Y-40462131D01*
X22969822Y-40477072D01*
X22940333Y-40506561D01*
X22890865Y-40531295D01*
X22697704Y-40531295D01*
X22648235Y-40506561D01*
X22627352Y-40485677D01*
X22602618Y-40436209D01*
X22602618Y-40281142D01*
X22627352Y-40231673D01*
X22648234Y-40210791D01*
X22697704Y-40186057D01*
X22794284Y-40186057D01*
X22813280Y-40179142D01*
X22833120Y-40175220D01*
X22836871Y-40170555D01*
X22842493Y-40168510D01*
X22852601Y-40151002D01*
X22865277Y-40135245D01*
X22865153Y-40129262D01*
X22868145Y-40124081D01*
X22864634Y-40104170D01*
X22864216Y-40083953D01*
X22859775Y-40076617D01*
X22859236Y-40073557D01*
X22856568Y-40071318D01*
X22850728Y-40061670D01*
X22692900Y-39881295D01*
X23022856Y-39881295D01*
X23071065Y-39863748D01*
X23096717Y-39819319D01*
X23094059Y-39804246D01*
X23138360Y-39804246D01*
X23142181Y-39830012D01*
X23408847Y-40630012D01*
X23410189Y-40631703D01*
X23410248Y-40633862D01*
X23425997Y-40651623D01*
X23440738Y-40670198D01*
X23442851Y-40670630D01*
X23444285Y-40672247D01*
X23467755Y-40675727D01*
X23490999Y-40680484D01*
X23492898Y-40679455D01*
X23495034Y-40679772D01*
X23515240Y-40667357D01*
X23536113Y-40656056D01*
X23536907Y-40654046D01*
X23538746Y-40652917D01*
X23551149Y-40630012D01*
X23609848Y-40453914D01*
X23900237Y-40453914D01*
X23901770Y-40458127D01*
X23900729Y-40462488D01*
X23908155Y-40487455D01*
X23946250Y-40563645D01*
X23947438Y-40564770D01*
X23960298Y-40583136D01*
X23998393Y-40621232D01*
X23999874Y-40621922D01*
X24017886Y-40635282D01*
X24094077Y-40673377D01*
X24098530Y-40673889D01*
X24101966Y-40676772D01*
X24127618Y-40681295D01*
X24356189Y-40681295D01*
X24360401Y-40679761D01*
X24364763Y-40680804D01*
X24389730Y-40673377D01*
X24465921Y-40635282D01*
X24467045Y-40634094D01*
X24485414Y-40621232D01*
X24492108Y-40614538D01*
X25234025Y-40614538D01*
X25256763Y-40660527D01*
X25303743Y-40681140D01*
X25352981Y-40666732D01*
X25370974Y-40647898D01*
X25575236Y-40341503D01*
X25779500Y-40647898D01*
X25820842Y-40678277D01*
X25872038Y-40674976D01*
X25909135Y-40639537D01*
X25914774Y-40588545D01*
X25904308Y-40564693D01*
X25665376Y-40206295D01*
X25754265Y-40072961D01*
X26033570Y-40072961D01*
X26035103Y-40077174D01*
X26034062Y-40081536D01*
X26041488Y-40106502D01*
X26079584Y-40182693D01*
X26080773Y-40183818D01*
X26093633Y-40202185D01*
X26131728Y-40240280D01*
X26133209Y-40240971D01*
X26151220Y-40254329D01*
X26227410Y-40292424D01*
X26231863Y-40292936D01*
X26234703Y-40295319D01*
X26047128Y-40563285D01*
X26033857Y-40612842D01*
X26055544Y-40659336D01*
X26102044Y-40681011D01*
X26151597Y-40667726D01*
X26170012Y-40649305D01*
X26414286Y-40300342D01*
X26490713Y-40300342D01*
X26490713Y-40606295D01*
X26508260Y-40654504D01*
X26552689Y-40680156D01*
X26603213Y-40671247D01*
X26636190Y-40631947D01*
X26639260Y-40614538D01*
X27405454Y-40614538D01*
X27428192Y-40660527D01*
X27475172Y-40681140D01*
X27524410Y-40666732D01*
X27542403Y-40647898D01*
X27746665Y-40341503D01*
X27950929Y-40647898D01*
X27992271Y-40678277D01*
X28043467Y-40674976D01*
X28080564Y-40639537D01*
X28086203Y-40588545D01*
X28075737Y-40564693D01*
X27836805Y-40206295D01*
X28075737Y-39847897D01*
X28087878Y-39798052D01*
X28085514Y-39793271D01*
X28129948Y-39793271D01*
X28138857Y-39843795D01*
X28178157Y-39876772D01*
X28203809Y-39881295D01*
X28357381Y-39881295D01*
X28357381Y-40606295D01*
X28374928Y-40654504D01*
X28419357Y-40680156D01*
X28469881Y-40671247D01*
X28502858Y-40631947D01*
X28507381Y-40606295D01*
X28507381Y-40263438D01*
X29424047Y-40263438D01*
X29425232Y-40266695D01*
X29426286Y-40281629D01*
X29464382Y-40434010D01*
X29466371Y-40436955D01*
X29470061Y-40449360D01*
X29508156Y-40525550D01*
X29509342Y-40526673D01*
X29522205Y-40545042D01*
X29598395Y-40621233D01*
X29602458Y-40623127D01*
X29604806Y-40626949D01*
X29627711Y-40639351D01*
X29741997Y-40677446D01*
X29743631Y-40677401D01*
X29765714Y-40681295D01*
X29956190Y-40681295D01*
X29974498Y-40674631D01*
X29993690Y-40671247D01*
X29998040Y-40666062D01*
X30004399Y-40663748D01*
X30014141Y-40646874D01*
X30026667Y-40631947D01*
X30028384Y-40622204D01*
X30030051Y-40619319D01*
X30029472Y-40616036D01*
X30031190Y-40606295D01*
X30262142Y-40606295D01*
X30264513Y-40612811D01*
X30263340Y-40619647D01*
X30273079Y-40636344D01*
X30279689Y-40654504D01*
X30285694Y-40657971D01*
X30289189Y-40663963D01*
X30307380Y-40670492D01*
X30324118Y-40680156D01*
X30330949Y-40678951D01*
X30337476Y-40681294D01*
X30355607Y-40674603D01*
X30374642Y-40671247D01*
X30379099Y-40665934D01*
X30385606Y-40663534D01*
X30402260Y-40643505D01*
X30719285Y-40088711D01*
X30719285Y-40606295D01*
X30736832Y-40654504D01*
X30781261Y-40680156D01*
X30831785Y-40671247D01*
X30864762Y-40631947D01*
X30869285Y-40606295D01*
X30869285Y-40530104D01*
X31062142Y-40530104D01*
X31067741Y-40545488D01*
X31069169Y-40561800D01*
X31078560Y-40575212D01*
X31079689Y-40578313D01*
X31081438Y-40579323D01*
X31084109Y-40583137D01*
X31122205Y-40621233D01*
X31126269Y-40623128D01*
X31128616Y-40626948D01*
X31151521Y-40639351D01*
X31265806Y-40677446D01*
X31267440Y-40677401D01*
X31289523Y-40681295D01*
X31365714Y-40681295D01*
X31367252Y-40680734D01*
X31389431Y-40677446D01*
X31503717Y-40639351D01*
X31507228Y-40636563D01*
X31511697Y-40636173D01*
X31533033Y-40621233D01*
X31609224Y-40545041D01*
X31609915Y-40543558D01*
X31623272Y-40525550D01*
X31661367Y-40449360D01*
X31661772Y-40445833D01*
X31667046Y-40434010D01*
X31705142Y-40281628D01*
X31704781Y-40278179D01*
X31707381Y-40263438D01*
X31707381Y-40149152D01*
X31706195Y-40145894D01*
X31705142Y-40130962D01*
X31667046Y-39978580D01*
X31665057Y-39975636D01*
X31661367Y-39963230D01*
X31623272Y-39887039D01*
X31622085Y-39885915D01*
X31609223Y-39867547D01*
X31533033Y-39791357D01*
X31528969Y-39789462D01*
X31526622Y-39785641D01*
X31503717Y-39773239D01*
X31389431Y-39735144D01*
X31387796Y-39735188D01*
X31365714Y-39731295D01*
X31251428Y-39731295D01*
X31247214Y-39732828D01*
X31242854Y-39731787D01*
X31217887Y-39739213D01*
X31141697Y-39777308D01*
X31106425Y-39814562D01*
X31103350Y-39865773D01*
X31133914Y-39906978D01*
X31183812Y-39918898D01*
X31208779Y-39911472D01*
X31269133Y-39881295D01*
X31353544Y-39881295D01*
X31439486Y-39909942D01*
X31494550Y-39965006D01*
X31523520Y-40022945D01*
X31557381Y-40158387D01*
X31557381Y-40254202D01*
X31523520Y-40389643D01*
X31494550Y-40447582D01*
X31439485Y-40502648D01*
X31353544Y-40531295D01*
X31301693Y-40531295D01*
X31215752Y-40502648D01*
X31212142Y-40499038D01*
X31212142Y-40338438D01*
X31289523Y-40338438D01*
X31337732Y-40320891D01*
X31363384Y-40276462D01*
X31354475Y-40225938D01*
X31315175Y-40192961D01*
X31289523Y-40188438D01*
X31137142Y-40188438D01*
X31118833Y-40195101D01*
X31099642Y-40198486D01*
X31095291Y-40203670D01*
X31088933Y-40205985D01*
X31079190Y-40222858D01*
X31066665Y-40237786D01*
X31064947Y-40247528D01*
X31063281Y-40250414D01*
X31063859Y-40253696D01*
X31062142Y-40263438D01*
X31062142Y-40530104D01*
X30869285Y-40530104D01*
X30869285Y-39806295D01*
X30866913Y-39799778D01*
X30868087Y-39792943D01*
X30858347Y-39776245D01*
X30851738Y-39758086D01*
X30845732Y-39754618D01*
X30842238Y-39748627D01*
X30824046Y-39742097D01*
X30807309Y-39732434D01*
X30800477Y-39733638D01*
X30793951Y-39731296D01*
X30775819Y-39737986D01*
X30756785Y-39741343D01*
X30752327Y-39746655D01*
X30745821Y-39749056D01*
X30729167Y-39769085D01*
X30412142Y-40323878D01*
X30412142Y-39806295D01*
X30394595Y-39758086D01*
X30350166Y-39732434D01*
X30299642Y-39741343D01*
X30266665Y-39780643D01*
X30262142Y-39806295D01*
X30262142Y-40606295D01*
X30031190Y-40606295D01*
X30031190Y-39806295D01*
X30024526Y-39787986D01*
X30021142Y-39768795D01*
X30015957Y-39764444D01*
X30013643Y-39758086D01*
X29996769Y-39748343D01*
X29981842Y-39735818D01*
X29972099Y-39734100D01*
X29969214Y-39732434D01*
X29965931Y-39733012D01*
X29956190Y-39731295D01*
X29765714Y-39731295D01*
X29764175Y-39731855D01*
X29741997Y-39735144D01*
X29627711Y-39773239D01*
X29624200Y-39776025D01*
X29619732Y-39776416D01*
X29598395Y-39791357D01*
X29522205Y-39867547D01*
X29521514Y-39869028D01*
X29508156Y-39887039D01*
X29470061Y-39963230D01*
X29469655Y-39966756D01*
X29464382Y-39978580D01*
X29426286Y-40130961D01*
X29426646Y-40134409D01*
X29424047Y-40149152D01*
X29424047Y-40263438D01*
X28507381Y-40263438D01*
X28507381Y-39881295D01*
X28660952Y-39881295D01*
X28709161Y-39863748D01*
X28734813Y-39819319D01*
X28725904Y-39768795D01*
X28686604Y-39735818D01*
X28660952Y-39731295D01*
X28203809Y-39731295D01*
X28155600Y-39748842D01*
X28129948Y-39793271D01*
X28085514Y-39793271D01*
X28065141Y-39752063D01*
X28018160Y-39731450D01*
X27968922Y-39745857D01*
X27950929Y-39764692D01*
X27746665Y-40071086D01*
X27542403Y-39764692D01*
X27501061Y-39734313D01*
X27449865Y-39737615D01*
X27412768Y-39773053D01*
X27407129Y-39824045D01*
X27417595Y-39847898D01*
X27656526Y-40206295D01*
X27417595Y-40564692D01*
X27405454Y-40614538D01*
X26639260Y-40614538D01*
X26640713Y-40606295D01*
X26640713Y-39806295D01*
X26634049Y-39787986D01*
X26630665Y-39768795D01*
X26625480Y-39764444D01*
X26623166Y-39758086D01*
X26606292Y-39748343D01*
X26591365Y-39735818D01*
X26581622Y-39734100D01*
X26578737Y-39732434D01*
X26575454Y-39733012D01*
X26565713Y-39731295D01*
X26260951Y-39731295D01*
X26256737Y-39732828D01*
X26252377Y-39731787D01*
X26227410Y-39739213D01*
X26151220Y-39777308D01*
X26150094Y-39778497D01*
X26131728Y-39791357D01*
X26093633Y-39829452D01*
X26092940Y-39830936D01*
X26079584Y-39848944D01*
X26041488Y-39925135D01*
X26040975Y-39929588D01*
X26038093Y-39933024D01*
X26033570Y-39958676D01*
X26033570Y-40072961D01*
X25754265Y-40072961D01*
X25904308Y-39847897D01*
X25916449Y-39798052D01*
X25893712Y-39752063D01*
X25846731Y-39731450D01*
X25797493Y-39745857D01*
X25779500Y-39764692D01*
X25575236Y-40071086D01*
X25370974Y-39764692D01*
X25329632Y-39734313D01*
X25278436Y-39737615D01*
X25241339Y-39773053D01*
X25235700Y-39824045D01*
X25246166Y-39847898D01*
X25485097Y-40206295D01*
X25246166Y-40564692D01*
X25234025Y-40614538D01*
X24492108Y-40614538D01*
X24523509Y-40583136D01*
X24545189Y-40536640D01*
X24531911Y-40487085D01*
X24489885Y-40457659D01*
X24438778Y-40462131D01*
X24417441Y-40477072D01*
X24387952Y-40506561D01*
X24338484Y-40531295D01*
X24145323Y-40531295D01*
X24095854Y-40506561D01*
X24074971Y-40485677D01*
X24050237Y-40436209D01*
X24050237Y-40281142D01*
X24074971Y-40231673D01*
X24095853Y-40210791D01*
X24145323Y-40186057D01*
X24241903Y-40186057D01*
X24260899Y-40179142D01*
X24280739Y-40175220D01*
X24284490Y-40170555D01*
X24290112Y-40168510D01*
X24300220Y-40151002D01*
X24312896Y-40135245D01*
X24312772Y-40129262D01*
X24315764Y-40124081D01*
X24312253Y-40104170D01*
X24311835Y-40083953D01*
X24307394Y-40076617D01*
X24306855Y-40073557D01*
X24304187Y-40071318D01*
X24298347Y-40061670D01*
X24140519Y-39881295D01*
X24470475Y-39881295D01*
X24518684Y-39863748D01*
X24544336Y-39819319D01*
X24535427Y-39768795D01*
X24496127Y-39735818D01*
X24470475Y-39731295D01*
X23975237Y-39731295D01*
X23956237Y-39738210D01*
X23936401Y-39742133D01*
X23932650Y-39746795D01*
X23927028Y-39748842D01*
X23916918Y-39766351D01*
X23904244Y-39782107D01*
X23904367Y-39788089D01*
X23901376Y-39793271D01*
X23904887Y-39813184D01*
X23905306Y-39833399D01*
X23909745Y-39840732D01*
X23910285Y-39843795D01*
X23912954Y-39846034D01*
X23918794Y-39855683D01*
X24086753Y-40047636D01*
X24017886Y-40082070D01*
X24016760Y-40083259D01*
X23998394Y-40096119D01*
X23960299Y-40134214D01*
X23959608Y-40135695D01*
X23946250Y-40153706D01*
X23908155Y-40229897D01*
X23907642Y-40234350D01*
X23904760Y-40237786D01*
X23900237Y-40263438D01*
X23900237Y-40453914D01*
X23609848Y-40453914D01*
X23817816Y-39830012D01*
X23816415Y-39778728D01*
X23782378Y-39740343D01*
X23731629Y-39732818D01*
X23687916Y-39759673D01*
X23675514Y-39782578D01*
X23479998Y-40369124D01*
X23284483Y-39782578D01*
X23252592Y-39742392D01*
X23202331Y-39732106D01*
X23157217Y-39756535D01*
X23138360Y-39804246D01*
X23094059Y-39804246D01*
X23087808Y-39768795D01*
X23048508Y-39735818D01*
X23022856Y-39731295D01*
X22527618Y-39731295D01*
X22508618Y-39738210D01*
X22488782Y-39742133D01*
X22485031Y-39746795D01*
X22479409Y-39748842D01*
X22469299Y-39766351D01*
X22456625Y-39782107D01*
X22456748Y-39788089D01*
X22453757Y-39793271D01*
X22457268Y-39813184D01*
X22457687Y-39833399D01*
X22462126Y-39840732D01*
X22462666Y-39843795D01*
X22465335Y-39846034D01*
X22471175Y-39855683D01*
X22639134Y-40047636D01*
X22570267Y-40082070D01*
X22569141Y-40083259D01*
X22550775Y-40096119D01*
X22512680Y-40134214D01*
X22511989Y-40135695D01*
X22498631Y-40153706D01*
X22460536Y-40229897D01*
X22460023Y-40234350D01*
X22457141Y-40237786D01*
X22452618Y-40263438D01*
X22452618Y-40453914D01*
X22338332Y-40453914D01*
X22338332Y-38505271D01*
X25615662Y-38505271D01*
X25624571Y-38555795D01*
X25663871Y-38588772D01*
X25689523Y-38593295D01*
X25843095Y-38593295D01*
X25843095Y-39318295D01*
X25860642Y-39366504D01*
X25905071Y-39392156D01*
X25955595Y-39383247D01*
X25988572Y-39343947D01*
X25993095Y-39318295D01*
X25993095Y-38784961D01*
X26300237Y-38784961D01*
X26301770Y-38789174D01*
X26300729Y-38793536D01*
X26308155Y-38818502D01*
X26346251Y-38894693D01*
X26347440Y-38895818D01*
X26360300Y-38914185D01*
X26398395Y-38952280D01*
X26399876Y-38952971D01*
X26417887Y-38966329D01*
X26494077Y-39004424D01*
X26498530Y-39004936D01*
X26501370Y-39007319D01*
X26313795Y-39275285D01*
X26300524Y-39324842D01*
X26322211Y-39371336D01*
X26368711Y-39393011D01*
X26418264Y-39379726D01*
X26436679Y-39361305D01*
X26680953Y-39012342D01*
X26757380Y-39012342D01*
X26757380Y-39318295D01*
X26774927Y-39366504D01*
X26819356Y-39392156D01*
X26869880Y-39383247D01*
X26902857Y-39343947D01*
X26907380Y-39318295D01*
X26907380Y-39294578D01*
X27027896Y-39294578D01*
X27029297Y-39345862D01*
X27063334Y-39384247D01*
X27114083Y-39391772D01*
X27157796Y-39364917D01*
X27170198Y-39342012D01*
X27229294Y-39164723D01*
X27502133Y-39164723D01*
X27561229Y-39342012D01*
X27593120Y-39382198D01*
X27643381Y-39392484D01*
X27688495Y-39368055D01*
X27707352Y-39320344D01*
X27703531Y-39294578D01*
X27660643Y-39165914D01*
X27824046Y-39165914D01*
X27825579Y-39170127D01*
X27824538Y-39174489D01*
X27831964Y-39199456D01*
X27870060Y-39275645D01*
X27871248Y-39276770D01*
X27884108Y-39295136D01*
X27922203Y-39333232D01*
X27923684Y-39333922D01*
X27941696Y-39347282D01*
X28017886Y-39385377D01*
X28022339Y-39385889D01*
X28025775Y-39388772D01*
X28051427Y-39393295D01*
X28203808Y-39393295D01*
X28208020Y-39391761D01*
X28212382Y-39392804D01*
X28237349Y-39385377D01*
X28313540Y-39347282D01*
X28314664Y-39346094D01*
X28333033Y-39333232D01*
X28371128Y-39295136D01*
X28371819Y-39293653D01*
X28385176Y-39275645D01*
X28423271Y-39199455D01*
X28423783Y-39195001D01*
X28426666Y-39191566D01*
X28431189Y-39165914D01*
X28431189Y-38518295D01*
X28413642Y-38470086D01*
X28369213Y-38444434D01*
X28318689Y-38453343D01*
X28285712Y-38492643D01*
X28281189Y-38518295D01*
X28281189Y-39148209D01*
X28256454Y-39197677D01*
X28235571Y-39218561D01*
X28186103Y-39243295D01*
X28069132Y-39243295D01*
X28019664Y-39218561D01*
X27998780Y-39197676D01*
X27974046Y-39148208D01*
X27974046Y-38518295D01*
X27956499Y-38470086D01*
X27912070Y-38444434D01*
X27861546Y-38453343D01*
X27828569Y-38492643D01*
X27824046Y-38518295D01*
X27824046Y-39165914D01*
X27660643Y-39165914D01*
X27436864Y-38494578D01*
X27435521Y-38492886D01*
X27435463Y-38490728D01*
X27419713Y-38472966D01*
X27404973Y-38454392D01*
X27402859Y-38453959D01*
X27401426Y-38452343D01*
X27377947Y-38448861D01*
X27354712Y-38444106D01*
X27352813Y-38445133D01*
X27350677Y-38444817D01*
X27330449Y-38457244D01*
X27309598Y-38468535D01*
X27308804Y-38470541D01*
X27306965Y-38471672D01*
X27294562Y-38494578D01*
X27027896Y-39294578D01*
X26907380Y-39294578D01*
X26907380Y-38518295D01*
X26900716Y-38499986D01*
X26897332Y-38480795D01*
X26892147Y-38476444D01*
X26889833Y-38470086D01*
X26872959Y-38460343D01*
X26858032Y-38447818D01*
X26848289Y-38446100D01*
X26845404Y-38444434D01*
X26842121Y-38445012D01*
X26832380Y-38443295D01*
X26527618Y-38443295D01*
X26523404Y-38444828D01*
X26519044Y-38443787D01*
X26494077Y-38451213D01*
X26417887Y-38489308D01*
X26416761Y-38490497D01*
X26398395Y-38503357D01*
X26360300Y-38541452D01*
X26359607Y-38542936D01*
X26346251Y-38560944D01*
X26308155Y-38637135D01*
X26307642Y-38641588D01*
X26304760Y-38645024D01*
X26300237Y-38670676D01*
X26300237Y-38784961D01*
X25993095Y-38784961D01*
X25993095Y-38593295D01*
X26146666Y-38593295D01*
X26194875Y-38575748D01*
X26220527Y-38531319D01*
X26211618Y-38480795D01*
X26172318Y-38447818D01*
X26146666Y-38443295D01*
X25689523Y-38443295D01*
X25641314Y-38460842D01*
X25615662Y-38505271D01*
X22338332Y-38505271D01*
X22338332Y-38329009D01*
X31821667Y-38329009D01*
X31821667Y-40795581D01*
G37*
X94110839Y-22318295D02*
X94110839Y-21518295D01*
X93767982Y-22318295D02*
X93767982Y-21899247D01*
X93767982Y-21899247D02*
X93806077Y-21823057D01*
X93806077Y-21823057D02*
X93882268Y-21784961D01*
X93882268Y-21784961D02*
X93996554Y-21784961D01*
X93996554Y-21784961D02*
X94072744Y-21823057D01*
X94072744Y-21823057D02*
X94110839Y-21861152D01*
X93501315Y-21784961D02*
X93196553Y-21784961D01*
X93387029Y-21518295D02*
X93387029Y-22204009D01*
X93387029Y-22204009D02*
X93348934Y-22280200D01*
X93348934Y-22280200D02*
X93272744Y-22318295D01*
X93272744Y-22318295D02*
X93196553Y-22318295D01*
X93044172Y-21784961D02*
X92739410Y-21784961D01*
X92929886Y-21518295D02*
X92929886Y-22204009D01*
X92929886Y-22204009D02*
X92891791Y-22280200D01*
X92891791Y-22280200D02*
X92815601Y-22318295D01*
X92815601Y-22318295D02*
X92739410Y-22318295D01*
X92472743Y-21784961D02*
X92472743Y-22584961D01*
X92472743Y-21823057D02*
X92396553Y-21784961D01*
X92396553Y-21784961D02*
X92244172Y-21784961D01*
X92244172Y-21784961D02*
X92167981Y-21823057D01*
X92167981Y-21823057D02*
X92129886Y-21861152D01*
X92129886Y-21861152D02*
X92091791Y-21937342D01*
X92091791Y-21937342D02*
X92091791Y-22165914D01*
X92091791Y-22165914D02*
X92129886Y-22242104D01*
X92129886Y-22242104D02*
X92167981Y-22280200D01*
X92167981Y-22280200D02*
X92244172Y-22318295D01*
X92244172Y-22318295D02*
X92396553Y-22318295D01*
X92396553Y-22318295D02*
X92472743Y-22280200D01*
X91787029Y-22280200D02*
X91710838Y-22318295D01*
X91710838Y-22318295D02*
X91558457Y-22318295D01*
X91558457Y-22318295D02*
X91482267Y-22280200D01*
X91482267Y-22280200D02*
X91444171Y-22204009D01*
X91444171Y-22204009D02*
X91444171Y-22165914D01*
X91444171Y-22165914D02*
X91482267Y-22089723D01*
X91482267Y-22089723D02*
X91558457Y-22051628D01*
X91558457Y-22051628D02*
X91672743Y-22051628D01*
X91672743Y-22051628D02*
X91748933Y-22013533D01*
X91748933Y-22013533D02*
X91787029Y-21937342D01*
X91787029Y-21937342D02*
X91787029Y-21899247D01*
X91787029Y-21899247D02*
X91748933Y-21823057D01*
X91748933Y-21823057D02*
X91672743Y-21784961D01*
X91672743Y-21784961D02*
X91558457Y-21784961D01*
X91558457Y-21784961D02*
X91482267Y-21823057D01*
X91101314Y-22242104D02*
X91063219Y-22280200D01*
X91063219Y-22280200D02*
X91101314Y-22318295D01*
X91101314Y-22318295D02*
X91139410Y-22280200D01*
X91139410Y-22280200D02*
X91101314Y-22242104D01*
X91101314Y-22242104D02*
X91101314Y-22318295D01*
X91101314Y-21823057D02*
X91063219Y-21861152D01*
X91063219Y-21861152D02*
X91101314Y-21899247D01*
X91101314Y-21899247D02*
X91139410Y-21861152D01*
X91139410Y-21861152D02*
X91101314Y-21823057D01*
X91101314Y-21823057D02*
X91101314Y-21899247D01*
X90148934Y-21480200D02*
X90834648Y-22508771D01*
X89310839Y-21480200D02*
X89996553Y-22508771D01*
X88701315Y-21784961D02*
X88701315Y-22432580D01*
X88701315Y-22432580D02*
X88739410Y-22508771D01*
X88739410Y-22508771D02*
X88777506Y-22546866D01*
X88777506Y-22546866D02*
X88853696Y-22584961D01*
X88853696Y-22584961D02*
X88967982Y-22584961D01*
X88967982Y-22584961D02*
X89044172Y-22546866D01*
X88701315Y-22280200D02*
X88777506Y-22318295D01*
X88777506Y-22318295D02*
X88929887Y-22318295D01*
X88929887Y-22318295D02*
X89006077Y-22280200D01*
X89006077Y-22280200D02*
X89044172Y-22242104D01*
X89044172Y-22242104D02*
X89082268Y-22165914D01*
X89082268Y-22165914D02*
X89082268Y-21937342D01*
X89082268Y-21937342D02*
X89044172Y-21861152D01*
X89044172Y-21861152D02*
X89006077Y-21823057D01*
X89006077Y-21823057D02*
X88929887Y-21784961D01*
X88929887Y-21784961D02*
X88777506Y-21784961D01*
X88777506Y-21784961D02*
X88701315Y-21823057D01*
X88320362Y-22318295D02*
X88320362Y-21784961D01*
X88320362Y-21518295D02*
X88358458Y-21556390D01*
X88358458Y-21556390D02*
X88320362Y-21594485D01*
X88320362Y-21594485D02*
X88282267Y-21556390D01*
X88282267Y-21556390D02*
X88320362Y-21518295D01*
X88320362Y-21518295D02*
X88320362Y-21594485D01*
X88053696Y-21784961D02*
X87748934Y-21784961D01*
X87939410Y-21518295D02*
X87939410Y-22204009D01*
X87939410Y-22204009D02*
X87901315Y-22280200D01*
X87901315Y-22280200D02*
X87825125Y-22318295D01*
X87825125Y-22318295D02*
X87748934Y-22318295D01*
X87482267Y-22318295D02*
X87482267Y-21518295D01*
X87139410Y-22318295D02*
X87139410Y-21899247D01*
X87139410Y-21899247D02*
X87177505Y-21823057D01*
X87177505Y-21823057D02*
X87253696Y-21784961D01*
X87253696Y-21784961D02*
X87367982Y-21784961D01*
X87367982Y-21784961D02*
X87444172Y-21823057D01*
X87444172Y-21823057D02*
X87482267Y-21861152D01*
X86415600Y-21784961D02*
X86415600Y-22318295D01*
X86758457Y-21784961D02*
X86758457Y-22204009D01*
X86758457Y-22204009D02*
X86720362Y-22280200D01*
X86720362Y-22280200D02*
X86644172Y-22318295D01*
X86644172Y-22318295D02*
X86529886Y-22318295D01*
X86529886Y-22318295D02*
X86453695Y-22280200D01*
X86453695Y-22280200D02*
X86415600Y-22242104D01*
X86034647Y-22318295D02*
X86034647Y-21518295D01*
X86034647Y-21823057D02*
X85958457Y-21784961D01*
X85958457Y-21784961D02*
X85806076Y-21784961D01*
X85806076Y-21784961D02*
X85729885Y-21823057D01*
X85729885Y-21823057D02*
X85691790Y-21861152D01*
X85691790Y-21861152D02*
X85653695Y-21937342D01*
X85653695Y-21937342D02*
X85653695Y-22165914D01*
X85653695Y-22165914D02*
X85691790Y-22242104D01*
X85691790Y-22242104D02*
X85729885Y-22280200D01*
X85729885Y-22280200D02*
X85806076Y-22318295D01*
X85806076Y-22318295D02*
X85958457Y-22318295D01*
X85958457Y-22318295D02*
X86034647Y-22280200D01*
X85310837Y-22242104D02*
X85272742Y-22280200D01*
X85272742Y-22280200D02*
X85310837Y-22318295D01*
X85310837Y-22318295D02*
X85348933Y-22280200D01*
X85348933Y-22280200D02*
X85310837Y-22242104D01*
X85310837Y-22242104D02*
X85310837Y-22318295D01*
X84587028Y-22280200D02*
X84663219Y-22318295D01*
X84663219Y-22318295D02*
X84815600Y-22318295D01*
X84815600Y-22318295D02*
X84891790Y-22280200D01*
X84891790Y-22280200D02*
X84929885Y-22242104D01*
X84929885Y-22242104D02*
X84967981Y-22165914D01*
X84967981Y-22165914D02*
X84967981Y-21937342D01*
X84967981Y-21937342D02*
X84929885Y-21861152D01*
X84929885Y-21861152D02*
X84891790Y-21823057D01*
X84891790Y-21823057D02*
X84815600Y-21784961D01*
X84815600Y-21784961D02*
X84663219Y-21784961D01*
X84663219Y-21784961D02*
X84587028Y-21823057D01*
X84129886Y-22318295D02*
X84206076Y-22280200D01*
X84206076Y-22280200D02*
X84244171Y-22242104D01*
X84244171Y-22242104D02*
X84282267Y-22165914D01*
X84282267Y-22165914D02*
X84282267Y-21937342D01*
X84282267Y-21937342D02*
X84244171Y-21861152D01*
X84244171Y-21861152D02*
X84206076Y-21823057D01*
X84206076Y-21823057D02*
X84129886Y-21784961D01*
X84129886Y-21784961D02*
X84015600Y-21784961D01*
X84015600Y-21784961D02*
X83939409Y-21823057D01*
X83939409Y-21823057D02*
X83901314Y-21861152D01*
X83901314Y-21861152D02*
X83863219Y-21937342D01*
X83863219Y-21937342D02*
X83863219Y-22165914D01*
X83863219Y-22165914D02*
X83901314Y-22242104D01*
X83901314Y-22242104D02*
X83939409Y-22280200D01*
X83939409Y-22280200D02*
X84015600Y-22318295D01*
X84015600Y-22318295D02*
X84129886Y-22318295D01*
X83520361Y-22318295D02*
X83520361Y-21784961D01*
X83520361Y-21861152D02*
X83482266Y-21823057D01*
X83482266Y-21823057D02*
X83406076Y-21784961D01*
X83406076Y-21784961D02*
X83291790Y-21784961D01*
X83291790Y-21784961D02*
X83215599Y-21823057D01*
X83215599Y-21823057D02*
X83177504Y-21899247D01*
X83177504Y-21899247D02*
X83177504Y-22318295D01*
X83177504Y-21899247D02*
X83139409Y-21823057D01*
X83139409Y-21823057D02*
X83063218Y-21784961D01*
X83063218Y-21784961D02*
X82948933Y-21784961D01*
X82948933Y-21784961D02*
X82872742Y-21823057D01*
X82872742Y-21823057D02*
X82834647Y-21899247D01*
X82834647Y-21899247D02*
X82834647Y-22318295D01*
X81882266Y-21480200D02*
X82567980Y-22508771D01*
X81310837Y-22280200D02*
X81387028Y-22318295D01*
X81387028Y-22318295D02*
X81539409Y-22318295D01*
X81539409Y-22318295D02*
X81615599Y-22280200D01*
X81615599Y-22280200D02*
X81653695Y-22204009D01*
X81653695Y-22204009D02*
X81653695Y-21899247D01*
X81653695Y-21899247D02*
X81615599Y-21823057D01*
X81615599Y-21823057D02*
X81539409Y-21784961D01*
X81539409Y-21784961D02*
X81387028Y-21784961D01*
X81387028Y-21784961D02*
X81310837Y-21823057D01*
X81310837Y-21823057D02*
X81272742Y-21899247D01*
X81272742Y-21899247D02*
X81272742Y-21975438D01*
X81272742Y-21975438D02*
X81653695Y-22051628D01*
X80929885Y-22318295D02*
X80929885Y-21518295D01*
X80929885Y-21823057D02*
X80853695Y-21784961D01*
X80853695Y-21784961D02*
X80701314Y-21784961D01*
X80701314Y-21784961D02*
X80625123Y-21823057D01*
X80625123Y-21823057D02*
X80587028Y-21861152D01*
X80587028Y-21861152D02*
X80548933Y-21937342D01*
X80548933Y-21937342D02*
X80548933Y-22165914D01*
X80548933Y-22165914D02*
X80587028Y-22242104D01*
X80587028Y-22242104D02*
X80625123Y-22280200D01*
X80625123Y-22280200D02*
X80701314Y-22318295D01*
X80701314Y-22318295D02*
X80853695Y-22318295D01*
X80853695Y-22318295D02*
X80929885Y-22280200D01*
X79863218Y-22318295D02*
X79863218Y-21899247D01*
X79863218Y-21899247D02*
X79901313Y-21823057D01*
X79901313Y-21823057D02*
X79977504Y-21784961D01*
X79977504Y-21784961D02*
X80129885Y-21784961D01*
X80129885Y-21784961D02*
X80206075Y-21823057D01*
X79863218Y-22280200D02*
X79939409Y-22318295D01*
X79939409Y-22318295D02*
X80129885Y-22318295D01*
X80129885Y-22318295D02*
X80206075Y-22280200D01*
X80206075Y-22280200D02*
X80244171Y-22204009D01*
X80244171Y-22204009D02*
X80244171Y-22127819D01*
X80244171Y-22127819D02*
X80206075Y-22051628D01*
X80206075Y-22051628D02*
X80129885Y-22013533D01*
X80129885Y-22013533D02*
X79939409Y-22013533D01*
X79939409Y-22013533D02*
X79863218Y-21975438D01*
X79520361Y-22280200D02*
X79444170Y-22318295D01*
X79444170Y-22318295D02*
X79291789Y-22318295D01*
X79291789Y-22318295D02*
X79215599Y-22280200D01*
X79215599Y-22280200D02*
X79177503Y-22204009D01*
X79177503Y-22204009D02*
X79177503Y-22165914D01*
X79177503Y-22165914D02*
X79215599Y-22089723D01*
X79215599Y-22089723D02*
X79291789Y-22051628D01*
X79291789Y-22051628D02*
X79406075Y-22051628D01*
X79406075Y-22051628D02*
X79482265Y-22013533D01*
X79482265Y-22013533D02*
X79520361Y-21937342D01*
X79520361Y-21937342D02*
X79520361Y-21899247D01*
X79520361Y-21899247D02*
X79482265Y-21823057D01*
X79482265Y-21823057D02*
X79406075Y-21784961D01*
X79406075Y-21784961D02*
X79291789Y-21784961D01*
X79291789Y-21784961D02*
X79215599Y-21823057D01*
X78948932Y-21784961D02*
X78644170Y-21784961D01*
X78834646Y-21518295D02*
X78834646Y-22204009D01*
X78834646Y-22204009D02*
X78796551Y-22280200D01*
X78796551Y-22280200D02*
X78720361Y-22318295D01*
X78720361Y-22318295D02*
X78644170Y-22318295D01*
X78263218Y-22318295D02*
X78339408Y-22280200D01*
X78339408Y-22280200D02*
X78377503Y-22204009D01*
X78377503Y-22204009D02*
X78377503Y-21518295D01*
X77653693Y-22280200D02*
X77729884Y-22318295D01*
X77729884Y-22318295D02*
X77882265Y-22318295D01*
X77882265Y-22318295D02*
X77958455Y-22280200D01*
X77958455Y-22280200D02*
X77996551Y-22204009D01*
X77996551Y-22204009D02*
X77996551Y-21899247D01*
X77996551Y-21899247D02*
X77958455Y-21823057D01*
X77958455Y-21823057D02*
X77882265Y-21784961D01*
X77882265Y-21784961D02*
X77729884Y-21784961D01*
X77729884Y-21784961D02*
X77653693Y-21823057D01*
X77653693Y-21823057D02*
X77615598Y-21899247D01*
X77615598Y-21899247D02*
X77615598Y-21975438D01*
X77615598Y-21975438D02*
X77996551Y-22051628D01*
X77272741Y-22318295D02*
X77272741Y-21784961D01*
X77272741Y-21937342D02*
X77234646Y-21861152D01*
X77234646Y-21861152D02*
X77196551Y-21823057D01*
X77196551Y-21823057D02*
X77120360Y-21784961D01*
X77120360Y-21784961D02*
X77044170Y-21784961D01*
X76206075Y-21480200D02*
X76891789Y-22508771D01*
X75825123Y-22318295D02*
X75901313Y-22280200D01*
X75901313Y-22280200D02*
X75939408Y-22204009D01*
X75939408Y-22204009D02*
X75939408Y-21518295D01*
X75215598Y-22280200D02*
X75291789Y-22318295D01*
X75291789Y-22318295D02*
X75444170Y-22318295D01*
X75444170Y-22318295D02*
X75520360Y-22280200D01*
X75520360Y-22280200D02*
X75558456Y-22204009D01*
X75558456Y-22204009D02*
X75558456Y-21899247D01*
X75558456Y-21899247D02*
X75520360Y-21823057D01*
X75520360Y-21823057D02*
X75444170Y-21784961D01*
X75444170Y-21784961D02*
X75291789Y-21784961D01*
X75291789Y-21784961D02*
X75215598Y-21823057D01*
X75215598Y-21823057D02*
X75177503Y-21899247D01*
X75177503Y-21899247D02*
X75177503Y-21975438D01*
X75177503Y-21975438D02*
X75558456Y-22051628D01*
X74491789Y-22318295D02*
X74491789Y-21518295D01*
X74491789Y-22280200D02*
X74567980Y-22318295D01*
X74567980Y-22318295D02*
X74720361Y-22318295D01*
X74720361Y-22318295D02*
X74796551Y-22280200D01*
X74796551Y-22280200D02*
X74834646Y-22242104D01*
X74834646Y-22242104D02*
X74872742Y-22165914D01*
X74872742Y-22165914D02*
X74872742Y-21937342D01*
X74872742Y-21937342D02*
X74834646Y-21861152D01*
X74834646Y-21861152D02*
X74796551Y-21823057D01*
X74796551Y-21823057D02*
X74720361Y-21784961D01*
X74720361Y-21784961D02*
X74567980Y-21784961D01*
X74567980Y-21784961D02*
X74491789Y-21823057D01*
X73767979Y-22280200D02*
X73844170Y-22318295D01*
X73844170Y-22318295D02*
X73996551Y-22318295D01*
X73996551Y-22318295D02*
X74072741Y-22280200D01*
X74072741Y-22280200D02*
X74110836Y-22242104D01*
X74110836Y-22242104D02*
X74148932Y-22165914D01*
X74148932Y-22165914D02*
X74148932Y-21937342D01*
X74148932Y-21937342D02*
X74110836Y-21861152D01*
X74110836Y-21861152D02*
X74072741Y-21823057D01*
X74072741Y-21823057D02*
X73996551Y-21784961D01*
X73996551Y-21784961D02*
X73844170Y-21784961D01*
X73844170Y-21784961D02*
X73767979Y-21823057D01*
X73539408Y-21784961D02*
X73234646Y-21784961D01*
X73425122Y-21518295D02*
X73425122Y-22204009D01*
X73425122Y-22204009D02*
X73387027Y-22280200D01*
X73387027Y-22280200D02*
X73310837Y-22318295D01*
X73310837Y-22318295D02*
X73234646Y-22318295D01*
X72967979Y-22318295D02*
X72967979Y-21784961D01*
X72967979Y-21937342D02*
X72929884Y-21861152D01*
X72929884Y-21861152D02*
X72891789Y-21823057D01*
X72891789Y-21823057D02*
X72815598Y-21784961D01*
X72815598Y-21784961D02*
X72739408Y-21784961D01*
X72358456Y-22318295D02*
X72434646Y-22280200D01*
X72434646Y-22280200D02*
X72472741Y-22204009D01*
X72472741Y-22204009D02*
X72472741Y-21518295D01*
X93767982Y-22806295D02*
X93920363Y-22806295D01*
X93920363Y-22806295D02*
X93996554Y-22844390D01*
X93996554Y-22844390D02*
X94034649Y-22882485D01*
X94034649Y-22882485D02*
X94110839Y-22996771D01*
X94110839Y-22996771D02*
X94148935Y-23149152D01*
X94148935Y-23149152D02*
X94148935Y-23453914D01*
X94148935Y-23453914D02*
X94110839Y-23530104D01*
X94110839Y-23530104D02*
X94072744Y-23568200D01*
X94072744Y-23568200D02*
X93996554Y-23606295D01*
X93996554Y-23606295D02*
X93844173Y-23606295D01*
X93844173Y-23606295D02*
X93767982Y-23568200D01*
X93767982Y-23568200D02*
X93729887Y-23530104D01*
X93729887Y-23530104D02*
X93691792Y-23453914D01*
X93691792Y-23453914D02*
X93691792Y-23263438D01*
X93691792Y-23263438D02*
X93729887Y-23187247D01*
X93729887Y-23187247D02*
X93767982Y-23149152D01*
X93767982Y-23149152D02*
X93844173Y-23111057D01*
X93844173Y-23111057D02*
X93996554Y-23111057D01*
X93996554Y-23111057D02*
X94072744Y-23149152D01*
X94072744Y-23149152D02*
X94110839Y-23187247D01*
X94110839Y-23187247D02*
X94148935Y-23263438D01*
X93006077Y-23568200D02*
X93082268Y-23606295D01*
X93082268Y-23606295D02*
X93234649Y-23606295D01*
X93234649Y-23606295D02*
X93310839Y-23568200D01*
X93310839Y-23568200D02*
X93348934Y-23530104D01*
X93348934Y-23530104D02*
X93387030Y-23453914D01*
X93387030Y-23453914D02*
X93387030Y-23225342D01*
X93387030Y-23225342D02*
X93348934Y-23149152D01*
X93348934Y-23149152D02*
X93310839Y-23111057D01*
X93310839Y-23111057D02*
X93234649Y-23072961D01*
X93234649Y-23072961D02*
X93082268Y-23072961D01*
X93082268Y-23072961D02*
X93006077Y-23111057D01*
X92663220Y-23606295D02*
X92663220Y-22806295D01*
X92320363Y-23606295D02*
X92320363Y-23187247D01*
X92320363Y-23187247D02*
X92358458Y-23111057D01*
X92358458Y-23111057D02*
X92434649Y-23072961D01*
X92434649Y-23072961D02*
X92548935Y-23072961D01*
X92548935Y-23072961D02*
X92625125Y-23111057D01*
X92625125Y-23111057D02*
X92663220Y-23149152D01*
X90948934Y-23606295D02*
X91329886Y-23606295D01*
X91329886Y-23606295D02*
X91329886Y-22806295D01*
X90682267Y-23187247D02*
X90415601Y-23187247D01*
X90301315Y-23606295D02*
X90682267Y-23606295D01*
X90682267Y-23606295D02*
X90682267Y-22806295D01*
X90682267Y-22806295D02*
X90301315Y-22806295D01*
X89958457Y-23606295D02*
X89958457Y-22806295D01*
X89958457Y-22806295D02*
X89767981Y-22806295D01*
X89767981Y-22806295D02*
X89653695Y-22844390D01*
X89653695Y-22844390D02*
X89577505Y-22920580D01*
X89577505Y-22920580D02*
X89539410Y-22996771D01*
X89539410Y-22996771D02*
X89501314Y-23149152D01*
X89501314Y-23149152D02*
X89501314Y-23263438D01*
X89501314Y-23263438D02*
X89539410Y-23415819D01*
X89539410Y-23415819D02*
X89577505Y-23492009D01*
X89577505Y-23492009D02*
X89653695Y-23568200D01*
X89653695Y-23568200D02*
X89767981Y-23606295D01*
X89767981Y-23606295D02*
X89958457Y-23606295D01*
X88587029Y-23568200D02*
X88510838Y-23606295D01*
X88510838Y-23606295D02*
X88358457Y-23606295D01*
X88358457Y-23606295D02*
X88282267Y-23568200D01*
X88282267Y-23568200D02*
X88244171Y-23492009D01*
X88244171Y-23492009D02*
X88244171Y-23453914D01*
X88244171Y-23453914D02*
X88282267Y-23377723D01*
X88282267Y-23377723D02*
X88358457Y-23339628D01*
X88358457Y-23339628D02*
X88472743Y-23339628D01*
X88472743Y-23339628D02*
X88548933Y-23301533D01*
X88548933Y-23301533D02*
X88587029Y-23225342D01*
X88587029Y-23225342D02*
X88587029Y-23187247D01*
X88587029Y-23187247D02*
X88548933Y-23111057D01*
X88548933Y-23111057D02*
X88472743Y-23072961D01*
X88472743Y-23072961D02*
X88358457Y-23072961D01*
X88358457Y-23072961D02*
X88282267Y-23111057D01*
X88015600Y-23072961D02*
X87710838Y-23072961D01*
X87901314Y-22806295D02*
X87901314Y-23492009D01*
X87901314Y-23492009D02*
X87863219Y-23568200D01*
X87863219Y-23568200D02*
X87787029Y-23606295D01*
X87787029Y-23606295D02*
X87710838Y-23606295D01*
X87444171Y-23606295D02*
X87444171Y-23072961D01*
X87444171Y-23225342D02*
X87406076Y-23149152D01*
X87406076Y-23149152D02*
X87367981Y-23111057D01*
X87367981Y-23111057D02*
X87291790Y-23072961D01*
X87291790Y-23072961D02*
X87215600Y-23072961D01*
X86948933Y-23606295D02*
X86948933Y-23072961D01*
X86948933Y-22806295D02*
X86987029Y-22844390D01*
X86987029Y-22844390D02*
X86948933Y-22882485D01*
X86948933Y-22882485D02*
X86910838Y-22844390D01*
X86910838Y-22844390D02*
X86948933Y-22806295D01*
X86948933Y-22806295D02*
X86948933Y-22882485D01*
X86567981Y-23072961D02*
X86567981Y-23872961D01*
X86567981Y-23111057D02*
X86491791Y-23072961D01*
X86491791Y-23072961D02*
X86339410Y-23072961D01*
X86339410Y-23072961D02*
X86263219Y-23111057D01*
X86263219Y-23111057D02*
X86225124Y-23149152D01*
X86225124Y-23149152D02*
X86187029Y-23225342D01*
X86187029Y-23225342D02*
X86187029Y-23453914D01*
X86187029Y-23453914D02*
X86225124Y-23530104D01*
X86225124Y-23530104D02*
X86263219Y-23568200D01*
X86263219Y-23568200D02*
X86339410Y-23606295D01*
X86339410Y-23606295D02*
X86491791Y-23606295D01*
X86491791Y-23606295D02*
X86567981Y-23568200D01*
X85539409Y-23568200D02*
X85615600Y-23606295D01*
X85615600Y-23606295D02*
X85767981Y-23606295D01*
X85767981Y-23606295D02*
X85844171Y-23568200D01*
X85844171Y-23568200D02*
X85882267Y-23492009D01*
X85882267Y-23492009D02*
X85882267Y-23187247D01*
X85882267Y-23187247D02*
X85844171Y-23111057D01*
X85844171Y-23111057D02*
X85767981Y-23072961D01*
X85767981Y-23072961D02*
X85615600Y-23072961D01*
X85615600Y-23072961D02*
X85539409Y-23111057D01*
X85539409Y-23111057D02*
X85501314Y-23187247D01*
X85501314Y-23187247D02*
X85501314Y-23263438D01*
X85501314Y-23263438D02*
X85882267Y-23339628D01*
X84548933Y-23606295D02*
X84548933Y-22806295D01*
X84548933Y-22806295D02*
X84244171Y-22806295D01*
X84244171Y-22806295D02*
X84167981Y-22844390D01*
X84167981Y-22844390D02*
X84129886Y-22882485D01*
X84129886Y-22882485D02*
X84091790Y-22958676D01*
X84091790Y-22958676D02*
X84091790Y-23072961D01*
X84091790Y-23072961D02*
X84129886Y-23149152D01*
X84129886Y-23149152D02*
X84167981Y-23187247D01*
X84167981Y-23187247D02*
X84244171Y-23225342D01*
X84244171Y-23225342D02*
X84548933Y-23225342D01*
X83825124Y-22806295D02*
X83634648Y-23606295D01*
X83634648Y-23606295D02*
X83482267Y-23034866D01*
X83482267Y-23034866D02*
X83329886Y-23606295D01*
X83329886Y-23606295D02*
X83139410Y-22806295D01*
X82834647Y-23606295D02*
X82834647Y-22806295D01*
X82834647Y-22806295D02*
X82567981Y-23377723D01*
X82567981Y-23377723D02*
X82301314Y-22806295D01*
X82301314Y-22806295D02*
X82301314Y-23606295D01*
X80967980Y-23568200D02*
X81044171Y-23606295D01*
X81044171Y-23606295D02*
X81196552Y-23606295D01*
X81196552Y-23606295D02*
X81272742Y-23568200D01*
X81272742Y-23568200D02*
X81310837Y-23530104D01*
X81310837Y-23530104D02*
X81348933Y-23453914D01*
X81348933Y-23453914D02*
X81348933Y-23225342D01*
X81348933Y-23225342D02*
X81310837Y-23149152D01*
X81310837Y-23149152D02*
X81272742Y-23111057D01*
X81272742Y-23111057D02*
X81196552Y-23072961D01*
X81196552Y-23072961D02*
X81044171Y-23072961D01*
X81044171Y-23072961D02*
X80967980Y-23111057D01*
X80510838Y-23606295D02*
X80587028Y-23568200D01*
X80587028Y-23568200D02*
X80625123Y-23530104D01*
X80625123Y-23530104D02*
X80663219Y-23453914D01*
X80663219Y-23453914D02*
X80663219Y-23225342D01*
X80663219Y-23225342D02*
X80625123Y-23149152D01*
X80625123Y-23149152D02*
X80587028Y-23111057D01*
X80587028Y-23111057D02*
X80510838Y-23072961D01*
X80510838Y-23072961D02*
X80396552Y-23072961D01*
X80396552Y-23072961D02*
X80320361Y-23111057D01*
X80320361Y-23111057D02*
X80282266Y-23149152D01*
X80282266Y-23149152D02*
X80244171Y-23225342D01*
X80244171Y-23225342D02*
X80244171Y-23453914D01*
X80244171Y-23453914D02*
X80282266Y-23530104D01*
X80282266Y-23530104D02*
X80320361Y-23568200D01*
X80320361Y-23568200D02*
X80396552Y-23606295D01*
X80396552Y-23606295D02*
X80510838Y-23606295D01*
X79901313Y-23072961D02*
X79901313Y-23606295D01*
X79901313Y-23149152D02*
X79863218Y-23111057D01*
X79863218Y-23111057D02*
X79787028Y-23072961D01*
X79787028Y-23072961D02*
X79672742Y-23072961D01*
X79672742Y-23072961D02*
X79596551Y-23111057D01*
X79596551Y-23111057D02*
X79558456Y-23187247D01*
X79558456Y-23187247D02*
X79558456Y-23606295D01*
X79291789Y-23072961D02*
X78987027Y-23072961D01*
X79177503Y-22806295D02*
X79177503Y-23492009D01*
X79177503Y-23492009D02*
X79139408Y-23568200D01*
X79139408Y-23568200D02*
X79063218Y-23606295D01*
X79063218Y-23606295D02*
X78987027Y-23606295D01*
X78720360Y-23606295D02*
X78720360Y-23072961D01*
X78720360Y-23225342D02*
X78682265Y-23149152D01*
X78682265Y-23149152D02*
X78644170Y-23111057D01*
X78644170Y-23111057D02*
X78567979Y-23072961D01*
X78567979Y-23072961D02*
X78491789Y-23072961D01*
X78110837Y-23606295D02*
X78187027Y-23568200D01*
X78187027Y-23568200D02*
X78225122Y-23530104D01*
X78225122Y-23530104D02*
X78263218Y-23453914D01*
X78263218Y-23453914D02*
X78263218Y-23225342D01*
X78263218Y-23225342D02*
X78225122Y-23149152D01*
X78225122Y-23149152D02*
X78187027Y-23111057D01*
X78187027Y-23111057D02*
X78110837Y-23072961D01*
X78110837Y-23072961D02*
X77996551Y-23072961D01*
X77996551Y-23072961D02*
X77920360Y-23111057D01*
X77920360Y-23111057D02*
X77882265Y-23149152D01*
X77882265Y-23149152D02*
X77844170Y-23225342D01*
X77844170Y-23225342D02*
X77844170Y-23453914D01*
X77844170Y-23453914D02*
X77882265Y-23530104D01*
X77882265Y-23530104D02*
X77920360Y-23568200D01*
X77920360Y-23568200D02*
X77996551Y-23606295D01*
X77996551Y-23606295D02*
X78110837Y-23606295D01*
X77387027Y-23606295D02*
X77463217Y-23568200D01*
X77463217Y-23568200D02*
X77501312Y-23492009D01*
X77501312Y-23492009D02*
X77501312Y-22806295D01*
X76967979Y-23606295D02*
X77044169Y-23568200D01*
X77044169Y-23568200D02*
X77082264Y-23492009D01*
X77082264Y-23492009D02*
X77082264Y-22806295D01*
X76358454Y-23568200D02*
X76434645Y-23606295D01*
X76434645Y-23606295D02*
X76587026Y-23606295D01*
X76587026Y-23606295D02*
X76663216Y-23568200D01*
X76663216Y-23568200D02*
X76701312Y-23492009D01*
X76701312Y-23492009D02*
X76701312Y-23187247D01*
X76701312Y-23187247D02*
X76663216Y-23111057D01*
X76663216Y-23111057D02*
X76587026Y-23072961D01*
X76587026Y-23072961D02*
X76434645Y-23072961D01*
X76434645Y-23072961D02*
X76358454Y-23111057D01*
X76358454Y-23111057D02*
X76320359Y-23187247D01*
X76320359Y-23187247D02*
X76320359Y-23263438D01*
X76320359Y-23263438D02*
X76701312Y-23339628D01*
X75977502Y-23606295D02*
X75977502Y-23072961D01*
X75977502Y-23225342D02*
X75939407Y-23149152D01*
X75939407Y-23149152D02*
X75901312Y-23111057D01*
X75901312Y-23111057D02*
X75825121Y-23072961D01*
X75825121Y-23072961D02*
X75748931Y-23072961D01*
X93653696Y-24894295D02*
X93920363Y-24513342D01*
X94110839Y-24894295D02*
X94110839Y-24094295D01*
X94110839Y-24094295D02*
X93806077Y-24094295D01*
X93806077Y-24094295D02*
X93729887Y-24132390D01*
X93729887Y-24132390D02*
X93691792Y-24170485D01*
X93691792Y-24170485D02*
X93653696Y-24246676D01*
X93653696Y-24246676D02*
X93653696Y-24360961D01*
X93653696Y-24360961D02*
X93691792Y-24437152D01*
X93691792Y-24437152D02*
X93729887Y-24475247D01*
X93729887Y-24475247D02*
X93806077Y-24513342D01*
X93806077Y-24513342D02*
X94110839Y-24513342D01*
X93006077Y-24856200D02*
X93082268Y-24894295D01*
X93082268Y-24894295D02*
X93234649Y-24894295D01*
X93234649Y-24894295D02*
X93310839Y-24856200D01*
X93310839Y-24856200D02*
X93348935Y-24780009D01*
X93348935Y-24780009D02*
X93348935Y-24475247D01*
X93348935Y-24475247D02*
X93310839Y-24399057D01*
X93310839Y-24399057D02*
X93234649Y-24360961D01*
X93234649Y-24360961D02*
X93082268Y-24360961D01*
X93082268Y-24360961D02*
X93006077Y-24399057D01*
X93006077Y-24399057D02*
X92967982Y-24475247D01*
X92967982Y-24475247D02*
X92967982Y-24551438D01*
X92967982Y-24551438D02*
X93348935Y-24627628D01*
X92701316Y-24360961D02*
X92510840Y-24894295D01*
X92510840Y-24894295D02*
X92320363Y-24360961D01*
X90987030Y-24894295D02*
X91444173Y-24894295D01*
X91215601Y-24894295D02*
X91215601Y-24094295D01*
X91215601Y-24094295D02*
X91291792Y-24208580D01*
X91291792Y-24208580D02*
X91367982Y-24284771D01*
X91367982Y-24284771D02*
X91444173Y-24322866D01*
X90644172Y-24818104D02*
X90606077Y-24856200D01*
X90606077Y-24856200D02*
X90644172Y-24894295D01*
X90644172Y-24894295D02*
X90682268Y-24856200D01*
X90682268Y-24856200D02*
X90644172Y-24818104D01*
X90644172Y-24818104D02*
X90644172Y-24894295D01*
X90110839Y-24094295D02*
X90034649Y-24094295D01*
X90034649Y-24094295D02*
X89958458Y-24132390D01*
X89958458Y-24132390D02*
X89920363Y-24170485D01*
X89920363Y-24170485D02*
X89882268Y-24246676D01*
X89882268Y-24246676D02*
X89844173Y-24399057D01*
X89844173Y-24399057D02*
X89844173Y-24589533D01*
X89844173Y-24589533D02*
X89882268Y-24741914D01*
X89882268Y-24741914D02*
X89920363Y-24818104D01*
X89920363Y-24818104D02*
X89958458Y-24856200D01*
X89958458Y-24856200D02*
X90034649Y-24894295D01*
X90034649Y-24894295D02*
X90110839Y-24894295D01*
X90110839Y-24894295D02*
X90187030Y-24856200D01*
X90187030Y-24856200D02*
X90225125Y-24818104D01*
X90225125Y-24818104D02*
X90263220Y-24741914D01*
X90263220Y-24741914D02*
X90301316Y-24589533D01*
X90301316Y-24589533D02*
X90301316Y-24399057D01*
X90301316Y-24399057D02*
X90263220Y-24246676D01*
X90263220Y-24246676D02*
X90225125Y-24170485D01*
X90225125Y-24170485D02*
X90187030Y-24132390D01*
X90187030Y-24132390D02*
X90110839Y-24094295D01*
D11*
X571428Y3090501D02*
X-571429Y3090501D01*
X0Y2519072D02*
X0Y3661929D01*
X16107142Y2519071D02*
X16107142Y4019071D01*
X15249999Y2519071D02*
X15892856Y3376214D01*
X15249999Y4019071D02*
X16107142Y3161928D01*
X13821427Y2519071D02*
X14678570Y2519071D01*
X14249999Y2519071D02*
X14249999Y4019071D01*
X14249999Y4019071D02*
X14392856Y3804785D01*
X14392856Y3804785D02*
X14535713Y3661928D01*
X14535713Y3661928D02*
X14678570Y3590500D01*
X56107142Y2519072D02*
X56107142Y4019072D01*
X55249999Y2519072D02*
X55892856Y3376215D01*
X55249999Y4019072D02*
X56107142Y3161929D01*
X53892856Y4019072D02*
X54607142Y4019072D01*
X54607142Y4019072D02*
X54678570Y3304786D01*
X54678570Y3304786D02*
X54607142Y3376215D01*
X54607142Y3376215D02*
X54464285Y3447643D01*
X54464285Y3447643D02*
X54107142Y3447643D01*
X54107142Y3447643D02*
X53964285Y3376215D01*
X53964285Y3376215D02*
X53892856Y3304786D01*
X53892856Y3304786D02*
X53821427Y3161929D01*
X53821427Y3161929D02*
X53821427Y2804786D01*
X53821427Y2804786D02*
X53892856Y2661929D01*
X53892856Y2661929D02*
X53964285Y2590501D01*
X53964285Y2590501D02*
X54107142Y2519072D01*
X54107142Y2519072D02*
X54464285Y2519072D01*
X54464285Y2519072D02*
X54607142Y2590501D01*
X54607142Y2590501D02*
X54678570Y2661929D01*
X11071427Y2947642D02*
X10357142Y2947642D01*
X11214284Y2519071D02*
X10714284Y4019071D01*
X10714284Y4019071D02*
X10214284Y2519071D01*
X8928570Y2519071D02*
X9785713Y2519071D01*
X9357142Y2519071D02*
X9357142Y4019071D01*
X9357142Y4019071D02*
X9499999Y3804785D01*
X9499999Y3804785D02*
X9642856Y3661928D01*
X9642856Y3661928D02*
X9785713Y3590500D01*
D10*
X91988219Y-11000000D02*
X90988219Y-11000000D01*
X90988219Y-11666666D02*
X90988219Y-11857142D01*
X90988219Y-11857142D02*
X91035838Y-11952380D01*
X91035838Y-11952380D02*
X91131076Y-12047618D01*
X91131076Y-12047618D02*
X91321552Y-12095237D01*
X91321552Y-12095237D02*
X91654885Y-12095237D01*
X91654885Y-12095237D02*
X91845361Y-12047618D01*
X91845361Y-12047618D02*
X91940600Y-11952380D01*
X91940600Y-11952380D02*
X91988219Y-11857142D01*
X91988219Y-11857142D02*
X91988219Y-11666666D01*
X91988219Y-11666666D02*
X91940600Y-11571428D01*
X91940600Y-11571428D02*
X91845361Y-11476190D01*
X91845361Y-11476190D02*
X91654885Y-11428571D01*
X91654885Y-11428571D02*
X91321552Y-11428571D01*
X91321552Y-11428571D02*
X91131076Y-11476190D01*
X91131076Y-11476190D02*
X91035838Y-11571428D01*
X91035838Y-11571428D02*
X90988219Y-11666666D01*
X90988219Y-12428571D02*
X90988219Y-13047618D01*
X90988219Y-13047618D02*
X91369171Y-12714285D01*
X91369171Y-12714285D02*
X91369171Y-12857142D01*
X91369171Y-12857142D02*
X91416790Y-12952380D01*
X91416790Y-12952380D02*
X91464409Y-12999999D01*
X91464409Y-12999999D02*
X91559647Y-13047618D01*
X91559647Y-13047618D02*
X91797742Y-13047618D01*
X91797742Y-13047618D02*
X91892980Y-12999999D01*
X91892980Y-12999999D02*
X91940600Y-12952380D01*
X91940600Y-12952380D02*
X91988219Y-12857142D01*
X91988219Y-12857142D02*
X91988219Y-12571428D01*
X91988219Y-12571428D02*
X91940600Y-12476190D01*
X91940600Y-12476190D02*
X91892980Y-12428571D01*
D12*
G36*
X62137052Y-38282668D02*
G01*
X62194992Y-38311638D01*
X62250056Y-38366702D01*
X62278704Y-38452644D01*
X62278704Y-38555951D01*
X61628704Y-38555951D01*
X61628704Y-38452645D01*
X61657352Y-38366702D01*
X61712417Y-38311638D01*
X61770355Y-38282668D01*
X61905796Y-38248808D01*
X62001612Y-38248808D01*
X62137052Y-38282668D01*
G37*
G36*
X62201075Y-36451054D02*
G01*
X62253969Y-36503949D01*
X62278704Y-36553418D01*
X62278704Y-36670389D01*
X62253969Y-36719858D01*
X62201075Y-36772752D01*
X62077803Y-36803571D01*
X61829606Y-36803571D01*
X61706333Y-36772752D01*
X61653439Y-36719858D01*
X61628704Y-36670388D01*
X61628704Y-36553419D01*
X61653438Y-36503950D01*
X61706333Y-36451054D01*
X61829605Y-36420237D01*
X62077804Y-36420237D01*
X62201075Y-36451054D01*
G37*
G36*
X62175147Y-35692192D02*
G01*
X62233087Y-35721162D01*
X62253969Y-35742044D01*
X62278704Y-35791513D01*
X62278704Y-35832294D01*
X62253969Y-35881763D01*
X62233087Y-35902645D01*
X62175147Y-35931615D01*
X62039707Y-35965476D01*
X61867701Y-35965476D01*
X61732260Y-35931615D01*
X61674322Y-35902646D01*
X61653439Y-35881763D01*
X61628704Y-35832293D01*
X61628704Y-35791514D01*
X61653439Y-35742044D01*
X61674322Y-35721162D01*
X61732260Y-35692192D01*
X61867700Y-35658333D01*
X62039708Y-35658333D01*
X62175147Y-35692192D01*
G37*
G36*
X62201075Y-33860578D02*
G01*
X62253969Y-33913473D01*
X62278704Y-33962942D01*
X62278704Y-34079913D01*
X62253969Y-34129382D01*
X62201075Y-34182276D01*
X62077803Y-34213095D01*
X61829606Y-34213095D01*
X61706333Y-34182276D01*
X61653439Y-34129382D01*
X61628704Y-34079912D01*
X61628704Y-33962943D01*
X61653438Y-33913474D01*
X61706333Y-33860578D01*
X61829605Y-33829761D01*
X62077804Y-33829761D01*
X62201075Y-33860578D01*
G37*
G36*
X63521087Y-32711638D02*
G01*
X63541970Y-32732521D01*
X63566704Y-32781989D01*
X63566704Y-32994046D01*
X63297657Y-32994046D01*
X63297657Y-32781989D01*
X63322391Y-32732521D01*
X63343274Y-32711637D01*
X63392743Y-32686903D01*
X63471618Y-32686903D01*
X63521087Y-32711638D01*
G37*
G36*
X63489075Y-31498673D02*
G01*
X63541969Y-31551568D01*
X63566704Y-31601037D01*
X63566704Y-31718008D01*
X63541969Y-31767477D01*
X63489075Y-31820371D01*
X63365803Y-31851190D01*
X63117606Y-31851190D01*
X62994333Y-31820371D01*
X62941439Y-31767477D01*
X62916704Y-31718007D01*
X62916704Y-31601038D01*
X62941438Y-31551569D01*
X62994333Y-31498673D01*
X63117605Y-31467856D01*
X63365804Y-31467856D01*
X63489075Y-31498673D01*
G37*
G36*
X62201075Y-31270102D02*
G01*
X62253969Y-31322997D01*
X62278704Y-31372466D01*
X62278704Y-31489437D01*
X62253969Y-31538906D01*
X62201075Y-31591800D01*
X62077803Y-31622619D01*
X61829606Y-31622619D01*
X61706333Y-31591800D01*
X61653439Y-31538906D01*
X61628704Y-31489436D01*
X61628704Y-31372467D01*
X61653438Y-31322998D01*
X61706333Y-31270102D01*
X61829605Y-31239285D01*
X62077804Y-31239285D01*
X62201075Y-31270102D01*
G37*
G36*
X61928325Y-30502115D02*
G01*
X61949207Y-30522997D01*
X61973942Y-30572466D01*
X61973942Y-30689438D01*
X61949208Y-30738906D01*
X61928325Y-30759788D01*
X61878856Y-30784524D01*
X61723791Y-30784524D01*
X61674321Y-30759788D01*
X61653438Y-30738905D01*
X61628704Y-30689437D01*
X61628704Y-30572467D01*
X61653439Y-30522997D01*
X61674322Y-30502115D01*
X61723790Y-30477381D01*
X61878856Y-30477381D01*
X61928325Y-30502115D01*
G37*
G36*
X62201075Y-28679626D02*
G01*
X62253969Y-28732521D01*
X62278704Y-28781990D01*
X62278704Y-28898961D01*
X62253969Y-28948430D01*
X62201075Y-29001324D01*
X62077803Y-29032143D01*
X61829606Y-29032143D01*
X61706333Y-29001324D01*
X61653439Y-28948430D01*
X61628704Y-28898960D01*
X61628704Y-28781991D01*
X61653438Y-28732522D01*
X61706333Y-28679626D01*
X61829605Y-28648809D01*
X62077804Y-28648809D01*
X62201075Y-28679626D01*
G37*
G36*
X63830990Y-40496428D02*
G01*
X61364418Y-40496428D01*
X61364418Y-40040475D01*
X61478704Y-40040475D01*
X61479263Y-40042013D01*
X61482553Y-40064192D01*
X61520649Y-40178478D01*
X61523436Y-40181989D01*
X61523827Y-40186457D01*
X61538767Y-40207794D01*
X61614957Y-40283984D01*
X61616438Y-40284674D01*
X61634449Y-40298033D01*
X61710639Y-40336128D01*
X61714165Y-40336533D01*
X61725989Y-40341807D01*
X61878371Y-40379903D01*
X61881819Y-40379542D01*
X61896561Y-40382142D01*
X62010847Y-40382142D01*
X62014104Y-40380956D01*
X62029038Y-40379903D01*
X62181419Y-40341807D01*
X62184362Y-40339818D01*
X62196769Y-40336128D01*
X62272960Y-40298033D01*
X62274085Y-40296843D01*
X62292452Y-40283984D01*
X62368642Y-40207794D01*
X62370536Y-40203730D01*
X62374358Y-40201383D01*
X62386760Y-40178478D01*
X62424855Y-40064192D01*
X62424810Y-40062557D01*
X62428704Y-40040475D01*
X62428704Y-39926189D01*
X62427170Y-39921975D01*
X62428212Y-39917615D01*
X62420786Y-39892648D01*
X62382691Y-39816458D01*
X62345437Y-39781186D01*
X62294226Y-39778111D01*
X62253021Y-39808675D01*
X62241101Y-39858573D01*
X62248527Y-39883540D01*
X62278704Y-39943894D01*
X62278704Y-40028305D01*
X62250056Y-40114247D01*
X62194992Y-40169311D01*
X62137052Y-40198281D01*
X62001612Y-40232142D01*
X61905796Y-40232142D01*
X61770355Y-40198281D01*
X61712417Y-40169312D01*
X61657352Y-40114247D01*
X61628704Y-40028304D01*
X61628704Y-39976455D01*
X61657352Y-39890512D01*
X61660962Y-39886903D01*
X61821561Y-39886903D01*
X61821561Y-39964284D01*
X61839108Y-40012493D01*
X61883537Y-40038145D01*
X61934061Y-40029236D01*
X61967038Y-39989936D01*
X61971561Y-39964284D01*
X61971561Y-39811903D01*
X61964897Y-39793594D01*
X61961513Y-39774403D01*
X61956328Y-39770052D01*
X61954014Y-39763694D01*
X61937140Y-39753951D01*
X61922213Y-39741426D01*
X61912470Y-39739708D01*
X61909585Y-39738042D01*
X61906302Y-39738620D01*
X61896561Y-39736903D01*
X61629895Y-39736903D01*
X61614510Y-39742502D01*
X61598198Y-39743930D01*
X61584785Y-39753321D01*
X61581686Y-39754450D01*
X61580675Y-39756199D01*
X61576861Y-39758871D01*
X61538766Y-39796967D01*
X61536871Y-39801029D01*
X61533052Y-39803376D01*
X61520649Y-39826282D01*
X61482553Y-39940566D01*
X61482597Y-39942201D01*
X61478704Y-39964284D01*
X61478704Y-40040475D01*
X61364418Y-40040475D01*
X61364418Y-39012237D01*
X61478705Y-39012237D01*
X61485395Y-39030368D01*
X61488752Y-39049403D01*
X61494064Y-39053860D01*
X61496465Y-39060367D01*
X61516494Y-39077021D01*
X62071288Y-39394046D01*
X61553704Y-39394046D01*
X61505495Y-39411593D01*
X61479843Y-39456022D01*
X61488752Y-39506546D01*
X61528052Y-39539523D01*
X61553704Y-39544046D01*
X62353704Y-39544046D01*
X62360220Y-39541674D01*
X62367056Y-39542848D01*
X62383753Y-39533108D01*
X62401913Y-39526499D01*
X62405380Y-39520493D01*
X62411372Y-39516999D01*
X62417901Y-39498807D01*
X62427565Y-39482070D01*
X62426360Y-39475238D01*
X62428703Y-39468712D01*
X62422012Y-39450580D01*
X62418656Y-39431546D01*
X62413343Y-39427088D01*
X62410943Y-39420582D01*
X62390914Y-39403928D01*
X61836120Y-39086903D01*
X62353704Y-39086903D01*
X62401913Y-39069356D01*
X62427565Y-39024927D01*
X62418656Y-38974403D01*
X62379356Y-38941426D01*
X62353704Y-38936903D01*
X61553704Y-38936903D01*
X61547187Y-38939274D01*
X61540352Y-38938101D01*
X61523654Y-38947840D01*
X61505495Y-38954450D01*
X61502027Y-38960455D01*
X61496036Y-38963950D01*
X61489506Y-38982141D01*
X61479843Y-38998879D01*
X61481047Y-39005710D01*
X61478705Y-39012237D01*
X61364418Y-39012237D01*
X61364418Y-38630951D01*
X61478704Y-38630951D01*
X61485367Y-38649259D01*
X61488752Y-38668451D01*
X61493936Y-38672801D01*
X61496251Y-38679160D01*
X61513124Y-38688902D01*
X61528052Y-38701428D01*
X61537794Y-38703145D01*
X61540680Y-38704812D01*
X61543962Y-38704233D01*
X61553704Y-38705951D01*
X62353704Y-38705951D01*
X62372012Y-38699287D01*
X62391204Y-38695903D01*
X62395554Y-38690718D01*
X62401913Y-38688404D01*
X62411655Y-38671530D01*
X62424181Y-38656603D01*
X62425898Y-38646860D01*
X62427565Y-38643975D01*
X62426986Y-38640692D01*
X62428704Y-38630951D01*
X62428704Y-38440475D01*
X62428143Y-38438936D01*
X62424855Y-38416758D01*
X62386760Y-38302472D01*
X62383973Y-38298961D01*
X62383583Y-38294493D01*
X62368642Y-38273156D01*
X62292452Y-38196966D01*
X62290970Y-38196275D01*
X62272960Y-38182917D01*
X62196769Y-38144822D01*
X62193242Y-38144416D01*
X62181419Y-38139143D01*
X62029038Y-38101047D01*
X62025589Y-38101407D01*
X62010847Y-38098808D01*
X61896561Y-38098808D01*
X61893303Y-38099993D01*
X61878371Y-38101047D01*
X61725989Y-38139143D01*
X61723043Y-38141132D01*
X61710639Y-38144822D01*
X61634449Y-38182917D01*
X61633325Y-38184103D01*
X61614957Y-38196966D01*
X61538767Y-38273156D01*
X61536871Y-38277220D01*
X61533052Y-38279567D01*
X61520649Y-38302472D01*
X61482553Y-38416758D01*
X61482597Y-38418392D01*
X61478704Y-38440475D01*
X61478704Y-38630951D01*
X61364418Y-38630951D01*
X61364418Y-37208403D01*
X61479843Y-37208403D01*
X61488752Y-37258927D01*
X61528052Y-37291904D01*
X61553704Y-37296427D01*
X62353704Y-37296427D01*
X62401913Y-37278880D01*
X62427565Y-37234451D01*
X62418656Y-37183927D01*
X62379356Y-37150950D01*
X62353704Y-37146427D01*
X61553704Y-37146427D01*
X61505495Y-37163974D01*
X61479843Y-37208403D01*
X61364418Y-37208403D01*
X61364418Y-36688094D01*
X61478704Y-36688094D01*
X61480237Y-36692307D01*
X61479196Y-36696669D01*
X61486622Y-36721635D01*
X61524718Y-36797826D01*
X61525907Y-36798951D01*
X61538767Y-36817318D01*
X61614957Y-36893508D01*
X61621663Y-36896635D01*
X61626010Y-36902626D01*
X61649799Y-36913236D01*
X61802181Y-36951332D01*
X61805629Y-36950971D01*
X61820371Y-36953571D01*
X62087038Y-36953571D01*
X62090295Y-36952385D01*
X62105229Y-36951332D01*
X62257610Y-36913236D01*
X62263743Y-36909093D01*
X62271115Y-36908448D01*
X62292452Y-36893508D01*
X62368642Y-36817318D01*
X62369332Y-36815836D01*
X62382691Y-36797826D01*
X62420786Y-36721635D01*
X62421298Y-36717181D01*
X62424181Y-36713746D01*
X62428704Y-36688094D01*
X62428704Y-36535713D01*
X62427170Y-36531499D01*
X62428212Y-36527139D01*
X62420786Y-36502172D01*
X62382691Y-36425982D01*
X62381502Y-36424856D01*
X62368643Y-36406491D01*
X62292452Y-36330299D01*
X62285744Y-36327171D01*
X62281398Y-36321181D01*
X62257609Y-36310571D01*
X62105228Y-36272476D01*
X62101779Y-36272836D01*
X62087038Y-36270237D01*
X61820371Y-36270237D01*
X61817113Y-36271422D01*
X61802181Y-36272476D01*
X61649800Y-36310571D01*
X61643667Y-36314712D01*
X61636294Y-36315358D01*
X61614957Y-36330299D01*
X61538767Y-36406490D01*
X61538074Y-36407974D01*
X61524718Y-36425982D01*
X61486622Y-36502171D01*
X61486109Y-36506625D01*
X61483227Y-36510061D01*
X61478704Y-36535713D01*
X61478704Y-36688094D01*
X61364418Y-36688094D01*
X61364418Y-35849999D01*
X61478704Y-35849999D01*
X61480237Y-35854212D01*
X61479196Y-35858574D01*
X61486622Y-35883540D01*
X61524718Y-35959731D01*
X61525907Y-35960856D01*
X61538767Y-35979223D01*
X61576862Y-36017318D01*
X61578343Y-36018009D01*
X61596354Y-36031367D01*
X61672544Y-36069462D01*
X61676070Y-36069867D01*
X61687894Y-36075141D01*
X61840276Y-36113237D01*
X61843724Y-36112876D01*
X61858466Y-36115476D01*
X62048942Y-36115476D01*
X62052199Y-36114290D01*
X62067133Y-36113237D01*
X62219514Y-36075141D01*
X62222457Y-36073152D01*
X62234864Y-36069462D01*
X62311055Y-36031367D01*
X62312180Y-36030177D01*
X62330547Y-36017318D01*
X62368642Y-35979223D01*
X62369333Y-35977741D01*
X62382691Y-35959731D01*
X62420786Y-35883540D01*
X62421298Y-35879086D01*
X62424181Y-35875651D01*
X62428704Y-35849999D01*
X62428704Y-35773809D01*
X62427170Y-35769596D01*
X62428213Y-35765235D01*
X62420786Y-35740268D01*
X62382691Y-35664077D01*
X62381501Y-35662951D01*
X62368642Y-35644585D01*
X62330547Y-35606490D01*
X62329065Y-35605799D01*
X62311055Y-35592441D01*
X62234864Y-35554346D01*
X62231335Y-35553939D01*
X62219513Y-35548667D01*
X62067132Y-35510572D01*
X62063683Y-35510932D01*
X62048942Y-35508333D01*
X61858466Y-35508333D01*
X61855208Y-35509518D01*
X61840276Y-35510572D01*
X61687895Y-35548667D01*
X61684950Y-35550655D01*
X61672544Y-35554346D01*
X61596354Y-35592441D01*
X61595228Y-35593630D01*
X61576862Y-35606490D01*
X61538767Y-35644585D01*
X61538074Y-35646069D01*
X61524718Y-35664077D01*
X61486622Y-35740268D01*
X61486109Y-35744721D01*
X61483227Y-35748157D01*
X61478704Y-35773809D01*
X61478704Y-35849999D01*
X61364418Y-35849999D01*
X61364418Y-34617927D01*
X61479843Y-34617927D01*
X61488752Y-34668451D01*
X61528052Y-34701428D01*
X61553704Y-34705951D01*
X62353704Y-34705951D01*
X62401913Y-34688404D01*
X62427565Y-34643975D01*
X62418656Y-34593451D01*
X62379356Y-34560474D01*
X62353704Y-34555951D01*
X61553704Y-34555951D01*
X61505495Y-34573498D01*
X61479843Y-34617927D01*
X61364418Y-34617927D01*
X61364418Y-34097618D01*
X61478704Y-34097618D01*
X61480237Y-34101831D01*
X61479196Y-34106193D01*
X61486622Y-34131159D01*
X61524718Y-34207350D01*
X61525907Y-34208475D01*
X61538767Y-34226842D01*
X61614957Y-34303032D01*
X61621663Y-34306159D01*
X61626010Y-34312150D01*
X61649799Y-34322760D01*
X61802181Y-34360856D01*
X61805629Y-34360495D01*
X61820371Y-34363095D01*
X62087038Y-34363095D01*
X62090295Y-34361909D01*
X62105229Y-34360856D01*
X62257610Y-34322760D01*
X62263743Y-34318617D01*
X62271115Y-34317972D01*
X62292452Y-34303032D01*
X62368642Y-34226842D01*
X62369332Y-34225360D01*
X62382691Y-34207350D01*
X62420786Y-34131159D01*
X62421298Y-34126705D01*
X62424181Y-34123270D01*
X62428704Y-34097618D01*
X62428704Y-33945237D01*
X62427170Y-33941023D01*
X62428212Y-33936663D01*
X62420786Y-33911696D01*
X62382691Y-33835506D01*
X62381502Y-33834380D01*
X62368643Y-33816015D01*
X62292452Y-33739823D01*
X62285744Y-33736695D01*
X62281398Y-33730705D01*
X62257609Y-33720095D01*
X62105228Y-33682000D01*
X62101779Y-33682360D01*
X62087038Y-33679761D01*
X61820371Y-33679761D01*
X61817113Y-33680946D01*
X61802181Y-33682000D01*
X61649800Y-33720095D01*
X61643667Y-33724236D01*
X61636294Y-33724882D01*
X61614957Y-33739823D01*
X61538767Y-33816014D01*
X61538074Y-33817498D01*
X61524718Y-33835506D01*
X61486622Y-33911695D01*
X61486109Y-33916149D01*
X61483227Y-33919585D01*
X61478704Y-33945237D01*
X61478704Y-34097618D01*
X61364418Y-34097618D01*
X61364418Y-33640475D01*
X62766704Y-33640475D01*
X62767263Y-33642013D01*
X62770553Y-33664192D01*
X62808649Y-33778478D01*
X62811436Y-33781989D01*
X62811827Y-33786457D01*
X62826767Y-33807794D01*
X62902957Y-33883984D01*
X62904438Y-33884674D01*
X62922449Y-33898033D01*
X62998639Y-33936128D01*
X63002165Y-33936533D01*
X63013989Y-33941807D01*
X63166371Y-33979903D01*
X63169819Y-33979542D01*
X63184561Y-33982142D01*
X63298847Y-33982142D01*
X63302104Y-33980956D01*
X63317038Y-33979903D01*
X63469419Y-33941807D01*
X63472362Y-33939818D01*
X63484769Y-33936128D01*
X63560960Y-33898033D01*
X63562085Y-33896843D01*
X63580452Y-33883984D01*
X63656642Y-33807794D01*
X63658536Y-33803730D01*
X63662358Y-33801383D01*
X63674760Y-33778478D01*
X63712855Y-33664192D01*
X63712810Y-33662557D01*
X63716704Y-33640475D01*
X63716704Y-33526189D01*
X63715170Y-33521975D01*
X63716212Y-33517615D01*
X63708786Y-33492648D01*
X63670691Y-33416458D01*
X63633437Y-33381186D01*
X63582226Y-33378111D01*
X63541021Y-33408675D01*
X63529101Y-33458573D01*
X63536527Y-33483540D01*
X63566704Y-33543894D01*
X63566704Y-33628305D01*
X63538056Y-33714247D01*
X63482992Y-33769311D01*
X63425052Y-33798281D01*
X63289612Y-33832142D01*
X63193796Y-33832142D01*
X63058355Y-33798281D01*
X63000417Y-33769312D01*
X62945352Y-33714247D01*
X62916704Y-33628304D01*
X62916704Y-33576455D01*
X62945352Y-33490512D01*
X62948962Y-33486903D01*
X63109561Y-33486903D01*
X63109561Y-33564284D01*
X63127108Y-33612493D01*
X63171537Y-33638145D01*
X63222061Y-33629236D01*
X63255038Y-33589936D01*
X63259561Y-33564284D01*
X63259561Y-33411903D01*
X63252897Y-33393594D01*
X63249513Y-33374403D01*
X63244328Y-33370052D01*
X63242014Y-33363694D01*
X63225140Y-33353951D01*
X63210213Y-33341426D01*
X63200470Y-33339708D01*
X63197585Y-33338042D01*
X63194302Y-33338620D01*
X63184561Y-33336903D01*
X62917895Y-33336903D01*
X62902510Y-33342502D01*
X62886198Y-33343930D01*
X62872785Y-33353321D01*
X62869686Y-33354450D01*
X62868675Y-33356199D01*
X62864861Y-33358871D01*
X62826766Y-33396967D01*
X62824871Y-33401029D01*
X62821052Y-33403376D01*
X62808649Y-33426282D01*
X62770553Y-33540566D01*
X62770597Y-33542201D01*
X62766704Y-33564284D01*
X62766704Y-33640475D01*
X61364418Y-33640475D01*
X61364418Y-33450000D01*
X61478704Y-33450000D01*
X61496251Y-33498209D01*
X61540680Y-33523861D01*
X61591204Y-33514952D01*
X61624181Y-33475652D01*
X61628704Y-33450000D01*
X61628704Y-33296428D01*
X62134543Y-33296428D01*
X62110195Y-33320776D01*
X62109503Y-33322257D01*
X62096146Y-33340268D01*
X62058051Y-33416459D01*
X62052186Y-33467426D01*
X62080453Y-33510239D01*
X62129627Y-33524865D01*
X62176698Y-33504462D01*
X62192215Y-33483541D01*
X62224867Y-33418236D01*
X62287198Y-33355904D01*
X62395307Y-33283832D01*
X62397861Y-33280355D01*
X62401913Y-33278881D01*
X62412796Y-33260031D01*
X62425686Y-33242490D01*
X62425408Y-33238187D01*
X62427565Y-33234452D01*
X62423784Y-33213014D01*
X62422384Y-33191294D01*
X62419404Y-33188175D01*
X62418656Y-33183928D01*
X62401980Y-33169935D01*
X62386946Y-33154197D01*
X62382659Y-33153723D01*
X62379356Y-33150951D01*
X62353704Y-33146428D01*
X61628704Y-33146428D01*
X61628704Y-33056022D01*
X62767843Y-33056022D01*
X62776752Y-33106546D01*
X62816052Y-33139523D01*
X62841704Y-33144046D01*
X63641704Y-33144046D01*
X63660012Y-33137382D01*
X63679204Y-33133998D01*
X63683554Y-33128813D01*
X63689913Y-33126499D01*
X63699655Y-33109625D01*
X63712181Y-33094698D01*
X63713898Y-33084955D01*
X63715565Y-33082070D01*
X63714986Y-33078787D01*
X63716704Y-33069046D01*
X63716704Y-32764284D01*
X63715170Y-32760070D01*
X63716212Y-32755710D01*
X63708786Y-32730743D01*
X63670691Y-32654553D01*
X63669501Y-32653427D01*
X63656642Y-32635061D01*
X63618547Y-32596966D01*
X63617062Y-32596273D01*
X63599055Y-32582917D01*
X63522864Y-32544821D01*
X63518410Y-32544308D01*
X63514975Y-32541426D01*
X63489323Y-32536903D01*
X63375038Y-32536903D01*
X63370824Y-32538436D01*
X63366463Y-32537395D01*
X63341496Y-32544821D01*
X63265306Y-32582917D01*
X63264180Y-32584106D01*
X63245814Y-32596966D01*
X63207719Y-32635061D01*
X63207028Y-32636542D01*
X63193670Y-32654553D01*
X63155575Y-32730743D01*
X63155062Y-32735196D01*
X63152180Y-32738632D01*
X63147657Y-32764284D01*
X63147657Y-32994046D01*
X62841704Y-32994046D01*
X62793495Y-33011593D01*
X62767843Y-33056022D01*
X61628704Y-33056022D01*
X61628704Y-32992857D01*
X61611157Y-32944648D01*
X61566728Y-32918996D01*
X61516204Y-32927905D01*
X61483227Y-32967205D01*
X61478704Y-32992857D01*
X61478704Y-33450000D01*
X61364418Y-33450000D01*
X61364418Y-32256022D01*
X62767843Y-32256022D01*
X62776752Y-32306546D01*
X62816052Y-32339523D01*
X62841704Y-32344046D01*
X63641704Y-32344046D01*
X63689913Y-32326499D01*
X63715565Y-32282070D01*
X63706656Y-32231546D01*
X63667356Y-32198569D01*
X63641704Y-32194046D01*
X62841704Y-32194046D01*
X62793495Y-32211593D01*
X62767843Y-32256022D01*
X61364418Y-32256022D01*
X61364418Y-32027451D01*
X61479843Y-32027451D01*
X61488752Y-32077975D01*
X61528052Y-32110952D01*
X61553704Y-32115475D01*
X62353704Y-32115475D01*
X62401913Y-32097928D01*
X62427565Y-32053499D01*
X62418656Y-32002975D01*
X62379356Y-31969998D01*
X62353704Y-31965475D01*
X61553704Y-31965475D01*
X61505495Y-31983022D01*
X61479843Y-32027451D01*
X61364418Y-32027451D01*
X61364418Y-31507142D01*
X61478704Y-31507142D01*
X61480237Y-31511355D01*
X61479196Y-31515717D01*
X61486622Y-31540683D01*
X61524718Y-31616874D01*
X61525907Y-31617999D01*
X61538767Y-31636366D01*
X61614957Y-31712556D01*
X61621663Y-31715683D01*
X61626010Y-31721674D01*
X61649799Y-31732284D01*
X61802181Y-31770380D01*
X61805629Y-31770019D01*
X61820371Y-31772619D01*
X62087038Y-31772619D01*
X62090295Y-31771433D01*
X62105229Y-31770380D01*
X62243894Y-31735713D01*
X62766704Y-31735713D01*
X62768237Y-31739926D01*
X62767196Y-31744288D01*
X62774622Y-31769254D01*
X62812718Y-31845445D01*
X62813907Y-31846570D01*
X62826767Y-31864937D01*
X62902957Y-31941127D01*
X62909663Y-31944254D01*
X62914010Y-31950245D01*
X62937799Y-31960855D01*
X63090181Y-31998951D01*
X63093629Y-31998590D01*
X63108371Y-32001190D01*
X63375038Y-32001190D01*
X63378295Y-32000004D01*
X63393229Y-31998951D01*
X63545610Y-31960855D01*
X63551743Y-31956712D01*
X63559115Y-31956067D01*
X63580452Y-31941127D01*
X63656642Y-31864937D01*
X63657332Y-31863455D01*
X63670691Y-31845445D01*
X63708786Y-31769254D01*
X63709298Y-31764800D01*
X63712181Y-31761365D01*
X63716704Y-31735713D01*
X63716704Y-31583332D01*
X63715170Y-31579118D01*
X63716212Y-31574758D01*
X63708786Y-31549791D01*
X63670691Y-31473601D01*
X63669502Y-31472475D01*
X63656643Y-31454110D01*
X63580452Y-31377918D01*
X63573744Y-31374790D01*
X63569398Y-31368800D01*
X63545609Y-31358190D01*
X63393228Y-31320095D01*
X63389779Y-31320455D01*
X63375038Y-31317856D01*
X63108371Y-31317856D01*
X63105113Y-31319041D01*
X63090181Y-31320095D01*
X62937800Y-31358190D01*
X62931667Y-31362331D01*
X62924294Y-31362977D01*
X62902957Y-31377918D01*
X62826767Y-31454109D01*
X62826074Y-31455593D01*
X62812718Y-31473601D01*
X62774622Y-31549790D01*
X62774109Y-31554244D01*
X62771227Y-31557680D01*
X62766704Y-31583332D01*
X62766704Y-31735713D01*
X62243894Y-31735713D01*
X62257610Y-31732284D01*
X62263743Y-31728141D01*
X62271115Y-31727496D01*
X62292452Y-31712556D01*
X62368642Y-31636366D01*
X62369332Y-31634884D01*
X62382691Y-31616874D01*
X62420786Y-31540683D01*
X62421298Y-31536229D01*
X62424181Y-31532794D01*
X62428704Y-31507142D01*
X62428704Y-31354761D01*
X62427170Y-31350547D01*
X62428212Y-31346187D01*
X62420786Y-31321220D01*
X62382691Y-31245030D01*
X62381502Y-31243904D01*
X62368643Y-31225539D01*
X62292452Y-31149347D01*
X62285744Y-31146219D01*
X62281398Y-31140229D01*
X62257609Y-31129619D01*
X62105228Y-31091524D01*
X62101779Y-31091884D01*
X62087038Y-31089285D01*
X61820371Y-31089285D01*
X61817113Y-31090470D01*
X61802181Y-31091524D01*
X61649800Y-31129619D01*
X61643667Y-31133760D01*
X61636294Y-31134406D01*
X61614957Y-31149347D01*
X61538767Y-31225538D01*
X61538074Y-31227022D01*
X61524718Y-31245030D01*
X61486622Y-31321219D01*
X61486109Y-31325673D01*
X61483227Y-31329109D01*
X61478704Y-31354761D01*
X61478704Y-31507142D01*
X61364418Y-31507142D01*
X61364418Y-30707143D01*
X61478704Y-30707143D01*
X61480237Y-30711356D01*
X61479196Y-30715718D01*
X61486622Y-30740685D01*
X61524718Y-30816874D01*
X61525907Y-30817999D01*
X61538767Y-30836366D01*
X61576862Y-30874461D01*
X61578344Y-30875152D01*
X61596353Y-30888510D01*
X61672543Y-30926605D01*
X61676996Y-30927117D01*
X61680433Y-30930001D01*
X61706085Y-30934524D01*
X62010847Y-30934524D01*
X62014104Y-30933338D01*
X62029038Y-30932285D01*
X62181419Y-30894189D01*
X62181776Y-30893947D01*
X62204830Y-30883832D01*
X62319116Y-30807642D01*
X62321185Y-30804825D01*
X62330547Y-30798271D01*
X62368642Y-30760176D01*
X62369333Y-30758694D01*
X62382691Y-30740684D01*
X62420786Y-30664493D01*
X62421298Y-30660039D01*
X62424181Y-30656604D01*
X62428704Y-30630952D01*
X62428704Y-30478571D01*
X62411157Y-30430362D01*
X62366728Y-30404710D01*
X62316204Y-30413619D01*
X62283227Y-30452919D01*
X62278704Y-30478571D01*
X62278704Y-30613247D01*
X62253969Y-30662716D01*
X62229734Y-30686952D01*
X62132435Y-30751817D01*
X62107317Y-30758097D01*
X62116024Y-30740684D01*
X62116536Y-30736230D01*
X62119419Y-30732795D01*
X62123942Y-30707143D01*
X62123942Y-30554762D01*
X62122408Y-30550549D01*
X62123451Y-30546188D01*
X62116024Y-30521221D01*
X62077929Y-30445030D01*
X62076739Y-30443904D01*
X62063880Y-30425538D01*
X62025785Y-30387443D01*
X62024303Y-30386752D01*
X62006293Y-30373394D01*
X61930102Y-30335299D01*
X61925648Y-30334786D01*
X61922213Y-30331904D01*
X61896561Y-30327381D01*
X61706085Y-30327381D01*
X61701871Y-30328914D01*
X61697511Y-30327873D01*
X61672544Y-30335299D01*
X61596354Y-30373394D01*
X61595228Y-30374583D01*
X61576862Y-30387443D01*
X61538767Y-30425538D01*
X61538074Y-30427022D01*
X61524718Y-30445030D01*
X61486622Y-30521221D01*
X61486109Y-30525674D01*
X61483227Y-30529110D01*
X61478704Y-30554762D01*
X61478704Y-30707143D01*
X61364418Y-30707143D01*
X61364418Y-29436975D01*
X61479843Y-29436975D01*
X61488752Y-29487499D01*
X61528052Y-29520476D01*
X61553704Y-29524999D01*
X62353704Y-29524999D01*
X62401913Y-29507452D01*
X62427565Y-29463023D01*
X62418656Y-29412499D01*
X62379356Y-29379522D01*
X62353704Y-29374999D01*
X61553704Y-29374999D01*
X61505495Y-29392546D01*
X61479843Y-29436975D01*
X61364418Y-29436975D01*
X61364418Y-28916666D01*
X61478704Y-28916666D01*
X61480237Y-28920879D01*
X61479196Y-28925241D01*
X61486622Y-28950207D01*
X61524718Y-29026398D01*
X61525907Y-29027523D01*
X61538767Y-29045890D01*
X61614957Y-29122080D01*
X61621663Y-29125207D01*
X61626010Y-29131198D01*
X61649799Y-29141808D01*
X61802181Y-29179904D01*
X61805629Y-29179543D01*
X61820371Y-29182143D01*
X62087038Y-29182143D01*
X62090295Y-29180957D01*
X62105229Y-29179904D01*
X62257610Y-29141808D01*
X62263743Y-29137665D01*
X62271115Y-29137020D01*
X62292452Y-29122080D01*
X62368642Y-29045890D01*
X62369332Y-29044408D01*
X62382691Y-29026398D01*
X62420786Y-28950207D01*
X62421298Y-28945753D01*
X62424181Y-28942318D01*
X62428704Y-28916666D01*
X62428704Y-28764285D01*
X62427170Y-28760071D01*
X62428212Y-28755711D01*
X62420786Y-28730744D01*
X62382691Y-28654554D01*
X62381502Y-28653428D01*
X62368643Y-28635063D01*
X62292452Y-28558871D01*
X62285744Y-28555743D01*
X62281398Y-28549753D01*
X62257609Y-28539143D01*
X62105228Y-28501048D01*
X62101779Y-28501408D01*
X62087038Y-28498809D01*
X61820371Y-28498809D01*
X61817113Y-28499994D01*
X61802181Y-28501048D01*
X61649800Y-28539143D01*
X61643667Y-28543284D01*
X61636294Y-28543930D01*
X61614957Y-28558871D01*
X61538767Y-28635062D01*
X61538074Y-28636546D01*
X61524718Y-28654554D01*
X61486622Y-28730743D01*
X61486109Y-28735197D01*
X61483227Y-28738633D01*
X61478704Y-28764285D01*
X61478704Y-28916666D01*
X61364418Y-28916666D01*
X61364418Y-28133791D01*
X61480685Y-28133791D01*
X61508776Y-28176721D01*
X61557888Y-28191550D01*
X61583248Y-28185603D01*
X62278704Y-27887549D01*
X62278704Y-28307143D01*
X62296251Y-28355352D01*
X62340680Y-28381004D01*
X62391204Y-28372095D01*
X62424181Y-28332795D01*
X62428704Y-28307143D01*
X62428704Y-27773809D01*
X62425673Y-27765483D01*
X62426723Y-27756685D01*
X62417141Y-27742042D01*
X62411157Y-27725600D01*
X62403483Y-27721169D01*
X62398632Y-27713755D01*
X62381882Y-27708697D01*
X62366728Y-27699948D01*
X62358000Y-27701486D01*
X62349519Y-27698926D01*
X62324160Y-27704873D01*
X61524160Y-28047731D01*
X61486761Y-28082850D01*
X61480685Y-28133791D01*
X61364418Y-28133791D01*
X61364418Y-26821428D01*
X61478704Y-26821428D01*
X61480237Y-26825641D01*
X61479196Y-26830003D01*
X61486622Y-26854969D01*
X61524718Y-26931160D01*
X61525907Y-26932285D01*
X61538767Y-26950652D01*
X61576862Y-26988747D01*
X61623358Y-27010428D01*
X61672913Y-26997151D01*
X61702339Y-26955125D01*
X61697868Y-26904018D01*
X61682928Y-26882681D01*
X61653439Y-26853192D01*
X61628704Y-26803722D01*
X61628704Y-26610562D01*
X61653439Y-26561092D01*
X61674322Y-26540210D01*
X61723790Y-26515476D01*
X61878856Y-26515476D01*
X61928325Y-26540210D01*
X61949207Y-26561092D01*
X61973942Y-26610561D01*
X61973942Y-26707142D01*
X61980857Y-26726141D01*
X61984780Y-26745978D01*
X61989442Y-26749728D01*
X61991489Y-26755351D01*
X62008998Y-26765460D01*
X62024754Y-26778135D01*
X62030736Y-26778011D01*
X62035918Y-26781003D01*
X62055831Y-26777491D01*
X62076046Y-26777073D01*
X62083379Y-26772633D01*
X62086442Y-26772094D01*
X62088681Y-26769424D01*
X62098330Y-26763585D01*
X62278704Y-26605758D01*
X62278704Y-26935714D01*
X62296251Y-26983923D01*
X62340680Y-27009575D01*
X62391204Y-27000666D01*
X62424181Y-26961366D01*
X62428704Y-26935714D01*
X62428704Y-26440476D01*
X62421789Y-26421479D01*
X62417867Y-26401640D01*
X62413202Y-26397888D01*
X62411157Y-26392267D01*
X62393649Y-26382158D01*
X62377892Y-26369483D01*
X62371909Y-26369606D01*
X62366728Y-26366615D01*
X62346817Y-26370125D01*
X62326600Y-26370544D01*
X62319264Y-26374984D01*
X62316204Y-26375524D01*
X62313965Y-26378191D01*
X62304317Y-26384032D01*
X62112362Y-26551992D01*
X62077929Y-26483125D01*
X62076739Y-26481999D01*
X62063880Y-26463633D01*
X62025785Y-26425538D01*
X62024303Y-26424847D01*
X62006293Y-26411489D01*
X61930102Y-26373394D01*
X61925648Y-26372881D01*
X61922213Y-26369999D01*
X61896561Y-26365476D01*
X61706085Y-26365476D01*
X61701871Y-26367009D01*
X61697511Y-26365968D01*
X61672544Y-26373394D01*
X61596354Y-26411489D01*
X61595228Y-26412678D01*
X61576862Y-26425538D01*
X61538767Y-26463633D01*
X61538074Y-26465117D01*
X61524718Y-26483125D01*
X61486622Y-26559316D01*
X61486109Y-26563769D01*
X61483227Y-26567205D01*
X61478704Y-26592857D01*
X61478704Y-26821428D01*
X61364418Y-26821428D01*
X61364418Y-25956238D01*
X61479515Y-25956238D01*
X61480543Y-25958137D01*
X61480227Y-25960273D01*
X61492645Y-25980486D01*
X61503944Y-26001352D01*
X61505951Y-26002145D01*
X61507082Y-26003985D01*
X61529987Y-26016388D01*
X62329987Y-26283055D01*
X62381271Y-26281654D01*
X62419656Y-26247617D01*
X62427181Y-26196868D01*
X62400326Y-26153155D01*
X62377421Y-26140753D01*
X61790874Y-25945237D01*
X62377421Y-25749722D01*
X62417607Y-25717831D01*
X62427893Y-25667570D01*
X62403465Y-25622456D01*
X62355753Y-25603599D01*
X62329987Y-25607420D01*
X61529987Y-25874086D01*
X61528295Y-25875428D01*
X61526137Y-25875487D01*
X61508375Y-25891236D01*
X61489801Y-25905977D01*
X61489368Y-25908090D01*
X61487752Y-25909524D01*
X61484271Y-25932994D01*
X61479515Y-25956238D01*
X61364418Y-25956238D01*
X61364418Y-25373809D01*
X61478704Y-25373809D01*
X61480237Y-25378022D01*
X61479196Y-25382384D01*
X61486622Y-25407350D01*
X61524718Y-25483541D01*
X61525907Y-25484666D01*
X61538767Y-25503033D01*
X61576862Y-25541128D01*
X61623358Y-25562809D01*
X61672913Y-25549532D01*
X61702339Y-25507506D01*
X61697868Y-25456399D01*
X61682928Y-25435062D01*
X61653439Y-25405573D01*
X61628704Y-25356103D01*
X61628704Y-25162943D01*
X61653439Y-25113473D01*
X61674322Y-25092591D01*
X61723790Y-25067857D01*
X61878856Y-25067857D01*
X61928325Y-25092591D01*
X61949207Y-25113473D01*
X61973942Y-25162942D01*
X61973942Y-25259523D01*
X61980857Y-25278522D01*
X61984780Y-25298359D01*
X61989442Y-25302109D01*
X61991489Y-25307732D01*
X62008998Y-25317841D01*
X62024754Y-25330516D01*
X62030736Y-25330392D01*
X62035918Y-25333384D01*
X62055831Y-25329872D01*
X62076046Y-25329454D01*
X62083379Y-25325014D01*
X62086442Y-25324475D01*
X62088681Y-25321805D01*
X62098330Y-25315966D01*
X62278704Y-25158139D01*
X62278704Y-25488095D01*
X62296251Y-25536304D01*
X62340680Y-25561956D01*
X62391204Y-25553047D01*
X62424181Y-25513747D01*
X62428704Y-25488095D01*
X62428704Y-24992857D01*
X62421789Y-24973860D01*
X62417867Y-24954021D01*
X62413202Y-24950269D01*
X62411157Y-24944648D01*
X62393649Y-24934539D01*
X62377892Y-24921864D01*
X62371909Y-24921987D01*
X62366728Y-24918996D01*
X62346817Y-24922506D01*
X62326600Y-24922925D01*
X62319264Y-24927365D01*
X62316204Y-24927905D01*
X62313965Y-24930572D01*
X62304317Y-24936413D01*
X62112362Y-25104373D01*
X62077929Y-25035506D01*
X62076739Y-25034380D01*
X62063880Y-25016014D01*
X62025785Y-24977919D01*
X62024303Y-24977228D01*
X62006293Y-24963870D01*
X61930102Y-24925775D01*
X61925648Y-24925262D01*
X61922213Y-24922380D01*
X61896561Y-24917857D01*
X61706085Y-24917857D01*
X61701871Y-24919390D01*
X61697511Y-24918349D01*
X61672544Y-24925775D01*
X61596354Y-24963870D01*
X61595228Y-24965059D01*
X61576862Y-24977919D01*
X61538767Y-25016014D01*
X61538074Y-25017498D01*
X61524718Y-25035506D01*
X61486622Y-25111697D01*
X61486109Y-25116150D01*
X61483227Y-25119586D01*
X61478704Y-25145238D01*
X61478704Y-25373809D01*
X61364418Y-25373809D01*
X61364418Y-24803571D01*
X63830990Y-24803571D01*
X63830990Y-40496428D01*
G37*
D10*
X91035838Y-7738095D02*
X90988219Y-7642857D01*
X90988219Y-7642857D02*
X90988219Y-7500000D01*
X90988219Y-7500000D02*
X91035838Y-7357143D01*
X91035838Y-7357143D02*
X91131076Y-7261905D01*
X91131076Y-7261905D02*
X91226314Y-7214286D01*
X91226314Y-7214286D02*
X91416790Y-7166667D01*
X91416790Y-7166667D02*
X91559647Y-7166667D01*
X91559647Y-7166667D02*
X91750123Y-7214286D01*
X91750123Y-7214286D02*
X91845361Y-7261905D01*
X91845361Y-7261905D02*
X91940600Y-7357143D01*
X91940600Y-7357143D02*
X91988219Y-7500000D01*
X91988219Y-7500000D02*
X91988219Y-7595238D01*
X91988219Y-7595238D02*
X91940600Y-7738095D01*
X91940600Y-7738095D02*
X91892980Y-7785714D01*
X91892980Y-7785714D02*
X91559647Y-7785714D01*
X91559647Y-7785714D02*
X91559647Y-7595238D01*
X91988219Y-8214286D02*
X90988219Y-8214286D01*
X90988219Y-8214286D02*
X91988219Y-8785714D01*
X91988219Y-8785714D02*
X90988219Y-8785714D01*
X91988219Y-9261905D02*
X90988219Y-9261905D01*
X90988219Y-9261905D02*
X90988219Y-9500000D01*
X90988219Y-9500000D02*
X91035838Y-9642857D01*
X91035838Y-9642857D02*
X91131076Y-9738095D01*
X91131076Y-9738095D02*
X91226314Y-9785714D01*
X91226314Y-9785714D02*
X91416790Y-9833333D01*
X91416790Y-9833333D02*
X91559647Y-9833333D01*
X91559647Y-9833333D02*
X91750123Y-9785714D01*
X91750123Y-9785714D02*
X91845361Y-9738095D01*
X91845361Y-9738095D02*
X91940600Y-9642857D01*
X91940600Y-9642857D02*
X91988219Y-9500000D01*
X91988219Y-9500000D02*
X91988219Y-9261905D01*
D11*
X31071427Y2947642D02*
X30357142Y2947642D01*
X31214284Y2519071D02*
X30714284Y4019071D01*
X30714284Y4019071D02*
X30214284Y2519071D01*
X29857142Y4019071D02*
X28928570Y4019071D01*
X28928570Y4019071D02*
X29428570Y3447642D01*
X29428570Y3447642D02*
X29214285Y3447642D01*
X29214285Y3447642D02*
X29071428Y3376214D01*
X29071428Y3376214D02*
X28999999Y3304785D01*
X28999999Y3304785D02*
X28928570Y3161928D01*
X28928570Y3161928D02*
X28928570Y2804785D01*
X28928570Y2804785D02*
X28999999Y2661928D01*
X28999999Y2661928D02*
X29071428Y2590500D01*
X29071428Y2590500D02*
X29214285Y2519071D01*
X29214285Y2519071D02*
X29642856Y2519071D01*
X29642856Y2519071D02*
X29785713Y2590500D01*
X29785713Y2590500D02*
X29857142Y2661928D01*
D12*
G36*
X76708905Y-42306029D02*
G01*
X76729787Y-42326911D01*
X76758757Y-42384850D01*
X76792618Y-42520292D01*
X76792618Y-42692297D01*
X76758757Y-42827738D01*
X76729787Y-42885677D01*
X76708904Y-42906561D01*
X76659436Y-42931295D01*
X76618656Y-42931295D01*
X76569187Y-42906561D01*
X76548304Y-42885677D01*
X76519334Y-42827738D01*
X76485475Y-42692299D01*
X76485475Y-42520290D01*
X76519334Y-42384851D01*
X76548304Y-42326911D01*
X76569186Y-42306029D01*
X76618656Y-42281295D01*
X76659436Y-42281295D01*
X76708905Y-42306029D01*
G37*
G36*
X77508905Y-42648886D02*
G01*
X77529788Y-42669769D01*
X77554523Y-42719238D01*
X77554523Y-42836208D01*
X77529787Y-42885678D01*
X77508904Y-42906561D01*
X77459437Y-42931295D01*
X77342466Y-42931295D01*
X77292997Y-42906561D01*
X77272114Y-42885677D01*
X77247380Y-42836209D01*
X77247380Y-42719237D01*
X77272114Y-42669768D01*
X77292996Y-42648886D01*
X77342466Y-42624152D01*
X77459437Y-42624152D01*
X77508905Y-42648886D01*
G37*
G36*
X77508905Y-42306029D02*
G01*
X77529788Y-42326912D01*
X77554523Y-42376381D01*
X77554523Y-42379065D01*
X77529787Y-42428535D01*
X77508904Y-42449418D01*
X77459437Y-42474152D01*
X77342466Y-42474152D01*
X77292997Y-42449418D01*
X77272114Y-42428534D01*
X77247380Y-42379066D01*
X77247380Y-42376380D01*
X77272114Y-42326911D01*
X77292996Y-42306029D01*
X77342466Y-42281295D01*
X77459437Y-42281295D01*
X77508905Y-42306029D01*
G37*
G36*
X80716428Y-42931295D02*
G01*
X80504371Y-42931295D01*
X80454903Y-42906561D01*
X80434019Y-42885676D01*
X80409285Y-42836208D01*
X80409285Y-42757334D01*
X80434019Y-42707865D01*
X80450990Y-42690893D01*
X80536932Y-42662247D01*
X80716428Y-42662247D01*
X80716428Y-42931295D01*
G37*
G36*
X80716428Y-42512247D02*
G01*
X80542467Y-42512247D01*
X80492997Y-42487512D01*
X80472115Y-42466630D01*
X80447381Y-42417161D01*
X80447381Y-42376380D01*
X80472115Y-42326911D01*
X80492997Y-42306029D01*
X80542467Y-42281295D01*
X80716428Y-42281295D01*
X80716428Y-42512247D01*
G37*
G36*
X74373570Y-41643295D02*
G01*
X74270264Y-41643295D01*
X74184322Y-41614648D01*
X74129257Y-41559582D01*
X74100287Y-41501642D01*
X74066427Y-41366202D01*
X74066427Y-41270387D01*
X74100287Y-41134946D01*
X74129257Y-41077006D01*
X74184321Y-41021942D01*
X74270264Y-40993295D01*
X74373570Y-40993295D01*
X74373570Y-41643295D01*
G37*
G36*
X79364047Y-41643295D02*
G01*
X79260741Y-41643295D01*
X79174799Y-41614648D01*
X79119734Y-41559582D01*
X79090764Y-41501642D01*
X79056904Y-41366202D01*
X79056904Y-41270387D01*
X79090764Y-41134946D01*
X79119734Y-41077006D01*
X79174798Y-41021942D01*
X79260741Y-40993295D01*
X79364047Y-40993295D01*
X79364047Y-41643295D01*
G37*
G36*
X73582609Y-41414723D02*
G01*
X73409770Y-41414723D01*
X73496189Y-41155465D01*
X73582609Y-41414723D01*
G37*
G36*
X84161381Y-43195581D02*
G01*
X73044086Y-43195581D01*
X73044086Y-42701533D01*
X76335475Y-42701533D01*
X76336660Y-42704790D01*
X76337714Y-42719723D01*
X76375809Y-42872104D01*
X76377797Y-42875048D01*
X76381488Y-42887455D01*
X76419583Y-42963645D01*
X76420771Y-42964770D01*
X76433631Y-42983136D01*
X76471726Y-43021232D01*
X76473207Y-43021922D01*
X76491219Y-43035282D01*
X76567410Y-43073377D01*
X76571863Y-43073889D01*
X76575299Y-43076772D01*
X76600951Y-43081295D01*
X76677141Y-43081295D01*
X76681353Y-43079761D01*
X76685715Y-43080804D01*
X76710682Y-43073377D01*
X76786873Y-43035282D01*
X76787997Y-43034094D01*
X76806366Y-43021232D01*
X76844461Y-42983136D01*
X76845152Y-42981653D01*
X76858509Y-42963645D01*
X76896604Y-42887455D01*
X76897009Y-42883928D01*
X76902283Y-42872105D01*
X76906831Y-42853914D01*
X77097380Y-42853914D01*
X77098913Y-42858127D01*
X77097872Y-42862488D01*
X77105298Y-42887455D01*
X77143393Y-42963645D01*
X77144581Y-42964770D01*
X77157441Y-42983136D01*
X77195536Y-43021232D01*
X77197017Y-43021922D01*
X77215029Y-43035282D01*
X77291220Y-43073377D01*
X77295673Y-43073889D01*
X77299109Y-43076772D01*
X77324761Y-43081295D01*
X77477142Y-43081295D01*
X77481355Y-43079761D01*
X77485716Y-43080803D01*
X77510683Y-43073377D01*
X77586873Y-43035282D01*
X77587997Y-43034094D01*
X77606366Y-43021232D01*
X77644461Y-42983136D01*
X77645152Y-42981652D01*
X77658509Y-42963646D01*
X77696604Y-42887456D01*
X77697116Y-42883002D01*
X77700000Y-42879566D01*
X77704523Y-42853914D01*
X77704523Y-42701533D01*
X77702989Y-42697319D01*
X77704031Y-42692958D01*
X77696605Y-42667991D01*
X77658509Y-42591801D01*
X77657319Y-42590675D01*
X77644460Y-42572309D01*
X77621302Y-42549151D01*
X77644461Y-42525993D01*
X77645152Y-42524509D01*
X77658509Y-42506503D01*
X77694328Y-42434866D01*
X77859285Y-42434866D01*
X77859845Y-42436404D01*
X77863134Y-42458583D01*
X77901229Y-42572869D01*
X77904016Y-42576381D01*
X77904407Y-42580848D01*
X77919347Y-42602185D01*
X78248457Y-42931295D01*
X77934285Y-42931295D01*
X77886076Y-42948842D01*
X77860424Y-42993271D01*
X77869333Y-43043795D01*
X77908633Y-43076772D01*
X77934285Y-43081295D01*
X78429523Y-43081295D01*
X78450733Y-43073574D01*
X78472541Y-43067732D01*
X78474509Y-43064920D01*
X78477732Y-43063748D01*
X78489017Y-43044202D01*
X78501968Y-43025707D01*
X78501669Y-43022289D01*
X78503384Y-43019319D01*
X78499464Y-42997092D01*
X78499130Y-42993271D01*
X78622329Y-42993271D01*
X78631238Y-43043795D01*
X78670538Y-43076772D01*
X78696190Y-43081295D01*
X79077142Y-43081295D01*
X79095450Y-43074631D01*
X79114642Y-43071247D01*
X79118992Y-43066062D01*
X79125351Y-43063748D01*
X79135093Y-43046874D01*
X79147619Y-43031947D01*
X79149336Y-43022204D01*
X79151003Y-43019319D01*
X79150424Y-43016036D01*
X79152142Y-43006295D01*
X79383095Y-43006295D01*
X79400642Y-43054504D01*
X79445071Y-43080156D01*
X79495595Y-43071247D01*
X79528572Y-43031947D01*
X79533095Y-43006295D01*
X79533095Y-42544361D01*
X79656798Y-42809439D01*
X79670563Y-42823196D01*
X79681725Y-42839147D01*
X79688284Y-42840906D01*
X79693086Y-42845705D01*
X79712473Y-42847395D01*
X79731277Y-42852440D01*
X79737431Y-42849572D01*
X79744195Y-42850162D01*
X79760135Y-42838993D01*
X79777779Y-42830772D01*
X79783478Y-42822637D01*
X79786211Y-42820723D01*
X79787070Y-42817510D01*
X79792726Y-42809439D01*
X79916428Y-42544362D01*
X79916428Y-43006295D01*
X79933975Y-43054504D01*
X79978404Y-43080156D01*
X80028928Y-43071247D01*
X80061905Y-43031947D01*
X80066428Y-43006295D01*
X80066428Y-42853914D01*
X80259285Y-42853914D01*
X80260818Y-42858127D01*
X80259777Y-42862489D01*
X80267203Y-42887456D01*
X80305299Y-42963645D01*
X80306487Y-42964770D01*
X80319347Y-42983136D01*
X80357442Y-43021232D01*
X80358923Y-43021922D01*
X80376935Y-43035282D01*
X80453125Y-43073377D01*
X80457578Y-43073889D01*
X80461014Y-43076772D01*
X80486666Y-43081295D01*
X80791428Y-43081295D01*
X80809736Y-43074631D01*
X80828928Y-43071247D01*
X80833278Y-43066062D01*
X80839637Y-43063748D01*
X80849379Y-43046874D01*
X80861905Y-43031947D01*
X80863622Y-43022204D01*
X80865289Y-43019319D01*
X80864710Y-43016036D01*
X80866428Y-43006295D01*
X80866428Y-42206295D01*
X80859764Y-42187986D01*
X80856380Y-42168795D01*
X80851195Y-42164444D01*
X80848881Y-42158086D01*
X80832007Y-42148343D01*
X80817080Y-42135818D01*
X80807337Y-42134100D01*
X80804452Y-42132434D01*
X80801169Y-42133012D01*
X80791428Y-42131295D01*
X80524762Y-42131295D01*
X80520549Y-42132828D01*
X80516188Y-42131786D01*
X80491221Y-42139213D01*
X80415030Y-42177308D01*
X80413904Y-42178497D01*
X80395538Y-42191357D01*
X80357443Y-42229452D01*
X80356752Y-42230933D01*
X80343394Y-42248944D01*
X80305299Y-42325135D01*
X80304786Y-42329588D01*
X80301904Y-42333024D01*
X80297381Y-42358676D01*
X80297381Y-42434866D01*
X80298914Y-42439078D01*
X80297872Y-42443440D01*
X80305299Y-42468407D01*
X80343394Y-42544598D01*
X80344583Y-42545723D01*
X80357443Y-42564090D01*
X80362277Y-42568924D01*
X80357442Y-42572310D01*
X80319347Y-42610406D01*
X80318654Y-42611891D01*
X80305299Y-42629897D01*
X80267203Y-42706086D01*
X80266690Y-42710540D01*
X80263808Y-42713976D01*
X80259285Y-42739628D01*
X80259285Y-42853914D01*
X80066428Y-42853914D01*
X80066428Y-42206295D01*
X80063002Y-42196882D01*
X80063878Y-42186904D01*
X80054483Y-42173478D01*
X80048881Y-42158086D01*
X80040208Y-42153078D01*
X80034465Y-42144871D01*
X80018639Y-42140625D01*
X80004452Y-42132434D01*
X79994588Y-42134173D01*
X79984914Y-42131578D01*
X79970062Y-42138497D01*
X79953928Y-42141343D01*
X79947489Y-42149015D01*
X79938411Y-42153246D01*
X79923464Y-42174578D01*
X79724761Y-42600369D01*
X79526059Y-42174579D01*
X79518973Y-42167498D01*
X79515548Y-42158086D01*
X79501358Y-42149893D01*
X79489771Y-42138313D01*
X79479794Y-42137442D01*
X79471119Y-42132434D01*
X79454983Y-42135279D01*
X79438662Y-42133856D01*
X79430458Y-42139603D01*
X79420595Y-42141343D01*
X79410063Y-42153893D01*
X79396646Y-42163295D01*
X79394056Y-42172969D01*
X79387618Y-42180643D01*
X79383095Y-42206295D01*
X79383095Y-43006295D01*
X79152142Y-43006295D01*
X79152142Y-42206295D01*
X79145478Y-42187986D01*
X79142094Y-42168795D01*
X79136909Y-42164444D01*
X79134595Y-42158086D01*
X79117721Y-42148343D01*
X79102794Y-42135818D01*
X79093051Y-42134100D01*
X79090166Y-42132434D01*
X79086883Y-42133012D01*
X79077142Y-42131295D01*
X78696190Y-42131295D01*
X78647981Y-42148842D01*
X78622329Y-42193271D01*
X78631238Y-42243795D01*
X78670538Y-42276772D01*
X78696190Y-42281295D01*
X79002142Y-42281295D01*
X79002142Y-42512247D01*
X78810476Y-42512247D01*
X78762267Y-42529794D01*
X78736615Y-42574223D01*
X78745524Y-42624747D01*
X78784824Y-42657724D01*
X78810476Y-42662247D01*
X79002142Y-42662247D01*
X79002142Y-42931295D01*
X78696190Y-42931295D01*
X78647981Y-42948842D01*
X78622329Y-42993271D01*
X78499130Y-42993271D01*
X78497497Y-42974599D01*
X78494825Y-42970784D01*
X78494475Y-42968795D01*
X78491948Y-42966674D01*
X78482556Y-42953262D01*
X78037932Y-42508638D01*
X78009285Y-42422696D01*
X78009285Y-42376380D01*
X78034019Y-42326911D01*
X78054901Y-42306029D01*
X78104371Y-42281295D01*
X78259437Y-42281295D01*
X78308905Y-42306029D01*
X78338396Y-42335519D01*
X78384892Y-42357199D01*
X78434447Y-42343921D01*
X78463873Y-42301895D01*
X78459401Y-42250788D01*
X78444460Y-42229451D01*
X78406364Y-42191356D01*
X78404881Y-42190664D01*
X78386873Y-42177308D01*
X78310683Y-42139213D01*
X78306229Y-42138700D01*
X78302794Y-42135818D01*
X78277142Y-42131295D01*
X78086666Y-42131295D01*
X78082453Y-42132828D01*
X78078092Y-42131786D01*
X78053125Y-42139213D01*
X77976934Y-42177308D01*
X77975808Y-42178497D01*
X77957442Y-42191357D01*
X77919347Y-42229452D01*
X77918656Y-42230933D01*
X77905298Y-42248944D01*
X77867203Y-42325135D01*
X77866690Y-42329588D01*
X77863808Y-42333024D01*
X77859285Y-42358676D01*
X77859285Y-42434866D01*
X77694328Y-42434866D01*
X77696604Y-42430313D01*
X77697116Y-42425859D01*
X77700000Y-42422423D01*
X77704523Y-42396771D01*
X77704523Y-42358676D01*
X77702989Y-42354462D01*
X77704031Y-42350101D01*
X77696605Y-42325134D01*
X77658509Y-42248944D01*
X77657319Y-42247818D01*
X77644460Y-42229452D01*
X77606365Y-42191357D01*
X77604883Y-42190666D01*
X77586873Y-42177308D01*
X77510683Y-42139213D01*
X77506229Y-42138700D01*
X77502794Y-42135818D01*
X77477142Y-42131295D01*
X77324761Y-42131295D01*
X77320548Y-42132828D01*
X77316187Y-42131786D01*
X77291220Y-42139213D01*
X77215029Y-42177308D01*
X77213903Y-42178497D01*
X77195537Y-42191357D01*
X77157442Y-42229452D01*
X77156751Y-42230933D01*
X77143393Y-42248944D01*
X77105298Y-42325135D01*
X77104785Y-42329588D01*
X77101903Y-42333024D01*
X77097380Y-42358676D01*
X77097380Y-42396771D01*
X77098913Y-42400984D01*
X77097872Y-42405345D01*
X77105298Y-42430312D01*
X77143393Y-42506502D01*
X77144581Y-42507627D01*
X77157441Y-42525993D01*
X77180599Y-42549151D01*
X77157442Y-42572309D01*
X77156751Y-42573790D01*
X77143393Y-42591801D01*
X77105298Y-42667992D01*
X77104785Y-42672445D01*
X77101903Y-42675881D01*
X77097380Y-42701533D01*
X77097380Y-42853914D01*
X76906831Y-42853914D01*
X76940379Y-42719723D01*
X76940018Y-42716274D01*
X76942618Y-42701533D01*
X76942618Y-42511057D01*
X76941432Y-42507799D01*
X76940379Y-42492867D01*
X76902283Y-42340485D01*
X76900294Y-42337541D01*
X76896604Y-42325135D01*
X76858509Y-42248944D01*
X76857319Y-42247818D01*
X76844460Y-42229452D01*
X76806365Y-42191357D01*
X76804883Y-42190666D01*
X76786873Y-42177308D01*
X76710682Y-42139213D01*
X76706228Y-42138700D01*
X76702793Y-42135818D01*
X76677141Y-42131295D01*
X76600951Y-42131295D01*
X76596738Y-42132828D01*
X76592377Y-42131786D01*
X76567410Y-42139213D01*
X76491219Y-42177308D01*
X76490093Y-42178497D01*
X76471727Y-42191357D01*
X76433632Y-42229452D01*
X76432941Y-42230933D01*
X76419583Y-42248944D01*
X76381488Y-42325135D01*
X76381081Y-42328663D01*
X76375809Y-42340486D01*
X76337714Y-42492867D01*
X76338074Y-42496315D01*
X76335475Y-42511057D01*
X76335475Y-42701533D01*
X73044086Y-42701533D01*
X73044086Y-41694578D01*
X73158372Y-41694578D01*
X73159773Y-41745862D01*
X73193810Y-41784247D01*
X73244559Y-41791772D01*
X73288272Y-41764917D01*
X73300674Y-41742012D01*
X73359770Y-41564723D01*
X73632609Y-41564723D01*
X73691705Y-41742012D01*
X73723596Y-41782198D01*
X73773857Y-41792484D01*
X73818971Y-41768055D01*
X73837828Y-41720344D01*
X73834007Y-41694578D01*
X73727627Y-41375438D01*
X73916427Y-41375438D01*
X73917612Y-41378695D01*
X73918666Y-41393629D01*
X73956762Y-41546010D01*
X73958751Y-41548955D01*
X73962441Y-41561360D01*
X74000536Y-41637550D01*
X74001722Y-41638673D01*
X74014585Y-41657042D01*
X74090775Y-41733233D01*
X74094838Y-41735127D01*
X74097186Y-41738949D01*
X74120091Y-41751351D01*
X74234377Y-41789446D01*
X74236011Y-41789401D01*
X74258094Y-41793295D01*
X74448570Y-41793295D01*
X74466878Y-41786631D01*
X74486070Y-41783247D01*
X74490420Y-41778062D01*
X74496779Y-41775748D01*
X74506521Y-41758874D01*
X74519047Y-41743947D01*
X74520764Y-41734204D01*
X74522431Y-41731319D01*
X74521852Y-41728036D01*
X74523570Y-41718295D01*
X74523570Y-41565914D01*
X74716428Y-41565914D01*
X74717961Y-41570127D01*
X74716920Y-41574488D01*
X74724346Y-41599455D01*
X74762441Y-41675645D01*
X74763629Y-41676770D01*
X74776489Y-41695136D01*
X74814584Y-41733232D01*
X74816065Y-41733922D01*
X74834077Y-41747282D01*
X74910268Y-41785377D01*
X74914721Y-41785889D01*
X74918157Y-41788772D01*
X74943809Y-41793295D01*
X75134285Y-41793295D01*
X75135823Y-41792734D01*
X75158002Y-41789446D01*
X75272288Y-41751351D01*
X75312474Y-41719460D01*
X75315378Y-41705271D01*
X76012805Y-41705271D01*
X76021714Y-41755795D01*
X76061014Y-41788772D01*
X76086666Y-41793295D01*
X76467618Y-41793295D01*
X76485926Y-41786631D01*
X76505118Y-41783247D01*
X76509468Y-41778062D01*
X76515827Y-41775748D01*
X76525569Y-41758874D01*
X76538095Y-41743947D01*
X76539812Y-41734204D01*
X76541479Y-41731319D01*
X76540900Y-41728036D01*
X76542618Y-41718295D01*
X76542618Y-40987948D01*
X76735761Y-40987948D01*
X76749037Y-41037502D01*
X76791063Y-41066929D01*
X76842170Y-41062459D01*
X76863507Y-41047519D01*
X76889084Y-41021942D01*
X76975026Y-40993295D01*
X77026877Y-40993295D01*
X77112819Y-41021942D01*
X77167883Y-41077006D01*
X77196853Y-41134945D01*
X77230714Y-41270387D01*
X77230714Y-41366202D01*
X77196853Y-41501643D01*
X77167883Y-41559582D01*
X77112818Y-41614648D01*
X77026877Y-41643295D01*
X76975026Y-41643295D01*
X76889085Y-41614648D01*
X76863508Y-41589071D01*
X76817011Y-41567390D01*
X76767457Y-41580667D01*
X76738030Y-41622693D01*
X76742502Y-41673800D01*
X76757442Y-41695137D01*
X76795538Y-41733233D01*
X76799602Y-41735128D01*
X76801949Y-41738948D01*
X76824854Y-41751351D01*
X76939139Y-41789446D01*
X76940773Y-41789401D01*
X76962856Y-41793295D01*
X77039047Y-41793295D01*
X77040585Y-41792734D01*
X77062764Y-41789446D01*
X77177050Y-41751351D01*
X77180561Y-41748563D01*
X77185030Y-41748173D01*
X77206366Y-41733233D01*
X77282557Y-41657041D01*
X77283248Y-41655558D01*
X77296605Y-41637550D01*
X77332423Y-41565914D01*
X77535476Y-41565914D01*
X77537009Y-41570127D01*
X77535968Y-41574488D01*
X77543394Y-41599455D01*
X77581489Y-41675645D01*
X77582677Y-41676770D01*
X77595537Y-41695136D01*
X77633632Y-41733232D01*
X77635113Y-41733922D01*
X77653125Y-41747282D01*
X77729316Y-41785377D01*
X77733769Y-41785889D01*
X77737205Y-41788772D01*
X77762857Y-41793295D01*
X77953333Y-41793295D01*
X77954871Y-41792734D01*
X77977050Y-41789446D01*
X78091336Y-41751351D01*
X78131522Y-41719460D01*
X78141808Y-41669199D01*
X78117380Y-41624085D01*
X78069668Y-41605228D01*
X78043902Y-41609049D01*
X77941163Y-41643295D01*
X77780562Y-41643295D01*
X77731093Y-41618561D01*
X77710210Y-41597677D01*
X77685476Y-41548209D01*
X77685476Y-41507428D01*
X77710210Y-41457960D01*
X77731093Y-41437076D01*
X77789033Y-41408106D01*
X77919708Y-41375438D01*
X78906904Y-41375438D01*
X78908089Y-41378695D01*
X78909143Y-41393629D01*
X78947239Y-41546010D01*
X78949228Y-41548955D01*
X78952918Y-41561360D01*
X78991013Y-41637550D01*
X78992199Y-41638673D01*
X79005062Y-41657042D01*
X79081252Y-41733233D01*
X79085315Y-41735127D01*
X79087663Y-41738949D01*
X79110568Y-41751351D01*
X79224854Y-41789446D01*
X79226488Y-41789401D01*
X79248571Y-41793295D01*
X79439047Y-41793295D01*
X79457355Y-41786631D01*
X79476547Y-41783247D01*
X79480897Y-41778062D01*
X79487256Y-41775748D01*
X79496998Y-41758874D01*
X79509524Y-41743947D01*
X79511241Y-41734204D01*
X79512908Y-41731319D01*
X79512329Y-41728036D01*
X79514047Y-41718295D01*
X79744999Y-41718295D01*
X79747370Y-41724811D01*
X79746197Y-41731647D01*
X79755936Y-41748344D01*
X79762546Y-41766504D01*
X79768551Y-41769971D01*
X79772046Y-41775963D01*
X79790237Y-41782492D01*
X79806975Y-41792156D01*
X79813806Y-41790951D01*
X79820333Y-41793294D01*
X79838464Y-41786603D01*
X79857499Y-41783247D01*
X79861956Y-41777934D01*
X79868463Y-41775534D01*
X79885117Y-41755505D01*
X80202142Y-41200711D01*
X80202142Y-41718295D01*
X80219689Y-41766504D01*
X80264118Y-41792156D01*
X80314642Y-41783247D01*
X80347619Y-41743947D01*
X80352142Y-41718295D01*
X80352142Y-41642104D01*
X80544999Y-41642104D01*
X80550598Y-41657488D01*
X80552026Y-41673800D01*
X80561417Y-41687212D01*
X80562546Y-41690313D01*
X80564295Y-41691323D01*
X80566966Y-41695137D01*
X80605062Y-41733233D01*
X80609126Y-41735128D01*
X80611473Y-41738948D01*
X80634378Y-41751351D01*
X80748663Y-41789446D01*
X80750297Y-41789401D01*
X80772380Y-41793295D01*
X80848571Y-41793295D01*
X80850109Y-41792734D01*
X80872288Y-41789446D01*
X80986574Y-41751351D01*
X80990085Y-41748563D01*
X80994554Y-41748173D01*
X81015890Y-41733233D01*
X81092081Y-41657041D01*
X81092772Y-41655558D01*
X81106129Y-41637550D01*
X81141947Y-41565914D01*
X81954524Y-41565914D01*
X81956057Y-41570127D01*
X81955016Y-41574488D01*
X81962442Y-41599455D01*
X82000537Y-41675645D01*
X82001725Y-41676770D01*
X82014585Y-41695136D01*
X82052680Y-41733232D01*
X82054161Y-41733922D01*
X82072173Y-41747282D01*
X82148364Y-41785377D01*
X82152817Y-41785889D01*
X82156253Y-41788772D01*
X82181905Y-41793295D01*
X82410476Y-41793295D01*
X82414688Y-41791761D01*
X82419050Y-41792804D01*
X82444017Y-41785377D01*
X82520208Y-41747282D01*
X82521332Y-41746094D01*
X82539701Y-41733232D01*
X82577796Y-41695136D01*
X82599476Y-41648640D01*
X82586198Y-41599085D01*
X82544172Y-41569659D01*
X82493065Y-41574131D01*
X82471728Y-41589072D01*
X82442239Y-41618561D01*
X82392771Y-41643295D01*
X82199610Y-41643295D01*
X82150141Y-41618561D01*
X82129258Y-41597677D01*
X82104524Y-41548209D01*
X82104524Y-41393142D01*
X82129258Y-41343673D01*
X82150140Y-41322791D01*
X82199610Y-41298057D01*
X82296190Y-41298057D01*
X82315186Y-41291142D01*
X82335026Y-41287220D01*
X82338777Y-41282555D01*
X82344399Y-41280510D01*
X82354507Y-41263002D01*
X82367183Y-41247245D01*
X82367059Y-41241262D01*
X82370051Y-41236081D01*
X82366540Y-41216170D01*
X82366122Y-41195953D01*
X82361681Y-41188617D01*
X82361142Y-41185557D01*
X82358474Y-41183318D01*
X82352634Y-41173670D01*
X82194806Y-40993295D01*
X82524762Y-40993295D01*
X82572971Y-40975748D01*
X82598623Y-40931319D01*
X82595965Y-40916246D01*
X82640266Y-40916246D01*
X82644087Y-40942012D01*
X82910753Y-41742012D01*
X82912095Y-41743703D01*
X82912154Y-41745862D01*
X82927903Y-41763623D01*
X82942644Y-41782198D01*
X82944757Y-41782630D01*
X82946191Y-41784247D01*
X82969661Y-41787727D01*
X82992905Y-41792484D01*
X82994804Y-41791455D01*
X82996940Y-41791772D01*
X83017146Y-41779357D01*
X83038019Y-41768056D01*
X83038813Y-41766046D01*
X83040652Y-41764917D01*
X83053055Y-41742012D01*
X83111754Y-41565914D01*
X83402143Y-41565914D01*
X83403676Y-41570127D01*
X83402635Y-41574488D01*
X83410061Y-41599455D01*
X83448156Y-41675645D01*
X83449344Y-41676770D01*
X83462204Y-41695136D01*
X83500299Y-41733232D01*
X83501780Y-41733922D01*
X83519792Y-41747282D01*
X83595983Y-41785377D01*
X83600436Y-41785889D01*
X83603872Y-41788772D01*
X83629524Y-41793295D01*
X83858095Y-41793295D01*
X83862307Y-41791761D01*
X83866669Y-41792804D01*
X83891636Y-41785377D01*
X83967827Y-41747282D01*
X83968951Y-41746094D01*
X83987320Y-41733232D01*
X84025415Y-41695136D01*
X84047095Y-41648640D01*
X84033817Y-41599085D01*
X83991791Y-41569659D01*
X83940684Y-41574131D01*
X83919347Y-41589072D01*
X83889858Y-41618561D01*
X83840390Y-41643295D01*
X83647229Y-41643295D01*
X83597760Y-41618561D01*
X83576877Y-41597677D01*
X83552143Y-41548209D01*
X83552143Y-41393142D01*
X83576877Y-41343673D01*
X83597759Y-41322791D01*
X83647229Y-41298057D01*
X83743809Y-41298057D01*
X83762805Y-41291142D01*
X83782645Y-41287220D01*
X83786396Y-41282555D01*
X83792018Y-41280510D01*
X83802126Y-41263002D01*
X83814802Y-41247245D01*
X83814678Y-41241262D01*
X83817670Y-41236081D01*
X83814159Y-41216170D01*
X83813741Y-41195953D01*
X83809300Y-41188617D01*
X83808761Y-41185557D01*
X83806093Y-41183318D01*
X83800253Y-41173670D01*
X83642425Y-40993295D01*
X83972381Y-40993295D01*
X84020590Y-40975748D01*
X84046242Y-40931319D01*
X84037333Y-40880795D01*
X83998033Y-40847818D01*
X83972381Y-40843295D01*
X83477143Y-40843295D01*
X83458143Y-40850210D01*
X83438307Y-40854133D01*
X83434556Y-40858795D01*
X83428934Y-40860842D01*
X83418824Y-40878351D01*
X83406150Y-40894107D01*
X83406273Y-40900089D01*
X83403282Y-40905271D01*
X83406793Y-40925184D01*
X83407212Y-40945399D01*
X83411651Y-40952732D01*
X83412191Y-40955795D01*
X83414860Y-40958034D01*
X83420700Y-40967683D01*
X83588659Y-41159636D01*
X83519792Y-41194070D01*
X83518666Y-41195259D01*
X83500300Y-41208119D01*
X83462205Y-41246214D01*
X83461514Y-41247695D01*
X83448156Y-41265706D01*
X83410061Y-41341897D01*
X83409548Y-41346350D01*
X83406666Y-41349786D01*
X83402143Y-41375438D01*
X83402143Y-41565914D01*
X83111754Y-41565914D01*
X83319722Y-40942012D01*
X83318321Y-40890728D01*
X83284284Y-40852343D01*
X83233535Y-40844818D01*
X83189822Y-40871673D01*
X83177420Y-40894578D01*
X82981904Y-41481124D01*
X82786389Y-40894578D01*
X82754498Y-40854392D01*
X82704237Y-40844106D01*
X82659123Y-40868535D01*
X82640266Y-40916246D01*
X82595965Y-40916246D01*
X82589714Y-40880795D01*
X82550414Y-40847818D01*
X82524762Y-40843295D01*
X82029524Y-40843295D01*
X82010524Y-40850210D01*
X81990688Y-40854133D01*
X81986937Y-40858795D01*
X81981315Y-40860842D01*
X81971205Y-40878351D01*
X81958531Y-40894107D01*
X81958654Y-40900089D01*
X81955663Y-40905271D01*
X81959174Y-40925184D01*
X81959593Y-40945399D01*
X81964032Y-40952732D01*
X81964572Y-40955795D01*
X81967241Y-40958034D01*
X81973081Y-40967683D01*
X82141040Y-41159636D01*
X82072173Y-41194070D01*
X82071047Y-41195259D01*
X82052681Y-41208119D01*
X82014586Y-41246214D01*
X82013895Y-41247695D01*
X82000537Y-41265706D01*
X81962442Y-41341897D01*
X81961929Y-41346350D01*
X81959047Y-41349786D01*
X81954524Y-41375438D01*
X81954524Y-41565914D01*
X81141947Y-41565914D01*
X81144224Y-41561360D01*
X81144629Y-41557833D01*
X81149903Y-41546010D01*
X81187999Y-41393628D01*
X81187638Y-41390179D01*
X81190238Y-41375438D01*
X81190238Y-41261152D01*
X81189052Y-41257894D01*
X81187999Y-41242962D01*
X81149903Y-41090580D01*
X81147914Y-41087636D01*
X81144224Y-41075230D01*
X81106129Y-40999039D01*
X81104942Y-40997915D01*
X81092080Y-40979547D01*
X81015890Y-40903357D01*
X81011826Y-40901462D01*
X81009479Y-40897641D01*
X80986574Y-40885239D01*
X80872288Y-40847144D01*
X80870653Y-40847188D01*
X80848571Y-40843295D01*
X80734285Y-40843295D01*
X80730071Y-40844828D01*
X80725711Y-40843787D01*
X80700744Y-40851213D01*
X80624554Y-40889308D01*
X80589282Y-40926562D01*
X80586207Y-40977773D01*
X80616771Y-41018978D01*
X80666669Y-41030898D01*
X80691636Y-41023472D01*
X80751990Y-40993295D01*
X80836401Y-40993295D01*
X80922343Y-41021942D01*
X80977407Y-41077006D01*
X81006377Y-41134945D01*
X81040238Y-41270387D01*
X81040238Y-41366202D01*
X81006377Y-41501643D01*
X80977407Y-41559582D01*
X80922342Y-41614648D01*
X80836401Y-41643295D01*
X80784550Y-41643295D01*
X80698609Y-41614648D01*
X80694999Y-41611038D01*
X80694999Y-41450438D01*
X80772380Y-41450438D01*
X80820589Y-41432891D01*
X80846241Y-41388462D01*
X80837332Y-41337938D01*
X80798032Y-41304961D01*
X80772380Y-41300438D01*
X80619999Y-41300438D01*
X80601690Y-41307101D01*
X80582499Y-41310486D01*
X80578148Y-41315670D01*
X80571790Y-41317985D01*
X80562047Y-41334858D01*
X80549522Y-41349786D01*
X80547804Y-41359528D01*
X80546138Y-41362414D01*
X80546716Y-41365696D01*
X80544999Y-41375438D01*
X80544999Y-41642104D01*
X80352142Y-41642104D01*
X80352142Y-40918295D01*
X80349770Y-40911778D01*
X80350944Y-40904943D01*
X80341204Y-40888245D01*
X80334595Y-40870086D01*
X80328589Y-40866618D01*
X80325095Y-40860627D01*
X80306903Y-40854097D01*
X80290166Y-40844434D01*
X80283334Y-40845638D01*
X80276808Y-40843296D01*
X80258676Y-40849986D01*
X80239642Y-40853343D01*
X80235184Y-40858655D01*
X80228678Y-40861056D01*
X80212024Y-40881085D01*
X79894999Y-41435878D01*
X79894999Y-40918295D01*
X79877452Y-40870086D01*
X79833023Y-40844434D01*
X79782499Y-40853343D01*
X79749522Y-40892643D01*
X79744999Y-40918295D01*
X79744999Y-41718295D01*
X79514047Y-41718295D01*
X79514047Y-40918295D01*
X79507383Y-40899986D01*
X79503999Y-40880795D01*
X79498814Y-40876444D01*
X79496500Y-40870086D01*
X79479626Y-40860343D01*
X79464699Y-40847818D01*
X79454956Y-40846100D01*
X79452071Y-40844434D01*
X79448788Y-40845012D01*
X79439047Y-40843295D01*
X79248571Y-40843295D01*
X79247032Y-40843855D01*
X79224854Y-40847144D01*
X79110568Y-40885239D01*
X79107057Y-40888025D01*
X79102589Y-40888416D01*
X79081252Y-40903357D01*
X79005062Y-40979547D01*
X79004371Y-40981028D01*
X78991013Y-40999039D01*
X78952918Y-41075230D01*
X78952512Y-41078756D01*
X78947239Y-41090580D01*
X78909143Y-41242961D01*
X78909503Y-41246409D01*
X78906904Y-41261152D01*
X78906904Y-41375438D01*
X77919708Y-41375438D01*
X77933428Y-41372008D01*
X77936372Y-41370019D01*
X77948779Y-41366329D01*
X78024969Y-41328234D01*
X78026094Y-41327044D01*
X78044461Y-41314185D01*
X78082556Y-41276090D01*
X78083248Y-41274604D01*
X78096605Y-41256598D01*
X78134701Y-41180408D01*
X78135213Y-41175953D01*
X78138096Y-41172518D01*
X78142619Y-41146866D01*
X78142619Y-41070676D01*
X78141085Y-41066462D01*
X78142127Y-41062101D01*
X78134701Y-41037134D01*
X78096605Y-40960944D01*
X78095415Y-40959818D01*
X78082556Y-40941452D01*
X78044461Y-40903357D01*
X78042979Y-40902666D01*
X78024969Y-40889308D01*
X77948779Y-40851213D01*
X77944325Y-40850700D01*
X77940890Y-40847818D01*
X77915238Y-40843295D01*
X77724761Y-40843295D01*
X77723222Y-40843855D01*
X77701044Y-40847144D01*
X77586759Y-40885239D01*
X77546573Y-40917130D01*
X77536287Y-40967391D01*
X77560716Y-41012505D01*
X77608427Y-41031362D01*
X77634193Y-41027541D01*
X77736931Y-40993295D01*
X77897533Y-40993295D01*
X77947001Y-41018029D01*
X77967884Y-41038912D01*
X77992619Y-41088381D01*
X77992619Y-41129160D01*
X77967884Y-41178629D01*
X77947001Y-41199513D01*
X77889062Y-41228482D01*
X77744667Y-41264581D01*
X77741723Y-41266569D01*
X77729315Y-41270260D01*
X77653125Y-41308356D01*
X77651999Y-41309545D01*
X77633633Y-41322405D01*
X77595538Y-41360500D01*
X77594847Y-41361981D01*
X77581489Y-41379992D01*
X77543394Y-41456182D01*
X77542881Y-41460635D01*
X77539999Y-41464071D01*
X77535476Y-41489723D01*
X77535476Y-41565914D01*
X77332423Y-41565914D01*
X77334700Y-41561360D01*
X77335105Y-41557833D01*
X77340379Y-41546010D01*
X77378475Y-41393628D01*
X77378114Y-41390179D01*
X77380714Y-41375438D01*
X77380714Y-41261152D01*
X77379528Y-41257894D01*
X77378475Y-41242962D01*
X77340379Y-41090580D01*
X77338390Y-41087636D01*
X77334700Y-41075230D01*
X77296605Y-40999039D01*
X77295418Y-40997915D01*
X77282556Y-40979547D01*
X77206366Y-40903357D01*
X77202302Y-40901462D01*
X77199955Y-40897641D01*
X77177050Y-40885239D01*
X77062764Y-40847144D01*
X77061129Y-40847188D01*
X77039047Y-40843295D01*
X76962856Y-40843295D01*
X76961317Y-40843855D01*
X76939139Y-40847144D01*
X76824854Y-40885239D01*
X76821342Y-40888025D01*
X76816876Y-40888416D01*
X76795539Y-40903356D01*
X76757443Y-40941451D01*
X76735761Y-40987948D01*
X76542618Y-40987948D01*
X76542618Y-40918295D01*
X76525071Y-40870086D01*
X76480642Y-40844434D01*
X76430118Y-40853343D01*
X76397141Y-40892643D01*
X76392618Y-40918295D01*
X76392618Y-41643295D01*
X76086666Y-41643295D01*
X76038457Y-41660842D01*
X76012805Y-41705271D01*
X75315378Y-41705271D01*
X75322760Y-41669199D01*
X75298332Y-41624085D01*
X75250620Y-41605228D01*
X75224854Y-41609049D01*
X75122115Y-41643295D01*
X74961514Y-41643295D01*
X74912045Y-41618561D01*
X74891162Y-41597677D01*
X74866428Y-41548209D01*
X74866428Y-41507428D01*
X74891162Y-41457960D01*
X74912045Y-41437076D01*
X74969985Y-41408106D01*
X75114380Y-41372008D01*
X75117324Y-41370019D01*
X75129731Y-41366329D01*
X75205921Y-41328234D01*
X75207046Y-41327044D01*
X75225413Y-41314185D01*
X75263508Y-41276090D01*
X75264200Y-41274604D01*
X75277557Y-41256598D01*
X75315653Y-41180408D01*
X75316165Y-41175953D01*
X75319048Y-41172518D01*
X75323571Y-41146866D01*
X75323571Y-41070676D01*
X75322037Y-41066462D01*
X75323079Y-41062101D01*
X75315653Y-41037134D01*
X75277557Y-40960944D01*
X75276367Y-40959818D01*
X75263508Y-40941452D01*
X75225413Y-40903357D01*
X75223931Y-40902666D01*
X75205921Y-40889308D01*
X75129731Y-40851213D01*
X75125277Y-40850700D01*
X75121842Y-40847818D01*
X75096190Y-40843295D01*
X74905713Y-40843295D01*
X74904174Y-40843855D01*
X74881996Y-40847144D01*
X74767711Y-40885239D01*
X74727525Y-40917130D01*
X74717239Y-40967391D01*
X74741668Y-41012505D01*
X74789379Y-41031362D01*
X74815145Y-41027541D01*
X74917883Y-40993295D01*
X75078485Y-40993295D01*
X75127953Y-41018029D01*
X75148836Y-41038912D01*
X75173571Y-41088381D01*
X75173571Y-41129160D01*
X75148836Y-41178629D01*
X75127953Y-41199513D01*
X75070014Y-41228482D01*
X74925619Y-41264581D01*
X74922675Y-41266569D01*
X74910267Y-41270260D01*
X74834077Y-41308356D01*
X74832951Y-41309545D01*
X74814585Y-41322405D01*
X74776490Y-41360500D01*
X74775799Y-41361981D01*
X74762441Y-41379992D01*
X74724346Y-41456182D01*
X74723833Y-41460635D01*
X74720951Y-41464071D01*
X74716428Y-41489723D01*
X74716428Y-41565914D01*
X74523570Y-41565914D01*
X74523570Y-40918295D01*
X74516906Y-40899986D01*
X74513522Y-40880795D01*
X74508337Y-40876444D01*
X74506023Y-40870086D01*
X74489149Y-40860343D01*
X74474222Y-40847818D01*
X74464479Y-40846100D01*
X74461594Y-40844434D01*
X74458311Y-40845012D01*
X74448570Y-40843295D01*
X74258094Y-40843295D01*
X74256555Y-40843855D01*
X74234377Y-40847144D01*
X74120091Y-40885239D01*
X74116580Y-40888025D01*
X74112112Y-40888416D01*
X74090775Y-40903357D01*
X74014585Y-40979547D01*
X74013894Y-40981028D01*
X74000536Y-40999039D01*
X73962441Y-41075230D01*
X73962035Y-41078756D01*
X73956762Y-41090580D01*
X73918666Y-41242961D01*
X73919026Y-41246409D01*
X73916427Y-41261152D01*
X73916427Y-41375438D01*
X73727627Y-41375438D01*
X73567340Y-40894578D01*
X73565997Y-40892886D01*
X73565939Y-40890728D01*
X73550189Y-40872966D01*
X73535449Y-40854392D01*
X73533335Y-40853959D01*
X73531902Y-40852343D01*
X73508423Y-40848861D01*
X73485188Y-40844106D01*
X73483289Y-40845133D01*
X73481153Y-40844817D01*
X73460925Y-40857244D01*
X73440074Y-40868535D01*
X73439280Y-40870541D01*
X73437441Y-40871672D01*
X73425038Y-40894578D01*
X73158372Y-41694578D01*
X73044086Y-41694578D01*
X73044086Y-40729009D01*
X84161381Y-40729009D01*
X84161381Y-43195581D01*
G37*
D11*
X41071427Y2947642D02*
X40357142Y2947642D01*
X41214284Y2519071D02*
X40714284Y4019071D01*
X40714284Y4019071D02*
X40214284Y2519071D01*
X39071428Y3519071D02*
X39071428Y2519071D01*
X39428570Y4090500D02*
X39785713Y3019071D01*
X39785713Y3019071D02*
X38857142Y3019071D01*
D12*
G36*
X72502723Y-35310228D02*
G01*
X72243465Y-35223809D01*
X72502723Y-35137390D01*
X72502723Y-35310228D01*
G37*
G36*
X72731295Y-34449735D02*
G01*
X72702648Y-34535676D01*
X72647582Y-34590741D01*
X72589642Y-34619711D01*
X72454203Y-34653572D01*
X72358387Y-34653572D01*
X72222945Y-34619711D01*
X72165006Y-34590741D01*
X72109942Y-34535677D01*
X72081295Y-34449735D01*
X72081295Y-34346429D01*
X72731295Y-34346429D01*
X72731295Y-34449735D01*
G37*
G36*
X71339737Y-31542193D02*
G01*
X71397677Y-31571163D01*
X71418561Y-31592046D01*
X71443295Y-31641514D01*
X71443295Y-31682295D01*
X71418561Y-31731763D01*
X71397677Y-31752646D01*
X71339738Y-31781616D01*
X71204299Y-31815476D01*
X71032291Y-31815476D01*
X70896851Y-31781616D01*
X70838911Y-31752646D01*
X70818029Y-31731764D01*
X70793295Y-31682295D01*
X70793295Y-31641514D01*
X70818029Y-31592045D01*
X70838911Y-31571163D01*
X70896850Y-31542193D01*
X71032292Y-31508333D01*
X71204298Y-31508333D01*
X71339737Y-31542193D01*
G37*
G36*
X71443295Y-30087830D02*
G01*
X71414648Y-30173771D01*
X71359582Y-30228836D01*
X71301642Y-30257806D01*
X71166203Y-30291667D01*
X71070387Y-30291667D01*
X70934945Y-30257806D01*
X70877006Y-30228836D01*
X70821942Y-30173772D01*
X70793295Y-30087830D01*
X70793295Y-29984524D01*
X71443295Y-29984524D01*
X71443295Y-30087830D01*
G37*
G36*
X72731295Y-26640210D02*
G01*
X72702648Y-26726151D01*
X72647582Y-26781216D01*
X72589642Y-26810186D01*
X72454203Y-26844047D01*
X72358387Y-26844047D01*
X72222945Y-26810186D01*
X72165006Y-26781216D01*
X72109942Y-26726152D01*
X72081295Y-26640210D01*
X72081295Y-26536904D01*
X72731295Y-26536904D01*
X72731295Y-26640210D01*
G37*
G36*
X72995581Y-35675913D02*
G01*
X70491725Y-35675913D01*
X70491725Y-35234811D01*
X71932106Y-35234811D01*
X71933134Y-35236710D01*
X71932818Y-35238846D01*
X71945238Y-35259063D01*
X71956535Y-35279925D01*
X71958542Y-35280718D01*
X71959673Y-35282559D01*
X71982578Y-35294961D01*
X72782578Y-35561627D01*
X72833862Y-35560226D01*
X72872247Y-35526189D01*
X72879773Y-35475440D01*
X72852918Y-35431728D01*
X72830012Y-35419325D01*
X72652723Y-35360228D01*
X72652723Y-35087390D01*
X72830012Y-35028294D01*
X72870198Y-34996403D01*
X72880484Y-34946142D01*
X72856055Y-34901028D01*
X72808344Y-34882171D01*
X72782578Y-34885992D01*
X71982578Y-35152659D01*
X71980886Y-35154001D01*
X71978728Y-35154060D01*
X71960966Y-35169809D01*
X71942392Y-35184550D01*
X71941959Y-35186663D01*
X71940343Y-35188097D01*
X71936862Y-35211567D01*
X71932106Y-35234811D01*
X70491725Y-35234811D01*
X70491725Y-34461905D01*
X71931295Y-34461905D01*
X71931855Y-34463443D01*
X71935144Y-34485622D01*
X71973239Y-34599908D01*
X71976026Y-34603420D01*
X71976417Y-34607887D01*
X71991357Y-34629224D01*
X72067547Y-34705414D01*
X72069028Y-34706104D01*
X72087039Y-34719463D01*
X72163230Y-34757558D01*
X72166756Y-34757963D01*
X72178580Y-34763237D01*
X72330962Y-34801333D01*
X72334410Y-34800972D01*
X72349152Y-34803572D01*
X72463438Y-34803572D01*
X72466695Y-34802386D01*
X72481629Y-34801333D01*
X72634010Y-34763237D01*
X72636955Y-34761247D01*
X72649360Y-34757558D01*
X72725550Y-34719463D01*
X72726673Y-34718276D01*
X72745042Y-34705414D01*
X72821233Y-34629224D01*
X72823127Y-34625160D01*
X72826949Y-34622813D01*
X72839351Y-34599908D01*
X72877446Y-34485622D01*
X72877401Y-34483987D01*
X72881295Y-34461905D01*
X72881295Y-34271429D01*
X72874631Y-34253120D01*
X72871247Y-34233929D01*
X72866062Y-34229578D01*
X72863748Y-34223220D01*
X72846874Y-34213477D01*
X72831947Y-34200952D01*
X72822204Y-34199234D01*
X72819319Y-34197568D01*
X72816036Y-34198146D01*
X72806295Y-34196429D01*
X72006295Y-34196429D01*
X71987986Y-34203092D01*
X71968795Y-34206477D01*
X71964444Y-34211661D01*
X71958086Y-34213976D01*
X71948343Y-34230849D01*
X71935818Y-34245777D01*
X71934100Y-34255519D01*
X71932434Y-34258405D01*
X71933012Y-34261687D01*
X71931295Y-34271429D01*
X71931295Y-34461905D01*
X70491725Y-34461905D01*
X70491725Y-33814286D01*
X71931295Y-33814286D01*
X71931855Y-33815824D01*
X71935144Y-33838003D01*
X71973239Y-33952288D01*
X72005130Y-33992474D01*
X72055391Y-34002760D01*
X72100505Y-33978331D01*
X72119362Y-33930620D01*
X72115541Y-33904854D01*
X72081295Y-33802116D01*
X72081295Y-33641514D01*
X72106029Y-33592046D01*
X72126912Y-33571162D01*
X72176381Y-33546428D01*
X72217161Y-33546428D01*
X72266630Y-33571163D01*
X72287513Y-33592046D01*
X72316482Y-33649984D01*
X72352581Y-33794380D01*
X72354569Y-33797324D01*
X72358260Y-33809731D01*
X72396356Y-33885922D01*
X72397545Y-33887047D01*
X72410405Y-33905414D01*
X72448500Y-33943509D01*
X72449981Y-33944200D01*
X72467992Y-33957558D01*
X72544182Y-33995653D01*
X72548635Y-33996165D01*
X72552071Y-33999048D01*
X72577723Y-34003571D01*
X72653914Y-34003571D01*
X72658127Y-34002037D01*
X72662488Y-34003079D01*
X72687455Y-33995653D01*
X72763645Y-33957558D01*
X72764770Y-33956369D01*
X72783136Y-33943510D01*
X72821232Y-33905415D01*
X72821922Y-33903933D01*
X72835282Y-33885922D01*
X72873377Y-33809731D01*
X72873889Y-33805277D01*
X72876772Y-33801842D01*
X72881295Y-33776190D01*
X72881295Y-33585714D01*
X72880734Y-33584175D01*
X72877446Y-33561997D01*
X72839351Y-33447711D01*
X72807460Y-33407525D01*
X72757199Y-33397239D01*
X72712085Y-33421668D01*
X72693228Y-33469379D01*
X72697049Y-33495145D01*
X72731295Y-33597883D01*
X72731295Y-33758485D01*
X72706561Y-33807953D01*
X72685677Y-33828836D01*
X72636209Y-33853571D01*
X72595428Y-33853571D01*
X72545960Y-33828837D01*
X72525077Y-33807954D01*
X72496106Y-33750013D01*
X72460008Y-33605619D01*
X72458019Y-33602674D01*
X72454329Y-33590268D01*
X72416234Y-33514078D01*
X72415044Y-33512952D01*
X72402185Y-33494586D01*
X72364090Y-33456491D01*
X72362605Y-33455798D01*
X72344598Y-33442442D01*
X72268407Y-33404346D01*
X72263953Y-33403833D01*
X72260518Y-33400951D01*
X72234866Y-33396428D01*
X72158676Y-33396428D01*
X72154462Y-33397961D01*
X72150101Y-33396920D01*
X72125134Y-33404346D01*
X72048944Y-33442442D01*
X72047818Y-33443631D01*
X72029452Y-33456491D01*
X71991357Y-33494586D01*
X71990666Y-33496067D01*
X71977308Y-33514078D01*
X71939213Y-33590268D01*
X71938700Y-33594721D01*
X71935818Y-33598157D01*
X71931295Y-33623809D01*
X71931295Y-33814286D01*
X70491725Y-33814286D01*
X70491725Y-32239357D01*
X71932434Y-32239357D01*
X71941343Y-32289881D01*
X71980643Y-32322858D01*
X72006295Y-32327381D01*
X72731295Y-32327381D01*
X72731295Y-32633333D01*
X72748842Y-32681542D01*
X72793271Y-32707194D01*
X72843795Y-32698285D01*
X72876772Y-32658985D01*
X72881295Y-32633333D01*
X72881295Y-32252381D01*
X72874631Y-32234072D01*
X72871247Y-32214881D01*
X72866062Y-32210530D01*
X72863748Y-32204172D01*
X72846874Y-32194429D01*
X72831947Y-32181904D01*
X72822204Y-32180186D01*
X72819319Y-32178520D01*
X72816036Y-32179098D01*
X72806295Y-32177381D01*
X72006295Y-32177381D01*
X71958086Y-32194928D01*
X71932434Y-32239357D01*
X70491725Y-32239357D01*
X70491725Y-31700000D01*
X70643295Y-31700000D01*
X70644828Y-31704212D01*
X70643786Y-31708574D01*
X70651213Y-31733541D01*
X70689308Y-31809732D01*
X70690497Y-31810857D01*
X70703357Y-31829224D01*
X70741452Y-31867319D01*
X70742933Y-31868010D01*
X70760944Y-31881368D01*
X70837135Y-31919463D01*
X70840663Y-31919869D01*
X70852486Y-31925142D01*
X71004867Y-31963237D01*
X71008315Y-31962876D01*
X71023057Y-31965476D01*
X71213533Y-31965476D01*
X71216790Y-31964290D01*
X71231723Y-31963237D01*
X71384104Y-31925142D01*
X71387048Y-31923153D01*
X71399455Y-31919463D01*
X71475645Y-31881368D01*
X71476770Y-31880179D01*
X71495136Y-31867320D01*
X71533232Y-31829225D01*
X71533922Y-31827743D01*
X71547282Y-31809732D01*
X71573576Y-31757143D01*
X71931295Y-31757143D01*
X71931855Y-31758681D01*
X71935144Y-31780860D01*
X71973239Y-31895145D01*
X71976025Y-31898656D01*
X71976416Y-31903123D01*
X71991356Y-31924460D01*
X72029451Y-31962556D01*
X72075947Y-31984238D01*
X72125502Y-31970961D01*
X72154929Y-31928936D01*
X72150459Y-31877829D01*
X72135519Y-31856492D01*
X72109942Y-31830914D01*
X72081295Y-31744973D01*
X72081295Y-31693121D01*
X72109942Y-31607179D01*
X72165006Y-31552115D01*
X72222945Y-31523145D01*
X72358387Y-31489285D01*
X72454203Y-31489285D01*
X72589642Y-31523145D01*
X72647582Y-31552115D01*
X72702648Y-31607180D01*
X72731295Y-31693121D01*
X72731295Y-31744973D01*
X72702648Y-31830914D01*
X72677071Y-31856491D01*
X72655390Y-31902988D01*
X72668667Y-31952542D01*
X72710693Y-31981969D01*
X72761800Y-31977497D01*
X72783137Y-31962557D01*
X72821233Y-31924461D01*
X72823128Y-31920396D01*
X72826948Y-31918050D01*
X72839351Y-31895145D01*
X72877446Y-31780860D01*
X72877401Y-31779225D01*
X72881295Y-31757143D01*
X72881295Y-31680952D01*
X72880734Y-31679413D01*
X72877446Y-31657235D01*
X72839351Y-31542949D01*
X72836564Y-31539438D01*
X72836174Y-31534970D01*
X72821233Y-31513633D01*
X72745042Y-31437443D01*
X72743560Y-31436752D01*
X72725550Y-31423394D01*
X72649360Y-31385299D01*
X72645833Y-31384893D01*
X72634010Y-31379620D01*
X72481629Y-31341524D01*
X72478180Y-31341884D01*
X72463438Y-31339285D01*
X72349152Y-31339285D01*
X72345894Y-31340470D01*
X72330962Y-31341524D01*
X72178580Y-31379620D01*
X72175636Y-31381608D01*
X72163230Y-31385299D01*
X72087039Y-31423394D01*
X72085915Y-31424580D01*
X72067547Y-31437443D01*
X71991357Y-31513633D01*
X71989462Y-31517696D01*
X71985641Y-31520044D01*
X71973239Y-31542949D01*
X71935144Y-31657235D01*
X71935188Y-31658869D01*
X71931295Y-31680952D01*
X71931295Y-31757143D01*
X71573576Y-31757143D01*
X71585377Y-31733541D01*
X71585889Y-31729087D01*
X71588772Y-31725652D01*
X71593295Y-31700000D01*
X71593295Y-31623810D01*
X71591761Y-31619597D01*
X71592804Y-31615236D01*
X71585377Y-31590269D01*
X71547282Y-31514078D01*
X71546094Y-31512953D01*
X71533232Y-31494585D01*
X71495136Y-31456490D01*
X71493653Y-31455798D01*
X71475645Y-31442442D01*
X71399455Y-31404347D01*
X71395928Y-31403941D01*
X71384105Y-31398668D01*
X71231724Y-31360572D01*
X71228275Y-31360932D01*
X71213533Y-31358333D01*
X71023057Y-31358333D01*
X71019799Y-31359518D01*
X71004867Y-31360572D01*
X70852485Y-31398668D01*
X70849541Y-31400656D01*
X70837135Y-31404347D01*
X70760944Y-31442442D01*
X70759818Y-31443631D01*
X70741452Y-31456491D01*
X70703357Y-31494586D01*
X70702666Y-31496067D01*
X70689308Y-31514078D01*
X70651213Y-31590269D01*
X70650700Y-31594722D01*
X70647818Y-31598158D01*
X70643295Y-31623810D01*
X70643295Y-31700000D01*
X70491725Y-31700000D01*
X70491725Y-30872906D01*
X70606011Y-30872906D01*
X70630440Y-30918020D01*
X70678151Y-30936877D01*
X70703917Y-30933056D01*
X71176628Y-30775484D01*
X71176628Y-30977381D01*
X70984961Y-30977381D01*
X70936752Y-30994928D01*
X70911100Y-31039357D01*
X70920009Y-31089881D01*
X70959309Y-31122858D01*
X70984961Y-31127381D01*
X71176628Y-31127381D01*
X71176628Y-31166667D01*
X71194175Y-31214876D01*
X71238604Y-31240528D01*
X71289128Y-31231619D01*
X71322105Y-31192319D01*
X71326628Y-31166667D01*
X71326628Y-31127381D01*
X71518295Y-31127381D01*
X71566504Y-31109834D01*
X71592156Y-31065405D01*
X71583247Y-31014881D01*
X71559838Y-30995238D01*
X71931295Y-30995238D01*
X71931855Y-30996776D01*
X71935144Y-31018955D01*
X71973239Y-31133240D01*
X72005130Y-31173426D01*
X72055391Y-31183712D01*
X72100505Y-31159283D01*
X72119362Y-31111572D01*
X72115541Y-31085806D01*
X72081295Y-30983068D01*
X72081295Y-30822466D01*
X72106029Y-30772998D01*
X72126912Y-30752114D01*
X72176381Y-30727380D01*
X72217161Y-30727380D01*
X72266630Y-30752115D01*
X72287513Y-30772998D01*
X72316482Y-30830936D01*
X72352581Y-30975332D01*
X72354569Y-30978276D01*
X72358260Y-30990683D01*
X72396356Y-31066874D01*
X72397545Y-31067999D01*
X72410405Y-31086366D01*
X72448500Y-31124461D01*
X72449981Y-31125152D01*
X72467992Y-31138510D01*
X72544182Y-31176605D01*
X72548635Y-31177117D01*
X72552071Y-31180000D01*
X72577723Y-31184523D01*
X72653914Y-31184523D01*
X72658127Y-31182989D01*
X72662488Y-31184031D01*
X72687455Y-31176605D01*
X72763645Y-31138510D01*
X72764770Y-31137321D01*
X72783136Y-31124462D01*
X72821232Y-31086367D01*
X72821922Y-31084885D01*
X72835282Y-31066874D01*
X72873377Y-30990683D01*
X72873889Y-30986229D01*
X72876772Y-30982794D01*
X72881295Y-30957142D01*
X72881295Y-30766666D01*
X72880734Y-30765127D01*
X72877446Y-30742949D01*
X72839351Y-30628663D01*
X72807460Y-30588477D01*
X72757199Y-30578191D01*
X72712085Y-30602620D01*
X72693228Y-30650331D01*
X72697049Y-30676097D01*
X72731295Y-30778835D01*
X72731295Y-30939437D01*
X72706561Y-30988905D01*
X72685677Y-31009788D01*
X72636209Y-31034523D01*
X72595428Y-31034523D01*
X72545960Y-31009789D01*
X72525077Y-30988906D01*
X72496106Y-30930965D01*
X72460008Y-30786571D01*
X72458019Y-30783626D01*
X72454329Y-30771220D01*
X72416234Y-30695030D01*
X72415044Y-30693904D01*
X72402185Y-30675538D01*
X72364090Y-30637443D01*
X72362605Y-30636750D01*
X72344598Y-30623394D01*
X72268407Y-30585298D01*
X72263953Y-30584785D01*
X72260518Y-30581903D01*
X72234866Y-30577380D01*
X72158676Y-30577380D01*
X72154462Y-30578913D01*
X72150101Y-30577872D01*
X72125134Y-30585298D01*
X72048944Y-30623394D01*
X72047818Y-30624583D01*
X72029452Y-30637443D01*
X71991357Y-30675538D01*
X71990666Y-30677019D01*
X71977308Y-30695030D01*
X71939213Y-30771220D01*
X71938700Y-30775673D01*
X71935818Y-30779109D01*
X71931295Y-30804761D01*
X71931295Y-30995238D01*
X71559838Y-30995238D01*
X71543947Y-30981904D01*
X71518295Y-30977381D01*
X71326628Y-30977381D01*
X71326628Y-30671428D01*
X71324667Y-30666042D01*
X71325817Y-30660427D01*
X71316076Y-30642439D01*
X71309081Y-30623219D01*
X71304117Y-30620353D01*
X71301388Y-30615313D01*
X71282368Y-30607796D01*
X71264652Y-30597567D01*
X71259006Y-30598562D01*
X71253676Y-30596456D01*
X71227911Y-30600277D01*
X70656483Y-30790754D01*
X70616297Y-30822645D01*
X70606011Y-30872906D01*
X70491725Y-30872906D01*
X70491725Y-30100000D01*
X70643295Y-30100000D01*
X70643855Y-30101538D01*
X70647144Y-30123717D01*
X70685239Y-30238003D01*
X70688026Y-30241515D01*
X70688417Y-30245982D01*
X70703357Y-30267319D01*
X70779547Y-30343509D01*
X70781028Y-30344199D01*
X70799039Y-30357558D01*
X70875230Y-30395653D01*
X70878756Y-30396058D01*
X70890580Y-30401332D01*
X71042962Y-30439428D01*
X71046410Y-30439067D01*
X71061152Y-30441667D01*
X71175438Y-30441667D01*
X71178695Y-30440481D01*
X71193629Y-30439428D01*
X71346010Y-30401332D01*
X71348955Y-30399342D01*
X71361360Y-30395653D01*
X71437550Y-30357558D01*
X71438673Y-30356371D01*
X71457042Y-30343509D01*
X71533233Y-30267319D01*
X71535127Y-30263255D01*
X71538949Y-30260908D01*
X71551351Y-30238003D01*
X71589446Y-30123717D01*
X71589401Y-30122082D01*
X71593295Y-30100000D01*
X71593295Y-29909524D01*
X71586631Y-29891215D01*
X71583247Y-29872024D01*
X71578062Y-29867673D01*
X71575748Y-29861315D01*
X71558874Y-29851572D01*
X71543947Y-29839047D01*
X71534204Y-29837329D01*
X71531319Y-29835663D01*
X71528036Y-29836241D01*
X71518295Y-29834524D01*
X70718295Y-29834524D01*
X70699986Y-29841187D01*
X70680795Y-29844572D01*
X70676444Y-29849756D01*
X70670086Y-29852071D01*
X70660343Y-29868944D01*
X70647818Y-29883872D01*
X70646100Y-29893614D01*
X70644434Y-29896500D01*
X70645012Y-29899782D01*
X70643295Y-29909524D01*
X70643295Y-30100000D01*
X70491725Y-30100000D01*
X70491725Y-29738094D01*
X71931295Y-29738094D01*
X71938210Y-29757093D01*
X71942133Y-29776930D01*
X71946795Y-29780680D01*
X71948842Y-29786303D01*
X71966351Y-29796412D01*
X71982107Y-29809087D01*
X71988089Y-29808963D01*
X71993271Y-29811955D01*
X72013184Y-29808443D01*
X72033399Y-29808025D01*
X72040732Y-29803585D01*
X72043795Y-29803046D01*
X72046034Y-29800376D01*
X72055683Y-29794537D01*
X72247636Y-29626577D01*
X72282070Y-29695445D01*
X72283259Y-29696570D01*
X72296119Y-29714937D01*
X72334214Y-29753032D01*
X72335695Y-29753723D01*
X72353706Y-29767081D01*
X72429897Y-29805176D01*
X72434350Y-29805688D01*
X72437786Y-29808571D01*
X72463438Y-29813094D01*
X72653914Y-29813094D01*
X72658127Y-29811560D01*
X72662488Y-29812602D01*
X72687455Y-29805176D01*
X72763645Y-29767081D01*
X72764770Y-29765892D01*
X72783136Y-29753033D01*
X72821232Y-29714938D01*
X72821922Y-29713456D01*
X72835282Y-29695445D01*
X72873377Y-29619254D01*
X72873889Y-29614800D01*
X72876772Y-29611365D01*
X72881295Y-29585713D01*
X72881295Y-29357142D01*
X72879761Y-29352929D01*
X72880804Y-29348568D01*
X72873377Y-29323601D01*
X72835282Y-29247410D01*
X72834094Y-29246285D01*
X72821232Y-29227917D01*
X72783136Y-29189822D01*
X72736640Y-29168142D01*
X72687085Y-29181420D01*
X72657659Y-29223445D01*
X72662131Y-29274553D01*
X72677072Y-29295890D01*
X72706561Y-29325378D01*
X72731295Y-29374846D01*
X72731295Y-29568008D01*
X72706561Y-29617476D01*
X72685677Y-29638359D01*
X72636209Y-29663094D01*
X72481143Y-29663094D01*
X72431673Y-29638359D01*
X72410791Y-29617477D01*
X72386057Y-29568008D01*
X72386057Y-29471428D01*
X72379142Y-29452431D01*
X72375220Y-29432592D01*
X72370555Y-29428840D01*
X72368510Y-29423219D01*
X72351002Y-29413110D01*
X72335245Y-29400435D01*
X72329262Y-29400558D01*
X72324081Y-29397567D01*
X72304170Y-29401077D01*
X72283953Y-29401496D01*
X72276617Y-29405936D01*
X72273557Y-29406476D01*
X72271318Y-29409143D01*
X72261670Y-29414984D01*
X72081295Y-29572811D01*
X72081295Y-29242856D01*
X72063748Y-29194647D01*
X72019319Y-29168995D01*
X71968795Y-29177904D01*
X71935818Y-29217204D01*
X71931295Y-29242856D01*
X71931295Y-29738094D01*
X70491725Y-29738094D01*
X70491725Y-29414286D01*
X70643295Y-29414286D01*
X70643855Y-29415824D01*
X70647144Y-29438003D01*
X70685239Y-29552288D01*
X70688025Y-29555799D01*
X70688416Y-29560266D01*
X70703356Y-29581603D01*
X70741451Y-29619699D01*
X70787947Y-29641381D01*
X70837502Y-29628104D01*
X70866929Y-29586079D01*
X70862459Y-29534972D01*
X70847519Y-29513635D01*
X70821942Y-29488057D01*
X70793295Y-29402116D01*
X70793295Y-29350264D01*
X70821942Y-29264322D01*
X70877006Y-29209258D01*
X70934945Y-29180288D01*
X71070387Y-29146428D01*
X71166203Y-29146428D01*
X71301642Y-29180288D01*
X71359582Y-29209258D01*
X71414648Y-29264323D01*
X71443295Y-29350264D01*
X71443295Y-29402116D01*
X71414648Y-29488057D01*
X71389071Y-29513634D01*
X71367390Y-29560131D01*
X71380667Y-29609685D01*
X71422693Y-29639112D01*
X71473800Y-29634640D01*
X71495137Y-29619700D01*
X71533233Y-29581604D01*
X71535128Y-29577539D01*
X71538948Y-29575193D01*
X71551351Y-29552288D01*
X71589446Y-29438003D01*
X71589401Y-29436368D01*
X71593295Y-29414286D01*
X71593295Y-29338095D01*
X71592734Y-29336556D01*
X71589446Y-29314378D01*
X71551351Y-29200092D01*
X71548564Y-29196581D01*
X71548174Y-29192113D01*
X71533233Y-29170776D01*
X71457042Y-29094586D01*
X71455560Y-29093895D01*
X71437550Y-29080537D01*
X71403238Y-29063381D01*
X71932106Y-29063381D01*
X71956535Y-29108495D01*
X72004246Y-29127352D01*
X72030012Y-29123531D01*
X72830012Y-28856865D01*
X72831703Y-28855522D01*
X72833862Y-28855464D01*
X72851623Y-28839714D01*
X72870198Y-28824974D01*
X72870630Y-28822860D01*
X72872247Y-28821427D01*
X72875727Y-28797956D01*
X72880484Y-28774713D01*
X72879455Y-28772813D01*
X72879772Y-28770678D01*
X72867355Y-28750467D01*
X72856056Y-28729599D01*
X72854047Y-28728805D01*
X72852917Y-28726965D01*
X72830012Y-28714563D01*
X72030012Y-28447896D01*
X71978728Y-28449297D01*
X71940343Y-28483334D01*
X71932818Y-28534083D01*
X71959673Y-28577795D01*
X71982578Y-28590198D01*
X72569124Y-28785713D01*
X71982578Y-28981229D01*
X71942392Y-29013120D01*
X71932106Y-29063381D01*
X71403238Y-29063381D01*
X71361360Y-29042442D01*
X71357833Y-29042036D01*
X71346010Y-29036763D01*
X71193629Y-28998667D01*
X71190180Y-28999027D01*
X71175438Y-28996428D01*
X71061152Y-28996428D01*
X71057894Y-28997613D01*
X71042962Y-28998667D01*
X70890580Y-29036763D01*
X70887636Y-29038751D01*
X70875230Y-29042442D01*
X70799039Y-29080537D01*
X70797915Y-29081723D01*
X70779547Y-29094586D01*
X70703357Y-29170776D01*
X70701462Y-29174839D01*
X70697641Y-29177187D01*
X70685239Y-29200092D01*
X70647144Y-29314378D01*
X70647188Y-29316012D01*
X70643295Y-29338095D01*
X70643295Y-29414286D01*
X70491725Y-29414286D01*
X70491725Y-28652381D01*
X70643295Y-28652381D01*
X70643855Y-28653919D01*
X70647144Y-28676098D01*
X70685239Y-28790383D01*
X70717130Y-28830569D01*
X70767391Y-28840855D01*
X70812505Y-28816426D01*
X70831362Y-28768715D01*
X70827541Y-28742949D01*
X70793295Y-28640211D01*
X70793295Y-28479609D01*
X70818029Y-28430141D01*
X70838912Y-28409257D01*
X70888381Y-28384523D01*
X70929161Y-28384523D01*
X70978630Y-28409258D01*
X70999513Y-28430141D01*
X71028482Y-28488079D01*
X71064581Y-28632475D01*
X71066569Y-28635419D01*
X71070260Y-28647826D01*
X71108356Y-28724017D01*
X71109545Y-28725142D01*
X71122405Y-28743509D01*
X71160500Y-28781604D01*
X71161981Y-28782295D01*
X71179992Y-28795653D01*
X71256182Y-28833748D01*
X71260635Y-28834260D01*
X71264071Y-28837143D01*
X71289723Y-28841666D01*
X71365914Y-28841666D01*
X71370127Y-28840132D01*
X71374488Y-28841174D01*
X71399455Y-28833748D01*
X71475645Y-28795653D01*
X71476770Y-28794464D01*
X71495136Y-28781605D01*
X71533232Y-28743510D01*
X71533922Y-28742028D01*
X71547282Y-28724017D01*
X71585377Y-28647826D01*
X71585889Y-28643372D01*
X71588772Y-28639937D01*
X71593295Y-28614285D01*
X71593295Y-28423809D01*
X71592734Y-28422270D01*
X71589446Y-28400092D01*
X71552907Y-28290475D01*
X71931295Y-28290475D01*
X71938210Y-28309474D01*
X71942133Y-28329311D01*
X71946795Y-28333061D01*
X71948842Y-28338684D01*
X71966351Y-28348793D01*
X71982107Y-28361468D01*
X71988089Y-28361344D01*
X71993271Y-28364336D01*
X72013184Y-28360824D01*
X72033399Y-28360406D01*
X72040732Y-28355966D01*
X72043795Y-28355427D01*
X72046034Y-28352757D01*
X72055683Y-28346918D01*
X72247636Y-28178958D01*
X72282070Y-28247826D01*
X72283259Y-28248951D01*
X72296119Y-28267318D01*
X72334214Y-28305413D01*
X72335695Y-28306104D01*
X72353706Y-28319462D01*
X72429897Y-28357557D01*
X72434350Y-28358069D01*
X72437786Y-28360952D01*
X72463438Y-28365475D01*
X72653914Y-28365475D01*
X72658127Y-28363941D01*
X72662488Y-28364983D01*
X72687455Y-28357557D01*
X72763645Y-28319462D01*
X72764770Y-28318273D01*
X72783136Y-28305414D01*
X72821232Y-28267319D01*
X72821922Y-28265837D01*
X72835282Y-28247826D01*
X72873377Y-28171635D01*
X72873889Y-28167181D01*
X72876772Y-28163746D01*
X72881295Y-28138094D01*
X72881295Y-27909523D01*
X72879761Y-27905310D01*
X72880804Y-27900949D01*
X72873377Y-27875982D01*
X72835282Y-27799791D01*
X72834094Y-27798666D01*
X72821232Y-27780298D01*
X72783136Y-27742203D01*
X72736640Y-27720523D01*
X72687085Y-27733801D01*
X72657659Y-27775826D01*
X72662131Y-27826934D01*
X72677072Y-27848271D01*
X72706561Y-27877759D01*
X72731295Y-27927227D01*
X72731295Y-28120389D01*
X72706561Y-28169857D01*
X72685677Y-28190740D01*
X72636209Y-28215475D01*
X72481143Y-28215475D01*
X72431673Y-28190740D01*
X72410791Y-28169858D01*
X72386057Y-28120389D01*
X72386057Y-28023809D01*
X72379142Y-28004812D01*
X72375220Y-27984973D01*
X72370555Y-27981221D01*
X72368510Y-27975600D01*
X72351002Y-27965491D01*
X72335245Y-27952816D01*
X72329262Y-27952939D01*
X72324081Y-27949948D01*
X72304170Y-27953458D01*
X72283953Y-27953877D01*
X72276617Y-27958317D01*
X72273557Y-27958857D01*
X72271318Y-27961524D01*
X72261670Y-27967365D01*
X72081295Y-28125192D01*
X72081295Y-27795237D01*
X72063748Y-27747028D01*
X72019319Y-27721376D01*
X71968795Y-27730285D01*
X71935818Y-27769585D01*
X71931295Y-27795237D01*
X71931295Y-28290475D01*
X71552907Y-28290475D01*
X71551351Y-28285806D01*
X71519460Y-28245620D01*
X71469199Y-28235334D01*
X71424085Y-28259763D01*
X71405228Y-28307474D01*
X71409049Y-28333240D01*
X71443295Y-28435978D01*
X71443295Y-28596580D01*
X71418561Y-28646048D01*
X71397677Y-28666931D01*
X71348209Y-28691666D01*
X71307428Y-28691666D01*
X71257960Y-28666932D01*
X71237077Y-28646049D01*
X71208106Y-28588108D01*
X71172008Y-28443714D01*
X71170019Y-28440769D01*
X71166329Y-28428363D01*
X71128234Y-28352173D01*
X71127044Y-28351047D01*
X71114185Y-28332681D01*
X71076090Y-28294586D01*
X71074605Y-28293893D01*
X71056598Y-28280537D01*
X70980407Y-28242441D01*
X70975953Y-28241928D01*
X70972518Y-28239046D01*
X70946866Y-28234523D01*
X70870676Y-28234523D01*
X70866462Y-28236056D01*
X70862101Y-28235015D01*
X70837134Y-28242441D01*
X70760944Y-28280537D01*
X70759818Y-28281726D01*
X70741452Y-28294586D01*
X70703357Y-28332681D01*
X70702666Y-28334162D01*
X70689308Y-28352173D01*
X70651213Y-28428363D01*
X70650700Y-28432816D01*
X70647818Y-28436252D01*
X70643295Y-28461904D01*
X70643295Y-28652381D01*
X70491725Y-28652381D01*
X70491725Y-26652380D01*
X71931295Y-26652380D01*
X71931855Y-26653918D01*
X71935144Y-26676097D01*
X71973239Y-26790383D01*
X71976026Y-26793895D01*
X71976417Y-26798362D01*
X71991357Y-26819699D01*
X72067547Y-26895889D01*
X72069028Y-26896579D01*
X72087039Y-26909938D01*
X72163230Y-26948033D01*
X72166756Y-26948438D01*
X72178580Y-26953712D01*
X72330962Y-26991808D01*
X72334410Y-26991447D01*
X72349152Y-26994047D01*
X72463438Y-26994047D01*
X72466695Y-26992861D01*
X72481629Y-26991808D01*
X72634010Y-26953712D01*
X72636955Y-26951722D01*
X72649360Y-26948033D01*
X72725550Y-26909938D01*
X72726673Y-26908751D01*
X72745042Y-26895889D01*
X72821233Y-26819699D01*
X72823127Y-26815635D01*
X72826949Y-26813288D01*
X72839351Y-26790383D01*
X72877446Y-26676097D01*
X72877401Y-26674462D01*
X72881295Y-26652380D01*
X72881295Y-26461904D01*
X72874631Y-26443595D01*
X72871247Y-26424404D01*
X72866062Y-26420053D01*
X72863748Y-26413695D01*
X72846874Y-26403952D01*
X72831947Y-26391427D01*
X72822204Y-26389709D01*
X72819319Y-26388043D01*
X72816036Y-26388621D01*
X72806295Y-26386904D01*
X72006295Y-26386904D01*
X71987986Y-26393567D01*
X71968795Y-26396952D01*
X71964444Y-26402136D01*
X71958086Y-26404451D01*
X71948343Y-26421324D01*
X71935818Y-26436252D01*
X71934100Y-26445994D01*
X71932434Y-26448880D01*
X71933012Y-26452162D01*
X71931295Y-26461904D01*
X71931295Y-26652380D01*
X70491725Y-26652380D01*
X70491725Y-25624143D01*
X71931296Y-25624143D01*
X71937986Y-25642274D01*
X71941343Y-25661309D01*
X71946655Y-25665766D01*
X71949056Y-25672273D01*
X71969085Y-25688927D01*
X72523879Y-26005952D01*
X72006295Y-26005952D01*
X71958086Y-26023499D01*
X71932434Y-26067928D01*
X71941343Y-26118452D01*
X71980643Y-26151429D01*
X72006295Y-26155952D01*
X72806295Y-26155952D01*
X72812811Y-26153580D01*
X72819647Y-26154754D01*
X72836344Y-26145014D01*
X72854504Y-26138405D01*
X72857971Y-26132399D01*
X72863963Y-26128905D01*
X72870492Y-26110713D01*
X72880156Y-26093976D01*
X72878951Y-26087144D01*
X72881294Y-26080618D01*
X72874603Y-26062486D01*
X72871247Y-26043452D01*
X72865934Y-26038994D01*
X72863534Y-26032488D01*
X72843505Y-26015834D01*
X72288711Y-25698809D01*
X72806295Y-25698809D01*
X72854504Y-25681262D01*
X72880156Y-25636833D01*
X72871247Y-25586309D01*
X72831947Y-25553332D01*
X72806295Y-25548809D01*
X72006295Y-25548809D01*
X71999778Y-25551180D01*
X71992943Y-25550007D01*
X71976245Y-25559746D01*
X71958086Y-25566356D01*
X71954618Y-25572361D01*
X71948627Y-25575856D01*
X71942097Y-25594047D01*
X71932434Y-25610785D01*
X71933638Y-25617616D01*
X71931296Y-25624143D01*
X70491725Y-25624143D01*
X70491725Y-25166666D01*
X71931295Y-25166666D01*
X71932828Y-25170879D01*
X71931787Y-25175240D01*
X71939213Y-25200207D01*
X71977308Y-25276397D01*
X72014562Y-25311669D01*
X72065773Y-25314744D01*
X72106978Y-25284180D01*
X72118898Y-25234282D01*
X72111472Y-25209315D01*
X72081295Y-25148961D01*
X72081295Y-25064549D01*
X72109942Y-24978607D01*
X72165006Y-24923543D01*
X72222945Y-24894573D01*
X72358387Y-24860713D01*
X72454203Y-24860713D01*
X72589642Y-24894573D01*
X72647582Y-24923543D01*
X72702648Y-24978608D01*
X72731295Y-25064549D01*
X72731295Y-25116401D01*
X72702648Y-25202342D01*
X72699038Y-25205952D01*
X72538438Y-25205952D01*
X72538438Y-25128571D01*
X72520891Y-25080362D01*
X72476462Y-25054710D01*
X72425938Y-25063619D01*
X72392961Y-25102919D01*
X72388438Y-25128571D01*
X72388438Y-25280952D01*
X72395101Y-25299260D01*
X72398486Y-25318452D01*
X72403670Y-25322802D01*
X72405985Y-25329161D01*
X72422858Y-25338903D01*
X72437786Y-25351429D01*
X72447528Y-25353146D01*
X72450414Y-25354813D01*
X72453696Y-25354234D01*
X72463438Y-25355952D01*
X72730104Y-25355952D01*
X72745488Y-25350352D01*
X72761800Y-25348925D01*
X72775212Y-25339533D01*
X72778313Y-25338405D01*
X72779323Y-25336655D01*
X72783137Y-25333985D01*
X72821233Y-25295889D01*
X72823128Y-25291824D01*
X72826948Y-25289478D01*
X72839351Y-25266573D01*
X72877446Y-25152288D01*
X72877401Y-25150653D01*
X72881295Y-25128571D01*
X72881295Y-25052380D01*
X72880734Y-25050841D01*
X72877446Y-25028663D01*
X72839351Y-24914377D01*
X72836564Y-24910866D01*
X72836174Y-24906398D01*
X72821233Y-24885061D01*
X72745042Y-24808871D01*
X72743560Y-24808180D01*
X72725550Y-24794822D01*
X72649360Y-24756727D01*
X72645833Y-24756321D01*
X72634010Y-24751048D01*
X72481629Y-24712952D01*
X72478180Y-24713312D01*
X72463438Y-24710713D01*
X72349152Y-24710713D01*
X72345894Y-24711898D01*
X72330962Y-24712952D01*
X72178580Y-24751048D01*
X72175636Y-24753036D01*
X72163230Y-24756727D01*
X72087039Y-24794822D01*
X72085915Y-24796008D01*
X72067547Y-24808871D01*
X71991357Y-24885061D01*
X71989462Y-24889124D01*
X71985641Y-24891472D01*
X71973239Y-24914377D01*
X71935144Y-25028663D01*
X71935188Y-25030297D01*
X71931295Y-25052380D01*
X71931295Y-25166666D01*
X70491725Y-25166666D01*
X70491725Y-24596427D01*
X72995581Y-24596427D01*
X72995581Y-35675913D01*
G37*
D11*
X66285713Y2947642D02*
X65571428Y2947642D01*
X66428570Y2519071D02*
X65928570Y4019071D01*
X65928570Y4019071D02*
X65428570Y2519071D01*
X64928571Y3090500D02*
X63785714Y3090500D01*
X64357142Y2519071D02*
X64357142Y3661928D01*
X81107142Y2519071D02*
X81107142Y4019071D01*
X80249999Y2519071D02*
X80892856Y3376214D01*
X80249999Y4019071D02*
X81107142Y3161928D01*
X78964285Y4019071D02*
X79249999Y4019071D01*
X79249999Y4019071D02*
X79392856Y3947642D01*
X79392856Y3947642D02*
X79464285Y3876214D01*
X79464285Y3876214D02*
X79607142Y3661928D01*
X79607142Y3661928D02*
X79678570Y3376214D01*
X79678570Y3376214D02*
X79678570Y2804785D01*
X79678570Y2804785D02*
X79607142Y2661928D01*
X79607142Y2661928D02*
X79535713Y2590500D01*
X79535713Y2590500D02*
X79392856Y2519071D01*
X79392856Y2519071D02*
X79107142Y2519071D01*
X79107142Y2519071D02*
X78964285Y2590500D01*
X78964285Y2590500D02*
X78892856Y2661928D01*
X78892856Y2661928D02*
X78821427Y2804785D01*
X78821427Y2804785D02*
X78821427Y3161928D01*
X78821427Y3161928D02*
X78892856Y3304785D01*
X78892856Y3304785D02*
X78964285Y3376214D01*
X78964285Y3376214D02*
X79107142Y3447642D01*
X79107142Y3447642D02*
X79392856Y3447642D01*
X79392856Y3447642D02*
X79535713Y3376214D01*
X79535713Y3376214D02*
X79607142Y3304785D01*
X79607142Y3304785D02*
X79678570Y3161928D01*
X86142856Y3947642D02*
X86285714Y4019071D01*
X86285714Y4019071D02*
X86499999Y4019071D01*
X86499999Y4019071D02*
X86714285Y3947642D01*
X86714285Y3947642D02*
X86857142Y3804785D01*
X86857142Y3804785D02*
X86928571Y3661928D01*
X86928571Y3661928D02*
X86999999Y3376214D01*
X86999999Y3376214D02*
X86999999Y3161928D01*
X86999999Y3161928D02*
X86928571Y2876214D01*
X86928571Y2876214D02*
X86857142Y2733357D01*
X86857142Y2733357D02*
X86714285Y2590500D01*
X86714285Y2590500D02*
X86499999Y2519071D01*
X86499999Y2519071D02*
X86357142Y2519071D01*
X86357142Y2519071D02*
X86142856Y2590500D01*
X86142856Y2590500D02*
X86071428Y2661928D01*
X86071428Y2661928D02*
X86071428Y3161928D01*
X86071428Y3161928D02*
X86357142Y3161928D01*
X85428571Y2519071D02*
X85428571Y4019071D01*
X85428571Y4019071D02*
X84571428Y2519071D01*
X84571428Y2519071D02*
X84571428Y4019071D01*
X83857142Y2519071D02*
X83857142Y4019071D01*
X83857142Y4019071D02*
X83499999Y4019071D01*
X83499999Y4019071D02*
X83285713Y3947642D01*
X83285713Y3947642D02*
X83142856Y3804785D01*
X83142856Y3804785D02*
X83071427Y3661928D01*
X83071427Y3661928D02*
X82999999Y3376214D01*
X82999999Y3376214D02*
X82999999Y3161928D01*
X82999999Y3161928D02*
X83071427Y2876214D01*
X83071427Y2876214D02*
X83142856Y2733357D01*
X83142856Y2733357D02*
X83285713Y2590500D01*
X83285713Y2590500D02*
X83499999Y2519071D01*
X83499999Y2519071D02*
X83857142Y2519071D01*
D10*
X91988219Y-18000000D02*
X90988219Y-18000000D01*
X90988219Y-18666666D02*
X90988219Y-18857142D01*
X90988219Y-18857142D02*
X91035838Y-18952380D01*
X91035838Y-18952380D02*
X91131076Y-19047618D01*
X91131076Y-19047618D02*
X91321552Y-19095237D01*
X91321552Y-19095237D02*
X91654885Y-19095237D01*
X91654885Y-19095237D02*
X91845361Y-19047618D01*
X91845361Y-19047618D02*
X91940600Y-18952380D01*
X91940600Y-18952380D02*
X91988219Y-18857142D01*
X91988219Y-18857142D02*
X91988219Y-18666666D01*
X91988219Y-18666666D02*
X91940600Y-18571428D01*
X91940600Y-18571428D02*
X91845361Y-18476190D01*
X91845361Y-18476190D02*
X91654885Y-18428571D01*
X91654885Y-18428571D02*
X91321552Y-18428571D01*
X91321552Y-18428571D02*
X91131076Y-18476190D01*
X91131076Y-18476190D02*
X91035838Y-18571428D01*
X91035838Y-18571428D02*
X90988219Y-18666666D01*
X91083457Y-19476190D02*
X91035838Y-19523809D01*
X91035838Y-19523809D02*
X90988219Y-19619047D01*
X90988219Y-19619047D02*
X90988219Y-19857142D01*
X90988219Y-19857142D02*
X91035838Y-19952380D01*
X91035838Y-19952380D02*
X91083457Y-19999999D01*
X91083457Y-19999999D02*
X91178695Y-20047618D01*
X91178695Y-20047618D02*
X91273933Y-20047618D01*
X91273933Y-20047618D02*
X91416790Y-19999999D01*
X91416790Y-19999999D02*
X91988219Y-19428571D01*
X91988219Y-19428571D02*
X91988219Y-20047618D01*
D11*
X21071427Y2947642D02*
X20357142Y2947642D01*
X21214284Y2519071D02*
X20714284Y4019071D01*
X20714284Y4019071D02*
X20214284Y2519071D01*
X19785713Y3876214D02*
X19714285Y3947642D01*
X19714285Y3947642D02*
X19571428Y4019071D01*
X19571428Y4019071D02*
X19214285Y4019071D01*
X19214285Y4019071D02*
X19071428Y3947642D01*
X19071428Y3947642D02*
X18999999Y3876214D01*
X18999999Y3876214D02*
X18928570Y3733357D01*
X18928570Y3733357D02*
X18928570Y3590500D01*
X18928570Y3590500D02*
X18999999Y3376214D01*
X18999999Y3376214D02*
X19857142Y2519071D01*
X19857142Y2519071D02*
X18928570Y2519071D01*
X26107142Y2519071D02*
X26107142Y4019071D01*
X25249999Y2519071D02*
X25892856Y3376214D01*
X25249999Y4019071D02*
X26107142Y3161928D01*
X24678570Y3876214D02*
X24607142Y3947642D01*
X24607142Y3947642D02*
X24464285Y4019071D01*
X24464285Y4019071D02*
X24107142Y4019071D01*
X24107142Y4019071D02*
X23964285Y3947642D01*
X23964285Y3947642D02*
X23892856Y3876214D01*
X23892856Y3876214D02*
X23821427Y3733357D01*
X23821427Y3733357D02*
X23821427Y3590500D01*
X23821427Y3590500D02*
X23892856Y3376214D01*
X23892856Y3376214D02*
X24749999Y2519071D01*
X24749999Y2519071D02*
X23821427Y2519071D01*
X5571428Y3090501D02*
X4428571Y3090501D01*
D10*
X91035838Y-14738095D02*
X90988219Y-14642857D01*
X90988219Y-14642857D02*
X90988219Y-14500000D01*
X90988219Y-14500000D02*
X91035838Y-14357143D01*
X91035838Y-14357143D02*
X91131076Y-14261905D01*
X91131076Y-14261905D02*
X91226314Y-14214286D01*
X91226314Y-14214286D02*
X91416790Y-14166667D01*
X91416790Y-14166667D02*
X91559647Y-14166667D01*
X91559647Y-14166667D02*
X91750123Y-14214286D01*
X91750123Y-14214286D02*
X91845361Y-14261905D01*
X91845361Y-14261905D02*
X91940600Y-14357143D01*
X91940600Y-14357143D02*
X91988219Y-14500000D01*
X91988219Y-14500000D02*
X91988219Y-14595238D01*
X91988219Y-14595238D02*
X91940600Y-14738095D01*
X91940600Y-14738095D02*
X91892980Y-14785714D01*
X91892980Y-14785714D02*
X91559647Y-14785714D01*
X91559647Y-14785714D02*
X91559647Y-14595238D01*
X91988219Y-15214286D02*
X90988219Y-15214286D01*
X90988219Y-15214286D02*
X91988219Y-15785714D01*
X91988219Y-15785714D02*
X90988219Y-15785714D01*
X91988219Y-16261905D02*
X90988219Y-16261905D01*
X90988219Y-16261905D02*
X90988219Y-16500000D01*
X90988219Y-16500000D02*
X91035838Y-16642857D01*
X91035838Y-16642857D02*
X91131076Y-16738095D01*
X91131076Y-16738095D02*
X91226314Y-16785714D01*
X91226314Y-16785714D02*
X91416790Y-16833333D01*
X91416790Y-16833333D02*
X91559647Y-16833333D01*
X91559647Y-16833333D02*
X91750123Y-16785714D01*
X91750123Y-16785714D02*
X91845361Y-16738095D01*
X91845361Y-16738095D02*
X91940600Y-16642857D01*
X91940600Y-16642857D02*
X91988219Y-16500000D01*
X91988219Y-16500000D02*
X91988219Y-16261905D01*
%LPC*%
D13*
%TO.C,J9*%
X88700000Y-19000000D03*
D14*
X88700000Y-15500000D03*
X88700000Y-12000000D03*
X88700000Y-8500000D03*
%TD*%
D15*
%TO.C,J4*%
X-3600000Y-34260000D03*
X-3600000Y-40040000D03*
D16*
X-3070000Y-32830000D03*
D17*
X-7250000Y-32830000D03*
D16*
X-3070000Y-41470000D03*
D17*
X-7250000Y-41470000D03*
%TD*%
D18*
%TO.C,J5*%
X23280000Y-42600000D03*
D19*
X25820000Y-42600000D03*
X28360000Y-42600000D03*
X30900000Y-42600000D03*
%TD*%
D20*
%TO.C,J7*%
X82420000Y-39000000D03*
D19*
X79880000Y-39000000D03*
X77340000Y-39000000D03*
X74800000Y-39000000D03*
%TD*%
D21*
%TO.C,J2*%
X55000000Y0D03*
D22*
X50000000Y0D03*
X45000000Y0D03*
X40000000Y0D03*
X35000000Y0D03*
X30000000Y0D03*
%TD*%
D23*
%TO.C,H2*%
X89100000Y5100000D03*
X89802944Y6797056D03*
X89802944Y3402944D03*
X91500000Y7500000D03*
D24*
X91500000Y5100000D03*
D23*
X91500000Y2700000D03*
X93197056Y6797056D03*
X93197056Y3402944D03*
X93900000Y5100000D03*
%TD*%
D21*
%TO.C,J3*%
X85000000Y0D03*
D22*
X80000000Y0D03*
X75000000Y0D03*
X70000000Y0D03*
X65000000Y0D03*
X60000000Y0D03*
%TD*%
D25*
%TO.C,J8*%
X59560000Y-26300000D03*
D19*
X59560000Y-28840000D03*
X59560000Y-31380000D03*
X59560000Y-33920000D03*
X59560000Y-36460000D03*
X59560000Y-39000000D03*
%TD*%
D25*
%TO.C,J6*%
X74800000Y-26300000D03*
D19*
X74800000Y-28840000D03*
X74800000Y-31380000D03*
X74800000Y-33920000D03*
%TD*%
D23*
%TO.C,H3*%
X-8900000Y-47900000D03*
X-8197056Y-46202944D03*
X-8197056Y-49597056D03*
X-6500000Y-45500000D03*
D24*
X-6500000Y-47900000D03*
D23*
X-6500000Y-50300000D03*
X-4802944Y-46202944D03*
X-4802944Y-49597056D03*
X-4100000Y-47900000D03*
%TD*%
%TO.C,H1*%
X-8900000Y5100000D03*
X-8197056Y6797056D03*
X-8197056Y3402944D03*
X-6500000Y7500000D03*
D24*
X-6500000Y5100000D03*
D23*
X-6500000Y2700000D03*
X-4802944Y6797056D03*
X-4802944Y3402944D03*
X-4100000Y5100000D03*
%TD*%
D21*
%TO.C,J1*%
X25000000Y0D03*
D22*
X20000000Y0D03*
X15000000Y0D03*
X10000000Y0D03*
X5000000Y0D03*
X0Y0D03*
%TD*%
D23*
%TO.C,H4*%
X89100000Y-47900000D03*
X89802944Y-46202944D03*
X89802944Y-49597056D03*
X91500000Y-45500000D03*
D24*
X91500000Y-47900000D03*
D23*
X91500000Y-50300000D03*
X93197056Y-46202944D03*
X93197056Y-49597056D03*
X93900000Y-47900000D03*
%TD*%
%LPD*%
M02*
