%TF.GenerationSoftware,KiCad,Pcbnew,7.0.9*%
%TF.CreationDate,2023-12-10T19:04:28+01:00*%
%TF.ProjectId,ledctrl,6c656463-7472-46c2-9e6b-696361645f70,rev?*%
%TF.SameCoordinates,Original*%
%TF.FileFunction,Other,Comment*%
%FSLAX46Y46*%
G04 Gerber Fmt 4.6, Leading zero omitted, Abs format (unit mm)*
G04 Created by KiCad (PCBNEW 7.0.9) date 2023-12-10 19:04:28*
%MOMM*%
%LPD*%
G01*
G04 APERTURE LIST*
%ADD10C,0.150000*%
G04 APERTURE END LIST*
D10*
X73360000Y-23725000D02*
X94510000Y-23725000D01*
X94510000Y-36475000D01*
X73360000Y-36475000D01*
X73360000Y-23725000D01*
X96254819Y-25542856D02*
X96254819Y-25733332D01*
X96254819Y-25733332D02*
X96302438Y-25828570D01*
X96302438Y-25828570D02*
X96350057Y-25876189D01*
X96350057Y-25876189D02*
X96492914Y-25971427D01*
X96492914Y-25971427D02*
X96683390Y-26019046D01*
X96683390Y-26019046D02*
X97064342Y-26019046D01*
X97064342Y-26019046D02*
X97159580Y-25971427D01*
X97159580Y-25971427D02*
X97207200Y-25923808D01*
X97207200Y-25923808D02*
X97254819Y-25828570D01*
X97254819Y-25828570D02*
X97254819Y-25638094D01*
X97254819Y-25638094D02*
X97207200Y-25542856D01*
X97207200Y-25542856D02*
X97159580Y-25495237D01*
X97159580Y-25495237D02*
X97064342Y-25447618D01*
X97064342Y-25447618D02*
X96826247Y-25447618D01*
X96826247Y-25447618D02*
X96731009Y-25495237D01*
X96731009Y-25495237D02*
X96683390Y-25542856D01*
X96683390Y-25542856D02*
X96635771Y-25638094D01*
X96635771Y-25638094D02*
X96635771Y-25828570D01*
X96635771Y-25828570D02*
X96683390Y-25923808D01*
X96683390Y-25923808D02*
X96731009Y-25971427D01*
X96731009Y-25971427D02*
X96826247Y-26019046D01*
X96254819Y-24828570D02*
X96254819Y-24733332D01*
X96254819Y-24733332D02*
X96302438Y-24638094D01*
X96302438Y-24638094D02*
X96350057Y-24590475D01*
X96350057Y-24590475D02*
X96445295Y-24542856D01*
X96445295Y-24542856D02*
X96635771Y-24495237D01*
X96635771Y-24495237D02*
X96873866Y-24495237D01*
X96873866Y-24495237D02*
X97064342Y-24542856D01*
X97064342Y-24542856D02*
X97159580Y-24590475D01*
X97159580Y-24590475D02*
X97207200Y-24638094D01*
X97207200Y-24638094D02*
X97254819Y-24733332D01*
X97254819Y-24733332D02*
X97254819Y-24828570D01*
X97254819Y-24828570D02*
X97207200Y-24923808D01*
X97207200Y-24923808D02*
X97159580Y-24971427D01*
X97159580Y-24971427D02*
X97064342Y-25019046D01*
X97064342Y-25019046D02*
X96873866Y-25066665D01*
X96873866Y-25066665D02*
X96635771Y-25066665D01*
X96635771Y-25066665D02*
X96445295Y-25019046D01*
X96445295Y-25019046D02*
X96350057Y-24971427D01*
X96350057Y-24971427D02*
X96302438Y-24923808D01*
X96302438Y-24923808D02*
X96254819Y-24828570D01*
X97207200Y-24019046D02*
X97254819Y-24019046D01*
X97254819Y-24019046D02*
X97350057Y-24066665D01*
X97350057Y-24066665D02*
X97397676Y-24114284D01*
X96254819Y-23399999D02*
X96254819Y-23304761D01*
X96254819Y-23304761D02*
X96302438Y-23209523D01*
X96302438Y-23209523D02*
X96350057Y-23161904D01*
X96350057Y-23161904D02*
X96445295Y-23114285D01*
X96445295Y-23114285D02*
X96635771Y-23066666D01*
X96635771Y-23066666D02*
X96873866Y-23066666D01*
X96873866Y-23066666D02*
X97064342Y-23114285D01*
X97064342Y-23114285D02*
X97159580Y-23161904D01*
X97159580Y-23161904D02*
X97207200Y-23209523D01*
X97207200Y-23209523D02*
X97254819Y-23304761D01*
X97254819Y-23304761D02*
X97254819Y-23399999D01*
X97254819Y-23399999D02*
X97207200Y-23495237D01*
X97207200Y-23495237D02*
X97159580Y-23542856D01*
X97159580Y-23542856D02*
X97064342Y-23590475D01*
X97064342Y-23590475D02*
X96873866Y-23638094D01*
X96873866Y-23638094D02*
X96635771Y-23638094D01*
X96635771Y-23638094D02*
X96445295Y-23590475D01*
X96445295Y-23590475D02*
X96350057Y-23542856D01*
X96350057Y-23542856D02*
X96302438Y-23495237D01*
X96302438Y-23495237D02*
X96254819Y-23399999D01*
X96254819Y-22447618D02*
X96254819Y-22352380D01*
X96254819Y-22352380D02*
X96302438Y-22257142D01*
X96302438Y-22257142D02*
X96350057Y-22209523D01*
X96350057Y-22209523D02*
X96445295Y-22161904D01*
X96445295Y-22161904D02*
X96635771Y-22114285D01*
X96635771Y-22114285D02*
X96873866Y-22114285D01*
X96873866Y-22114285D02*
X97064342Y-22161904D01*
X97064342Y-22161904D02*
X97159580Y-22209523D01*
X97159580Y-22209523D02*
X97207200Y-22257142D01*
X97207200Y-22257142D02*
X97254819Y-22352380D01*
X97254819Y-22352380D02*
X97254819Y-22447618D01*
X97254819Y-22447618D02*
X97207200Y-22542856D01*
X97207200Y-22542856D02*
X97159580Y-22590475D01*
X97159580Y-22590475D02*
X97064342Y-22638094D01*
X97064342Y-22638094D02*
X96873866Y-22685713D01*
X96873866Y-22685713D02*
X96635771Y-22685713D01*
X96635771Y-22685713D02*
X96445295Y-22638094D01*
X96445295Y-22638094D02*
X96350057Y-22590475D01*
X96350057Y-22590475D02*
X96302438Y-22542856D01*
X96302438Y-22542856D02*
X96254819Y-22447618D01*
X96254819Y-21495237D02*
X96254819Y-21399999D01*
X96254819Y-21399999D02*
X96302438Y-21304761D01*
X96302438Y-21304761D02*
X96350057Y-21257142D01*
X96350057Y-21257142D02*
X96445295Y-21209523D01*
X96445295Y-21209523D02*
X96635771Y-21161904D01*
X96635771Y-21161904D02*
X96873866Y-21161904D01*
X96873866Y-21161904D02*
X97064342Y-21209523D01*
X97064342Y-21209523D02*
X97159580Y-21257142D01*
X97159580Y-21257142D02*
X97207200Y-21304761D01*
X97207200Y-21304761D02*
X97254819Y-21399999D01*
X97254819Y-21399999D02*
X97254819Y-21495237D01*
X97254819Y-21495237D02*
X97207200Y-21590475D01*
X97207200Y-21590475D02*
X97159580Y-21638094D01*
X97159580Y-21638094D02*
X97064342Y-21685713D01*
X97064342Y-21685713D02*
X96873866Y-21733332D01*
X96873866Y-21733332D02*
X96635771Y-21733332D01*
X96635771Y-21733332D02*
X96445295Y-21685713D01*
X96445295Y-21685713D02*
X96350057Y-21638094D01*
X96350057Y-21638094D02*
X96302438Y-21590475D01*
X96302438Y-21590475D02*
X96254819Y-21495237D01*
X96254819Y-20542856D02*
X96254819Y-20447618D01*
X96254819Y-20447618D02*
X96302438Y-20352380D01*
X96302438Y-20352380D02*
X96350057Y-20304761D01*
X96350057Y-20304761D02*
X96445295Y-20257142D01*
X96445295Y-20257142D02*
X96635771Y-20209523D01*
X96635771Y-20209523D02*
X96873866Y-20209523D01*
X96873866Y-20209523D02*
X97064342Y-20257142D01*
X97064342Y-20257142D02*
X97159580Y-20304761D01*
X97159580Y-20304761D02*
X97207200Y-20352380D01*
X97207200Y-20352380D02*
X97254819Y-20447618D01*
X97254819Y-20447618D02*
X97254819Y-20542856D01*
X97254819Y-20542856D02*
X97207200Y-20638094D01*
X97207200Y-20638094D02*
X97159580Y-20685713D01*
X97159580Y-20685713D02*
X97064342Y-20733332D01*
X97064342Y-20733332D02*
X96873866Y-20780951D01*
X96873866Y-20780951D02*
X96635771Y-20780951D01*
X96635771Y-20780951D02*
X96445295Y-20733332D01*
X96445295Y-20733332D02*
X96350057Y-20685713D01*
X96350057Y-20685713D02*
X96302438Y-20638094D01*
X96302438Y-20638094D02*
X96254819Y-20542856D01*
X97254819Y-19019046D02*
X96588152Y-19019046D01*
X96683390Y-19019046D02*
X96635771Y-18971427D01*
X96635771Y-18971427D02*
X96588152Y-18876189D01*
X96588152Y-18876189D02*
X96588152Y-18733332D01*
X96588152Y-18733332D02*
X96635771Y-18638094D01*
X96635771Y-18638094D02*
X96731009Y-18590475D01*
X96731009Y-18590475D02*
X97254819Y-18590475D01*
X96731009Y-18590475D02*
X96635771Y-18542856D01*
X96635771Y-18542856D02*
X96588152Y-18447618D01*
X96588152Y-18447618D02*
X96588152Y-18304761D01*
X96588152Y-18304761D02*
X96635771Y-18209522D01*
X96635771Y-18209522D02*
X96731009Y-18161903D01*
X96731009Y-18161903D02*
X97254819Y-18161903D01*
X97254819Y-17685713D02*
X96588152Y-17685713D01*
X96683390Y-17685713D02*
X96635771Y-17638094D01*
X96635771Y-17638094D02*
X96588152Y-17542856D01*
X96588152Y-17542856D02*
X96588152Y-17399999D01*
X96588152Y-17399999D02*
X96635771Y-17304761D01*
X96635771Y-17304761D02*
X96731009Y-17257142D01*
X96731009Y-17257142D02*
X97254819Y-17257142D01*
X96731009Y-17257142D02*
X96635771Y-17209523D01*
X96635771Y-17209523D02*
X96588152Y-17114285D01*
X96588152Y-17114285D02*
X96588152Y-16971428D01*
X96588152Y-16971428D02*
X96635771Y-16876189D01*
X96635771Y-16876189D02*
X96731009Y-16828570D01*
X96731009Y-16828570D02*
X97254819Y-16828570D01*
X93500000Y8600001D02*
X98536420Y8600001D01*
X93500000Y-51400001D02*
X98536420Y-51400001D01*
X97950000Y8600001D02*
X97950000Y-51400001D01*
X97950000Y8600001D02*
X97950000Y-51400001D01*
X97950000Y8600001D02*
X98536421Y7473497D01*
X97950000Y8600001D02*
X97363579Y7473497D01*
X97950000Y-51400001D02*
X97363579Y-50273497D01*
X97950000Y-51400001D02*
X98536421Y-50273497D01*
X37976190Y11453750D02*
X37404762Y11453750D01*
X37690476Y11453750D02*
X37690476Y12453750D01*
X37690476Y12453750D02*
X37595238Y12310892D01*
X37595238Y12310892D02*
X37500000Y12215654D01*
X37500000Y12215654D02*
X37404762Y12168035D01*
X38595238Y12453750D02*
X38690476Y12453750D01*
X38690476Y12453750D02*
X38785714Y12406130D01*
X38785714Y12406130D02*
X38833333Y12358511D01*
X38833333Y12358511D02*
X38880952Y12263273D01*
X38880952Y12263273D02*
X38928571Y12072797D01*
X38928571Y12072797D02*
X38928571Y11834702D01*
X38928571Y11834702D02*
X38880952Y11644226D01*
X38880952Y11644226D02*
X38833333Y11548988D01*
X38833333Y11548988D02*
X38785714Y11501369D01*
X38785714Y11501369D02*
X38690476Y11453750D01*
X38690476Y11453750D02*
X38595238Y11453750D01*
X38595238Y11453750D02*
X38500000Y11501369D01*
X38500000Y11501369D02*
X38452381Y11548988D01*
X38452381Y11548988D02*
X38404762Y11644226D01*
X38404762Y11644226D02*
X38357143Y11834702D01*
X38357143Y11834702D02*
X38357143Y12072797D01*
X38357143Y12072797D02*
X38404762Y12263273D01*
X38404762Y12263273D02*
X38452381Y12358511D01*
X38452381Y12358511D02*
X38500000Y12406130D01*
X38500000Y12406130D02*
X38595238Y12453750D01*
X39833333Y12453750D02*
X39357143Y12453750D01*
X39357143Y12453750D02*
X39309524Y11977559D01*
X39309524Y11977559D02*
X39357143Y12025178D01*
X39357143Y12025178D02*
X39452381Y12072797D01*
X39452381Y12072797D02*
X39690476Y12072797D01*
X39690476Y12072797D02*
X39785714Y12025178D01*
X39785714Y12025178D02*
X39833333Y11977559D01*
X39833333Y11977559D02*
X39880952Y11882321D01*
X39880952Y11882321D02*
X39880952Y11644226D01*
X39880952Y11644226D02*
X39833333Y11548988D01*
X39833333Y11548988D02*
X39785714Y11501369D01*
X39785714Y11501369D02*
X39690476Y11453750D01*
X39690476Y11453750D02*
X39452381Y11453750D01*
X39452381Y11453750D02*
X39357143Y11501369D01*
X39357143Y11501369D02*
X39309524Y11548988D01*
X40357143Y11501369D02*
X40357143Y11453749D01*
X40357143Y11453749D02*
X40309524Y11358511D01*
X40309524Y11358511D02*
X40261905Y11310892D01*
X40976190Y12453749D02*
X41071428Y12453749D01*
X41071428Y12453749D02*
X41166666Y12406130D01*
X41166666Y12406130D02*
X41214285Y12358511D01*
X41214285Y12358511D02*
X41261904Y12263273D01*
X41261904Y12263273D02*
X41309523Y12072797D01*
X41309523Y12072797D02*
X41309523Y11834702D01*
X41309523Y11834702D02*
X41261904Y11644226D01*
X41261904Y11644226D02*
X41214285Y11548988D01*
X41214285Y11548988D02*
X41166666Y11501369D01*
X41166666Y11501369D02*
X41071428Y11453749D01*
X41071428Y11453749D02*
X40976190Y11453749D01*
X40976190Y11453749D02*
X40880952Y11501369D01*
X40880952Y11501369D02*
X40833333Y11548988D01*
X40833333Y11548988D02*
X40785714Y11644226D01*
X40785714Y11644226D02*
X40738095Y11834702D01*
X40738095Y11834702D02*
X40738095Y12072797D01*
X40738095Y12072797D02*
X40785714Y12263273D01*
X40785714Y12263273D02*
X40833333Y12358511D01*
X40833333Y12358511D02*
X40880952Y12406130D01*
X40880952Y12406130D02*
X40976190Y12453749D01*
X41928571Y12453749D02*
X42023809Y12453749D01*
X42023809Y12453749D02*
X42119047Y12406130D01*
X42119047Y12406130D02*
X42166666Y12358511D01*
X42166666Y12358511D02*
X42214285Y12263273D01*
X42214285Y12263273D02*
X42261904Y12072797D01*
X42261904Y12072797D02*
X42261904Y11834702D01*
X42261904Y11834702D02*
X42214285Y11644226D01*
X42214285Y11644226D02*
X42166666Y11548988D01*
X42166666Y11548988D02*
X42119047Y11501369D01*
X42119047Y11501369D02*
X42023809Y11453749D01*
X42023809Y11453749D02*
X41928571Y11453749D01*
X41928571Y11453749D02*
X41833333Y11501369D01*
X41833333Y11501369D02*
X41785714Y11548988D01*
X41785714Y11548988D02*
X41738095Y11644226D01*
X41738095Y11644226D02*
X41690476Y11834702D01*
X41690476Y11834702D02*
X41690476Y12072797D01*
X41690476Y12072797D02*
X41738095Y12263273D01*
X41738095Y12263273D02*
X41785714Y12358511D01*
X41785714Y12358511D02*
X41833333Y12406130D01*
X41833333Y12406130D02*
X41928571Y12453749D01*
X42880952Y12453749D02*
X42976190Y12453749D01*
X42976190Y12453749D02*
X43071428Y12406130D01*
X43071428Y12406130D02*
X43119047Y12358511D01*
X43119047Y12358511D02*
X43166666Y12263273D01*
X43166666Y12263273D02*
X43214285Y12072797D01*
X43214285Y12072797D02*
X43214285Y11834702D01*
X43214285Y11834702D02*
X43166666Y11644226D01*
X43166666Y11644226D02*
X43119047Y11548988D01*
X43119047Y11548988D02*
X43071428Y11501368D01*
X43071428Y11501368D02*
X42976190Y11453749D01*
X42976190Y11453749D02*
X42880952Y11453749D01*
X42880952Y11453749D02*
X42785714Y11501368D01*
X42785714Y11501368D02*
X42738095Y11548988D01*
X42738095Y11548988D02*
X42690476Y11644226D01*
X42690476Y11644226D02*
X42642857Y11834702D01*
X42642857Y11834702D02*
X42642857Y12072797D01*
X42642857Y12072797D02*
X42690476Y12263273D01*
X42690476Y12263273D02*
X42738095Y12358511D01*
X42738095Y12358511D02*
X42785714Y12406130D01*
X42785714Y12406130D02*
X42880952Y12453749D01*
X43833333Y12453749D02*
X43928571Y12453749D01*
X43928571Y12453749D02*
X44023809Y12406130D01*
X44023809Y12406130D02*
X44071428Y12358511D01*
X44071428Y12358511D02*
X44119047Y12263273D01*
X44119047Y12263273D02*
X44166666Y12072797D01*
X44166666Y12072797D02*
X44166666Y11834702D01*
X44166666Y11834702D02*
X44119047Y11644226D01*
X44119047Y11644226D02*
X44071428Y11548988D01*
X44071428Y11548988D02*
X44023809Y11501368D01*
X44023809Y11501368D02*
X43928571Y11453749D01*
X43928571Y11453749D02*
X43833333Y11453749D01*
X43833333Y11453749D02*
X43738095Y11501368D01*
X43738095Y11501368D02*
X43690476Y11548988D01*
X43690476Y11548988D02*
X43642857Y11644226D01*
X43642857Y11644226D02*
X43595238Y11834702D01*
X43595238Y11834702D02*
X43595238Y12072797D01*
X43595238Y12072797D02*
X43642857Y12263273D01*
X43642857Y12263273D02*
X43690476Y12358511D01*
X43690476Y12358511D02*
X43738095Y12406130D01*
X43738095Y12406130D02*
X43833333Y12453749D01*
X45357143Y11453749D02*
X45357143Y12120416D01*
X45357143Y12025178D02*
X45404762Y12072797D01*
X45404762Y12072797D02*
X45500000Y12120416D01*
X45500000Y12120416D02*
X45642857Y12120416D01*
X45642857Y12120416D02*
X45738095Y12072797D01*
X45738095Y12072797D02*
X45785714Y11977559D01*
X45785714Y11977559D02*
X45785714Y11453749D01*
X45785714Y11977559D02*
X45833333Y12072797D01*
X45833333Y12072797D02*
X45928571Y12120416D01*
X45928571Y12120416D02*
X46071428Y12120416D01*
X46071428Y12120416D02*
X46166667Y12072797D01*
X46166667Y12072797D02*
X46214286Y11977559D01*
X46214286Y11977559D02*
X46214286Y11453749D01*
X46690476Y11453749D02*
X46690476Y12120416D01*
X46690476Y12025178D02*
X46738095Y12072797D01*
X46738095Y12072797D02*
X46833333Y12120416D01*
X46833333Y12120416D02*
X46976190Y12120416D01*
X46976190Y12120416D02*
X47071428Y12072797D01*
X47071428Y12072797D02*
X47119047Y11977559D01*
X47119047Y11977559D02*
X47119047Y11453749D01*
X47119047Y11977559D02*
X47166666Y12072797D01*
X47166666Y12072797D02*
X47261904Y12120416D01*
X47261904Y12120416D02*
X47404761Y12120416D01*
X47404761Y12120416D02*
X47500000Y12072797D01*
X47500000Y12072797D02*
X47547619Y11977559D01*
X47547619Y11977559D02*
X47547619Y11453749D01*
X-10000001Y7100001D02*
X-10000001Y11344990D01*
X95000001Y7100000D02*
X95000001Y11344989D01*
X-10000001Y10758570D02*
X95000001Y10758569D01*
X-10000001Y10758570D02*
X95000001Y10758569D01*
X-10000001Y10758570D02*
X-8873497Y11344991D01*
X-10000001Y10758570D02*
X-8873497Y10172149D01*
X95000001Y10758569D02*
X93873497Y10172148D01*
X95000001Y10758569D02*
X93873497Y11344990D01*
%TO.C,H2*%
X94700000Y5100000D02*
G75*
G03*
X94700000Y5100000I-3200000J0D01*
G01*
%TO.C,H3*%
X-3300000Y-47900000D02*
G75*
G03*
X-3300000Y-47900000I-3200000J0D01*
G01*
%TO.C,H1*%
X-3300000Y5100000D02*
G75*
G03*
X-3300000Y5100000I-3200000J0D01*
G01*
%TO.C,H4*%
X94700000Y-47900000D02*
G75*
G03*
X94700000Y-47900000I-3200000J0D01*
G01*
%TD*%
M02*
