M48
; DRILL file {KiCad 7.0.9} date Sun Dec 10 19:04:28 2023
; FORMAT={-:-/ absolute / inch / decimal}
; #@! TF.CreationDate,2023-12-10T19:04:28+01:00
; #@! TF.GenerationSoftware,Kicad,Pcbnew,7.0.9
; #@! TF.FileFunction,Plated,1,2,PTH
FMAT,2
INCH
; #@! TA.AperFunction,Plated,PTH,ViaDrill
T1C0.0118
; #@! TA.AperFunction,Plated,PTH,ComponentDrill
T2C0.0197
; #@! TA.AperFunction,Plated,PTH,ComponentDrill
T3C0.0236
; #@! TA.AperFunction,Plated,PTH,ComponentDrill
T4C0.0394
; #@! TA.AperFunction,Plated,PTH,ComponentDrill
T5C0.0472
; #@! TA.AperFunction,Plated,PTH,ComponentDrill
T6C0.0512
; #@! TA.AperFunction,Plated,PTH,ComponentDrill
T7C0.1260
%
G90
G05
T1
X-0.3504Y-1.2376
X-0.3445Y-1.1057
X-0.3189Y-0.9006
X-0.3189Y-0.9262
X-0.3189Y-0.9793
X-0.3189Y-1.0049
X-0.2677Y-0.5886
X-0.2677Y-0.624
X-0.2677Y-0.6594
X-0.2677Y-0.7677
X-0.1496Y-1.7165
X-0.1024Y-0.5886
X-0.1024Y-0.624
X-0.1024Y-0.6594
X-0.1024Y-0.7677
X-0.0758Y-0.9764
X-0.0376Y-1.3346
X-0.0376Y-1.3661
X-0.0376Y-1.5591
X-0.0376Y-1.5906
X-0.0354Y-0.8937
X-0.0061Y-1.4154
X0.0108Y-1.2795
X0.0276Y-1.0118
X0.0315Y-0.7677
X0.0354Y-0.8937
X0.0364Y-1.2795
X0.0551Y-1.0591
X0.0551Y-1.1063
X0.0866Y-0.5886
X0.0866Y-0.624
X0.0866Y-0.6594
X0.0866Y-1.5807
X0.0896Y-1.2795
X0.1152Y-1.2795
X0.1181Y-1.0118
X0.1181Y-1.0591
X0.1181Y-1.1063
X0.1496Y-1.3996
X0.2484Y-1.4232
X0.2484Y-1.5413
X0.252Y-0.5886
X0.252Y-0.624
X0.252Y-0.6594
X0.3504Y-0.3976
X0.3504Y-0.4331
X0.3504Y-0.4685
X0.4665Y-0.5352
X0.4665Y-0.5852
X0.4665Y-0.6352
X0.4803Y-1.0394
X0.4921Y-0.7992
X0.5276Y-1.0394
X0.5748Y-1.0394
X0.5984Y-1.3642
X0.622Y-1.0394
X0.6693Y-1.2795
X0.6732Y-1.1417
X0.689Y-0.4547
X0.7087Y-1.1417
X0.7126Y-1.2795
X0.7283Y-0.4547
X0.8602Y-0.5352
X0.8602Y-0.5852
X0.8602Y-0.6352
X0.8858Y-0.7992
X1.0827Y-0.4547
X1.1024Y-1.253
X1.122Y-0.4547
X1.1496Y-1.253
X1.1811Y-1.6142
X1.1811Y-1.7323
X1.1969Y-1.253
X1.2539Y-0.5352
X1.2539Y-0.5852
X1.2539Y-0.6352
X1.2677Y-1.253
X1.2795Y-0.7992
X1.315Y-1.253
X1.3622Y-1.253
X1.3937Y-1.6024
X1.3996Y-1.3445
X1.3996Y-1.7343
X1.439Y-1.3051
X1.4764Y-0.4547
X1.4921Y-1.3976
X1.4921Y-1.4606
X1.4921Y-1.5394
X1.4921Y-1.6181
X1.4921Y-1.6811
X1.5157Y-1.2953
X1.5157Y-0.4547
X1.5472Y-1.2953
X1.5472Y-1.3976
X1.5472Y-1.6811
X1.6102Y-1.3976
X1.6102Y-1.6811
X1.6476Y-0.5352
X1.6476Y-0.5852
X1.6476Y-0.6352
X1.6732Y-1.3976
X1.6732Y-1.6811
X1.6732Y-0.7992
X1.7362Y-1.3976
X1.7362Y-1.6811
X1.7992Y-1.3051
X1.7992Y-1.3976
X1.7992Y-1.6811
X1.8543Y-1.3976
X1.8543Y-1.4606
X1.8543Y-1.5394
X1.8543Y-1.6181
X1.8543Y-1.6811
X1.8701Y-0.4547
X1.9075Y-1.3051
X1.9094Y-0.4547
X1.9469Y-1.3445
X1.9469Y-1.3819
X1.9488Y-1.7402
X1.9685Y-1.7028
X2.0118Y-1.7028
X2.0413Y-0.5352
X2.0413Y-0.5852
X2.0413Y-0.6352
X2.0551Y-1.7028
X2.0669Y-0.7992
X2.0728Y-1.289
X2.0728Y-1.3354
X2.0728Y-1.4307
X2.0886Y-1.5154
X2.0906Y-1.6339
X2.0906Y-1.7402
X2.2028Y-1.5555
X2.2165Y-1.6378
X2.2362Y-1.7402
X2.2638Y-0.4547
X2.3031Y-0.4547
X2.3268Y-0.2677
X2.3976Y-0.4547
X2.437Y-0.4547
X2.5984Y-0.5886
X2.5984Y-0.624
X2.5984Y-0.6594
X2.6457Y-0.8898
X2.6535Y-1.5055
X2.6535Y-1.6787
X2.7638Y-0.5886
X2.7638Y-0.624
X2.7638Y-0.6594
X2.9094Y-0.3976
X2.9094Y-0.4331
X2.9094Y-0.4685
X3.0256Y-0.5352
X3.0256Y-0.5852
X3.0256Y-0.6352
X3.0472Y-1.0661
X3.0512Y-0.7992
X3.1756Y-1.4327
X3.5039Y-0.1969
X3.6216Y-0.2436
T2
X-0.3504Y0.2008
X-0.3504Y-1.8858
X-0.3227Y0.2676
X-0.3227Y0.134
X-0.3227Y-1.819
X-0.3227Y-1.9526
X-0.2559Y0.2953
X-0.2559Y0.1063
X-0.2559Y-1.7913
X-0.2559Y-1.9803
X-0.1891Y0.2676
X-0.1891Y0.134
X-0.1891Y-1.819
X-0.1891Y-1.9526
X-0.1614Y0.2008
X-0.1614Y-1.8858
X3.5079Y0.2008
X3.5079Y-1.8858
X3.5355Y0.2676
X3.5355Y0.134
X3.5355Y-1.819
X3.5355Y-1.9526
X3.6024Y0.2953
X3.6024Y0.1063
X3.6024Y-1.7913
X3.6024Y-1.9803
X3.6692Y0.2676
X3.6692Y0.134
X3.6692Y-1.819
X3.6692Y-1.9526
X3.6969Y0.2008
X3.6969Y-1.8858
T4
X0.9165Y-1.6772
X1.0165Y-1.6772
X1.1165Y-1.6772
X1.2165Y-1.6772
X2.3449Y-1.0354
X2.3449Y-1.1354
X2.3449Y-1.2354
X2.3449Y-1.3354
X2.3449Y-1.4354
X2.3449Y-1.5354
X2.9449Y-1.0354
X2.9449Y-1.1354
X2.9449Y-1.2354
X2.9449Y-1.3354
X2.9449Y-1.5354
X3.0449Y-1.5354
X3.1449Y-1.5354
X3.2449Y-1.5354
T5
X3.4921Y-0.3346
X3.4921Y-0.4724
X3.4921Y-0.6102
X3.4921Y-0.748
T6
X0.0Y0.0
X0.1969Y0.0
X0.3937Y0.0
X0.5906Y0.0
X0.7874Y0.0
X0.9843Y0.0
X1.1811Y0.0
X1.378Y0.0
X1.5748Y0.0
X1.7717Y0.0
X1.9685Y0.0
X2.1654Y0.0
X2.3622Y0.0
X2.5591Y0.0
X2.7559Y0.0
X2.9528Y0.0
X3.1496Y0.0
X3.3465Y0.0
T7
X-0.2559Y0.2008
X-0.2559Y-1.8858
X3.6024Y0.2008
X3.6024Y-1.8858
T3
G00X-0.2736Y-1.2925
M15
G01X-0.2972Y-1.2925
M16
G05
G00X-0.2736Y-1.6327
M15
G01X-0.2972Y-1.6327
M16
G05
G00X-0.0992Y-1.2925
M15
G01X-0.1425Y-1.2925
M16
G05
G00X-0.0992Y-1.6327
M15
G01X-0.1425Y-1.6327
M16
G05
T0
M30
