%TF.GenerationSoftware,KiCad,Pcbnew,7.0.9*%
%TF.CreationDate,2023-12-10T19:04:27+01:00*%
%TF.ProjectId,ledctrl,6c656463-7472-46c2-9e6b-696361645f70,rev?*%
%TF.SameCoordinates,Original*%
%TF.FileFunction,Paste,Top*%
%TF.FilePolarity,Positive*%
%FSLAX46Y46*%
G04 Gerber Fmt 4.6, Leading zero omitted, Abs format (unit mm)*
G04 Created by KiCad (PCBNEW 7.0.9) date 2023-12-10 19:04:27*
%MOMM*%
%LPD*%
G01*
G04 APERTURE LIST*
G04 Aperture macros list*
%AMRoundRect*
0 Rectangle with rounded corners*
0 $1 Rounding radius*
0 $2 $3 $4 $5 $6 $7 $8 $9 X,Y pos of 4 corners*
0 Add a 4 corners polygon primitive as box body*
4,1,4,$2,$3,$4,$5,$6,$7,$8,$9,$2,$3,0*
0 Add four circle primitives for the rounded corners*
1,1,$1+$1,$2,$3*
1,1,$1+$1,$4,$5*
1,1,$1+$1,$6,$7*
1,1,$1+$1,$8,$9*
0 Add four rect primitives between the rounded corners*
20,1,$1+$1,$2,$3,$4,$5,0*
20,1,$1+$1,$4,$5,$6,$7,0*
20,1,$1+$1,$6,$7,$8,$9,0*
20,1,$1+$1,$8,$9,$2,$3,0*%
%AMFreePoly0*
4,1,6,0.725000,-0.725000,-0.725000,-0.725000,-0.725000,0.125000,-0.125000,0.725000,0.725000,0.725000,0.725000,-0.725000,0.725000,-0.725000,$1*%
G04 Aperture macros list end*
%ADD10R,1.450000X0.600000*%
%ADD11R,1.450000X0.300000*%
%ADD12RoundRect,0.135000X0.135000X0.185000X-0.135000X0.185000X-0.135000X-0.185000X0.135000X-0.185000X0*%
%ADD13RoundRect,0.140000X-0.170000X0.140000X-0.170000X-0.140000X0.170000X-0.140000X0.170000X0.140000X0*%
%ADD14RoundRect,0.218750X-0.218750X-0.256250X0.218750X-0.256250X0.218750X0.256250X-0.218750X0.256250X0*%
%ADD15RoundRect,0.250000X1.000000X0.650000X-1.000000X0.650000X-1.000000X-0.650000X1.000000X-0.650000X0*%
%ADD16RoundRect,0.150000X-0.825000X-0.150000X0.825000X-0.150000X0.825000X0.150000X-0.825000X0.150000X0*%
%ADD17RoundRect,0.137500X-0.137500X-0.147500X0.137500X-0.147500X0.137500X0.147500X-0.137500X0.147500X0*%
%ADD18RoundRect,0.135000X0.185000X-0.135000X0.185000X0.135000X-0.185000X0.135000X-0.185000X-0.135000X0*%
%ADD19RoundRect,0.140000X0.170000X-0.140000X0.170000X0.140000X-0.170000X0.140000X-0.170000X-0.140000X0*%
%ADD20R,1.500000X2.000000*%
%ADD21R,3.800000X2.000000*%
%ADD22RoundRect,0.250000X-0.475000X0.250000X-0.475000X-0.250000X0.475000X-0.250000X0.475000X0.250000X0*%
%ADD23RoundRect,0.250000X0.250000X0.475000X-0.250000X0.475000X-0.250000X-0.475000X0.250000X-0.475000X0*%
%ADD24RoundRect,0.135000X-0.185000X0.135000X-0.185000X-0.135000X0.185000X-0.135000X0.185000X0.135000X0*%
%ADD25RoundRect,0.250000X-1.000000X-0.650000X1.000000X-0.650000X1.000000X0.650000X-1.000000X0.650000X0*%
%ADD26RoundRect,0.218750X0.218750X0.256250X-0.218750X0.256250X-0.218750X-0.256250X0.218750X-0.256250X0*%
%ADD27RoundRect,0.250000X-1.000000X1.500000X-1.000000X-1.500000X1.000000X-1.500000X1.000000X1.500000X0*%
%ADD28RoundRect,0.150000X0.150000X-0.475000X0.150000X0.475000X-0.150000X0.475000X-0.150000X-0.475000X0*%
%ADD29RoundRect,0.135000X-0.135000X-0.185000X0.135000X-0.185000X0.135000X0.185000X-0.135000X0.185000X0*%
%ADD30R,2.700000X0.800000*%
%ADD31RoundRect,0.105000X-0.245000X0.245000X-0.245000X-0.245000X0.245000X-0.245000X0.245000X0.245000X0*%
%ADD32R,0.800000X0.400000*%
%ADD33R,0.400000X0.800000*%
%ADD34FreePoly0,180.000000*%
%ADD35R,1.450000X1.450000*%
%ADD36R,0.700000X0.700000*%
%ADD37RoundRect,0.140000X0.140000X0.170000X-0.140000X0.170000X-0.140000X-0.170000X0.140000X-0.170000X0*%
%ADD38RoundRect,0.150000X0.512500X0.150000X-0.512500X0.150000X-0.512500X-0.150000X0.512500X-0.150000X0*%
G04 APERTURE END LIST*
D10*
%TO.C,J4*%
X-2155000Y-33900000D03*
X-2155000Y-34700000D03*
D11*
X-2155000Y-35900000D03*
X-2155000Y-36900000D03*
X-2155000Y-37400000D03*
X-2155000Y-38400000D03*
D10*
X-2155000Y-39600000D03*
X-2155000Y-40400000D03*
X-2155000Y-40400000D03*
X-2155000Y-39600000D03*
D11*
X-2155000Y-38900000D03*
X-2155000Y-37900000D03*
X-2155000Y-36400000D03*
X-2155000Y-35400000D03*
D10*
X-2155000Y-34700000D03*
X-2155000Y-33900000D03*
%TD*%
D12*
%TO.C,R16*%
X11635000Y-18900000D03*
X10615000Y-18900000D03*
%TD*%
D13*
%TO.C,C3*%
X100000Y-27120000D03*
X100000Y-28080000D03*
%TD*%
D14*
%TO.C,D20*%
X7737499Y-20300001D03*
X9312499Y-20300001D03*
%TD*%
D12*
%TO.C,R22*%
X11635000Y-20300000D03*
X10615000Y-20300000D03*
%TD*%
%TO.C,R19*%
X41634999Y-18900000D03*
X40614999Y-18900000D03*
%TD*%
D15*
%TO.C,D5*%
X9800000Y-33100000D03*
X5800000Y-33100000D03*
%TD*%
D16*
%TO.C,Q4*%
X40050000Y-13595000D03*
X40050000Y-14865000D03*
X40050000Y-16135000D03*
X40050000Y-17405000D03*
X45000000Y-17405000D03*
X45000000Y-16135000D03*
X45000000Y-14865000D03*
X45000000Y-13595000D03*
%TD*%
D12*
%TO.C,R29*%
X39435001Y-18900000D03*
X38415001Y-18900000D03*
%TD*%
%TO.C,R30*%
X51635000Y-20300000D03*
X50615000Y-20300000D03*
%TD*%
%TO.C,R21*%
X76635000Y-18900000D03*
X75615000Y-18900000D03*
%TD*%
D17*
%TO.C,SW1*%
X51375000Y-32740000D03*
X53925000Y-32740000D03*
X51375000Y-33900000D03*
X53925000Y-33900000D03*
%TD*%
D18*
%TO.C,R15*%
X28000000Y-33710000D03*
X28000000Y-32690000D03*
%TD*%
%TO.C,R12*%
X32200000Y-33709999D03*
X32200000Y-32689999D03*
%TD*%
D19*
%TO.C,C6*%
X12200000Y-28280000D03*
X12200000Y-27320000D03*
%TD*%
D13*
%TO.C,C19*%
X52200000Y-41500001D03*
X52200000Y-42460001D03*
%TD*%
D20*
%TO.C,U3*%
X17500000Y-30650000D03*
X15200000Y-30650000D03*
D21*
X15200000Y-36950000D03*
D20*
X12900000Y-30650000D03*
%TD*%
D12*
%TO.C,R20*%
X51634999Y-18900000D03*
X50614999Y-18900000D03*
%TD*%
D15*
%TO.C,D14*%
X15000000Y-11000000D03*
X11000000Y-11000000D03*
%TD*%
D19*
%TO.C,C9*%
X15800000Y-28280000D03*
X15800000Y-27320000D03*
%TD*%
D15*
%TO.C,D15*%
X25000000Y-11000000D03*
X21000000Y-11000000D03*
%TD*%
D16*
%TO.C,Q1*%
X10050000Y-13595000D03*
X10050000Y-14865000D03*
X10050000Y-16135000D03*
X10050000Y-17405000D03*
X15000000Y-17405000D03*
X15000000Y-16135000D03*
X15000000Y-14865000D03*
X15000000Y-13595000D03*
%TD*%
D22*
%TO.C,C4*%
X600000Y-29550000D03*
X600000Y-31450000D03*
%TD*%
D14*
%TO.C,D25*%
X72737499Y-20300001D03*
X74312499Y-20300001D03*
%TD*%
D19*
%TO.C,C25*%
X55050000Y-37400000D03*
X55050000Y-36440000D03*
%TD*%
D15*
%TO.C,D16*%
X35000000Y-11000000D03*
X31000000Y-11000000D03*
%TD*%
D12*
%TO.C,R28*%
X41635000Y-20300000D03*
X40615000Y-20300000D03*
%TD*%
D23*
%TO.C,C1*%
X-5150000Y-25200000D03*
X-7050000Y-25200000D03*
%TD*%
D12*
%TO.C,R31*%
X49435001Y-18900000D03*
X48415001Y-18900000D03*
%TD*%
D24*
%TO.C,R5*%
X89000000Y110000D03*
X89000000Y-910000D03*
%TD*%
D22*
%TO.C,C16*%
X58000000Y-8300000D03*
X58000000Y-10200000D03*
%TD*%
D12*
%TO.C,R17*%
X21634999Y-18900000D03*
X20614999Y-18900000D03*
%TD*%
D14*
%TO.C,D23*%
X37737499Y-20300001D03*
X39312499Y-20300001D03*
%TD*%
%TO.C,D22*%
X27737499Y-20300001D03*
X29312499Y-20300001D03*
%TD*%
D18*
%TO.C,R10*%
X34600000Y-33709999D03*
X34600000Y-32689999D03*
%TD*%
D15*
%TO.C,D19*%
X80000000Y-11000000D03*
X76000000Y-11000000D03*
%TD*%
D25*
%TO.C,D9*%
X21000000Y-7400000D03*
X25000000Y-7400000D03*
%TD*%
D24*
%TO.C,R3*%
X700000Y-23780000D03*
X700000Y-24800000D03*
%TD*%
D16*
%TO.C,Q6*%
X75050000Y-13595000D03*
X75050000Y-14865000D03*
X75050000Y-16135000D03*
X75050000Y-17405000D03*
X80000000Y-17405000D03*
X80000000Y-16135000D03*
X80000000Y-14865000D03*
X80000000Y-13595000D03*
%TD*%
D12*
%TO.C,R26*%
X31635000Y-20300000D03*
X30615000Y-20300000D03*
%TD*%
%TO.C,R33*%
X74435001Y-18900000D03*
X73415001Y-18900000D03*
%TD*%
D26*
%TO.C,D3*%
X91987500Y-3600000D03*
X90412500Y-3600000D03*
%TD*%
D25*
%TO.C,D12*%
X51000000Y-7400000D03*
X55000000Y-7400000D03*
%TD*%
D22*
%TO.C,C12*%
X18000000Y-8300000D03*
X18000000Y-10200000D03*
%TD*%
D16*
%TO.C,Q2*%
X20050000Y-13595000D03*
X20050000Y-14865000D03*
X20050000Y-16135000D03*
X20050000Y-17405000D03*
X25000000Y-17405000D03*
X25000000Y-16135000D03*
X25000000Y-14865000D03*
X25000000Y-13595000D03*
%TD*%
D18*
%TO.C,R2*%
X1800000Y-24800000D03*
X1800000Y-23780000D03*
%TD*%
D19*
%TO.C,C22*%
X77400000Y-28840000D03*
X77400000Y-27880000D03*
%TD*%
D22*
%TO.C,C13*%
X28000000Y-8300000D03*
X28000000Y-10200000D03*
%TD*%
D25*
%TO.C,D2*%
X-8200000Y-1600000D03*
X-4200000Y-1600000D03*
%TD*%
D27*
%TO.C,C11*%
X4200000Y-9350000D03*
X4200000Y-15850000D03*
%TD*%
%TO.C,C10*%
X-4800000Y-9349999D03*
X-4800000Y-15849999D03*
%TD*%
D25*
%TO.C,D10*%
X31000000Y-7400000D03*
X35000000Y-7400000D03*
%TD*%
D22*
%TO.C,C14*%
X38000000Y-8300000D03*
X38000000Y-10200000D03*
%TD*%
D12*
%TO.C,R23*%
X9435000Y-18900000D03*
X8415000Y-18900000D03*
%TD*%
D18*
%TO.C,R35*%
X85800000Y-29110000D03*
X85800000Y-28090000D03*
%TD*%
D12*
%TO.C,R27*%
X29435001Y-18900000D03*
X28415001Y-18900000D03*
%TD*%
D28*
%TO.C,U5*%
X66450000Y-41615000D03*
X67400000Y-41615000D03*
X68350000Y-41615000D03*
X68350000Y-39265000D03*
X67400000Y-39265000D03*
X66450000Y-39265000D03*
%TD*%
D12*
%TO.C,R25*%
X19435001Y-18900000D03*
X18415001Y-18900000D03*
%TD*%
D19*
%TO.C,C8*%
X14600000Y-28280000D03*
X14600000Y-27320000D03*
%TD*%
D26*
%TO.C,D4*%
X91987500Y-400000D03*
X90412500Y-400000D03*
%TD*%
D25*
%TO.C,D11*%
X41000000Y-7400000D03*
X45000000Y-7400000D03*
%TD*%
D29*
%TO.C,R1*%
X-3410000Y-22400000D03*
X-2390000Y-22400000D03*
%TD*%
D25*
%TO.C,D13*%
X76000000Y-7400000D03*
X80000000Y-7400000D03*
%TD*%
D12*
%TO.C,R24*%
X21635000Y-20300001D03*
X20615000Y-20300001D03*
%TD*%
D15*
%TO.C,D18*%
X55000000Y-11000000D03*
X51000000Y-11000000D03*
%TD*%
D19*
%TO.C,C24*%
X55050000Y-33800000D03*
X55050000Y-32840000D03*
%TD*%
D18*
%TO.C,R34*%
X87000000Y-29110000D03*
X87000000Y-28090000D03*
%TD*%
D28*
%TO.C,U2*%
X1250000Y-38825000D03*
X2200000Y-38825000D03*
X3150000Y-38825000D03*
X3150000Y-36475000D03*
X2200000Y-36475000D03*
X1250000Y-36475000D03*
%TD*%
D29*
%TO.C,R6*%
X4490000Y-36150000D03*
X5510000Y-36150000D03*
%TD*%
D18*
%TO.C,R13*%
X30400000Y-33709999D03*
X30400000Y-32689999D03*
%TD*%
D19*
%TO.C,C7*%
X13400000Y-28280000D03*
X13400000Y-27320000D03*
%TD*%
D25*
%TO.C,D1*%
X-8200000Y-5200000D03*
X-4200000Y-5200000D03*
%TD*%
D29*
%TO.C,R7*%
X4490000Y-39150000D03*
X5510000Y-39150000D03*
%TD*%
D12*
%TO.C,R32*%
X76635000Y-20300000D03*
X75615000Y-20300000D03*
%TD*%
D18*
%TO.C,R11*%
X33400000Y-33709999D03*
X33400000Y-32689999D03*
%TD*%
%TO.C,R4*%
X89000000Y-4110000D03*
X89000000Y-3090000D03*
%TD*%
D30*
%TO.C,L1*%
X-2300000Y-29550000D03*
X-2300000Y-27250000D03*
%TD*%
D18*
%TO.C,R8*%
X55050000Y-39510000D03*
X55050000Y-38490000D03*
%TD*%
D24*
%TO.C,R9*%
X53850000Y-38490000D03*
X53850000Y-39510000D03*
%TD*%
D13*
%TO.C,C20*%
X51100000Y-41500001D03*
X51100000Y-42460001D03*
%TD*%
D22*
%TO.C,C5*%
X2600001Y-29550000D03*
X2600001Y-31450000D03*
%TD*%
D14*
%TO.C,D24*%
X47737499Y-20300001D03*
X49312499Y-20300001D03*
%TD*%
D15*
%TO.C,D17*%
X45000000Y-11000000D03*
X41000000Y-11000000D03*
%TD*%
D31*
%TO.C,D7*%
X-7650000Y-28920000D03*
X-8750000Y-28920000D03*
X-8750000Y-30750000D03*
X-7650000Y-30750000D03*
%TD*%
D14*
%TO.C,F1*%
X625000Y-34700000D03*
X2200000Y-34700000D03*
%TD*%
D12*
%TO.C,R18*%
X31634999Y-18900000D03*
X30614999Y-18900000D03*
%TD*%
D32*
%TO.C,U4*%
X48400000Y-43100001D03*
X48400000Y-42300001D03*
X48400000Y-41500001D03*
X48400000Y-40700001D03*
X48400000Y-39900001D03*
X48400000Y-39100001D03*
X48400000Y-38300001D03*
X48400000Y-37500001D03*
X48400000Y-36700001D03*
X48400000Y-35900001D03*
X48400000Y-35100001D03*
D33*
X47300000Y-34200001D03*
X46500000Y-34200001D03*
X45700000Y-34200001D03*
X44900000Y-34200001D03*
X44100000Y-34200001D03*
X43300000Y-34200001D03*
X42500000Y-34200001D03*
X41700000Y-34200001D03*
X40900000Y-34200001D03*
X40100000Y-34200001D03*
X39300000Y-34200001D03*
X38500000Y-34200001D03*
X37700000Y-34200001D03*
D32*
X36600000Y-35100001D03*
X36600000Y-35900001D03*
X36600000Y-36700001D03*
X36600000Y-37500001D03*
X36600000Y-38300001D03*
X36600000Y-39100001D03*
X36600000Y-39900001D03*
X36600000Y-40700001D03*
X36600000Y-41500001D03*
X36600000Y-42300001D03*
X36600000Y-43100001D03*
D33*
X37700000Y-44000001D03*
X38500000Y-44000001D03*
X39300000Y-44000001D03*
X40100000Y-44000001D03*
X40900000Y-44000001D03*
X41700000Y-44000001D03*
X42500000Y-44000001D03*
X43300000Y-44000001D03*
X44100000Y-44000001D03*
X44900000Y-44000001D03*
X45700000Y-44000001D03*
X46500000Y-44000001D03*
X47300000Y-44000001D03*
D34*
X44475000Y-41075001D03*
D35*
X44475000Y-39100001D03*
X44475000Y-37125001D03*
X42500000Y-41075001D03*
X42500000Y-39100001D03*
X42500000Y-37125001D03*
X40525000Y-41075001D03*
X40525000Y-39100001D03*
X40525000Y-37125001D03*
D36*
X36550000Y-44050001D03*
X36550000Y-34150001D03*
X48450000Y-34150001D03*
X48450000Y-44050001D03*
%TD*%
D22*
%TO.C,C15*%
X48000000Y-8300000D03*
X48000000Y-10200000D03*
%TD*%
D37*
%TO.C,C23*%
X82420000Y-36390000D03*
X81460000Y-36390000D03*
%TD*%
D15*
%TO.C,D6*%
X9800000Y-29500000D03*
X5800000Y-29500000D03*
%TD*%
D18*
%TO.C,R14*%
X29200001Y-33709999D03*
X29200001Y-32689999D03*
%TD*%
D27*
%TO.C,C17*%
X68000000Y-9350000D03*
X68000000Y-15850000D03*
%TD*%
D14*
%TO.C,D21*%
X17737499Y-20300001D03*
X19312499Y-20300001D03*
%TD*%
D25*
%TO.C,D8*%
X11000000Y-7400000D03*
X15000000Y-7400000D03*
%TD*%
D22*
%TO.C,C18*%
X61400000Y-8300000D03*
X61400000Y-10200000D03*
%TD*%
D17*
%TO.C,SW2*%
X51375000Y-36340000D03*
X53925000Y-36340000D03*
X51375000Y-37500000D03*
X53925000Y-37500000D03*
%TD*%
D13*
%TO.C,C21*%
X50000000Y-41500001D03*
X50000000Y-42460001D03*
%TD*%
D23*
%TO.C,C2*%
X-5150000Y-23200000D03*
X-7050000Y-23200000D03*
%TD*%
D16*
%TO.C,Q3*%
X30050000Y-13595000D03*
X30050000Y-14865000D03*
X30050000Y-16135000D03*
X30050000Y-17405000D03*
X35000000Y-17405000D03*
X35000000Y-16135000D03*
X35000000Y-14865000D03*
X35000000Y-13595000D03*
%TD*%
%TO.C,Q5*%
X50050000Y-13595000D03*
X50050000Y-14865000D03*
X50050000Y-16135000D03*
X50050000Y-17405000D03*
X55000000Y-17405000D03*
X55000000Y-16135000D03*
X55000000Y-14865000D03*
X55000000Y-13595000D03*
%TD*%
D38*
%TO.C,U1*%
X-862500Y-25750000D03*
X-862500Y-24800000D03*
X-862500Y-23850000D03*
X-3137500Y-23850000D03*
X-3137500Y-24800000D03*
X-3137500Y-25750000D03*
%TD*%
M02*
