M48
; DRILL file {KiCad 7.0.9} date Sun Dec 10 19:03:59 2023
; FORMAT={-:-/ absolute / metric / decimal}
; #@! TF.CreationDate,2023-12-10T19:03:59+01:00
; #@! TF.GenerationSoftware,Kicad,Pcbnew,7.0.9
; #@! TF.FileFunction,Plated,1,2,PTH
FMAT,2
METRIC
; #@! TA.AperFunction,Plated,PTH,ViaDrill
T1C0.300
; #@! TA.AperFunction,Plated,PTH,ComponentDrill
T2C0.500
; #@! TA.AperFunction,Plated,PTH,ComponentDrill
T3C0.600
; #@! TA.AperFunction,Plated,PTH,ComponentDrill
T4C1.000
; #@! TA.AperFunction,Plated,PTH,ComponentDrill
T5C1.200
; #@! TA.AperFunction,Plated,PTH,ComponentDrill
T6C1.300
; #@! TA.AperFunction,Plated,PTH,ComponentDrill
T7C3.200
%
G90
G05
T1
X-8.9Y-31.435
X-8.75Y-28.085
X-8.1Y-22.875
X-8.1Y-23.525
X-8.1Y-24.875
X-8.1Y-25.525
X-6.8Y-14.95
X-6.8Y-15.85
X-6.8Y-16.75
X-6.8Y-19.5
X-3.8Y-43.6
X-2.6Y-14.95
X-2.6Y-15.85
X-2.6Y-16.75
X-2.6Y-19.5
X-1.925Y-24.8
X-0.955Y-33.9
X-0.955Y-34.7
X-0.955Y-39.6
X-0.955Y-40.4
X-0.9Y-22.7
X-0.155Y-35.95
X0.275Y-32.5
X0.7Y-25.7
X0.8Y-19.5
X0.9Y-22.7
X0.925Y-32.5
X1.4Y-26.9
X1.4Y-28.1
X2.2Y-14.95
X2.2Y-15.85
X2.2Y-16.75
X2.2Y-40.15
X2.275Y-32.5
X2.925Y-32.5
X3.0Y-25.7
X3.0Y-26.9
X3.0Y-28.1
X3.8Y-35.55
X6.31Y-36.15
X6.31Y-39.15
X6.4Y-14.95
X6.4Y-15.85
X6.4Y-16.75
X8.9Y-10.1
X8.9Y-11.0
X8.9Y-11.9
X11.85Y-13.595
X11.85Y-14.865
X11.85Y-16.135
X12.2Y-26.4
X12.5Y-20.3
X13.4Y-26.4
X14.6Y-26.4
X15.2Y-34.65
X15.8Y-26.4
X17.0Y-32.5
X17.1Y-29.0
X17.5Y-11.55
X18.0Y-29.0
X18.1Y-32.5
X18.5Y-11.55
X21.85Y-13.595
X21.85Y-14.865
X21.85Y-16.135
X22.5Y-20.3
X27.5Y-11.55
X28.0Y-31.825
X28.5Y-11.55
X29.2Y-31.825
X30.0Y-41.0
X30.0Y-44.0
X30.4Y-31.825
X31.85Y-13.595
X31.85Y-14.865
X31.85Y-16.135
X32.2Y-31.825
X32.5Y-20.3
X33.4Y-31.825
X34.6Y-31.825
X35.4Y-40.7
X35.55Y-34.15
X35.55Y-44.05
X36.55Y-33.15
X37.5Y-11.55
X37.9Y-35.5
X37.9Y-37.1
X37.9Y-39.1
X37.9Y-41.1
X37.9Y-42.7
X38.5Y-32.9
X38.5Y-11.55
X39.3Y-32.9
X39.3Y-35.5
X39.3Y-42.7
X40.9Y-35.5
X40.9Y-42.7
X41.85Y-13.595
X41.85Y-14.865
X41.85Y-16.135
X42.5Y-35.5
X42.5Y-42.7
X42.5Y-20.3
X44.1Y-35.5
X44.1Y-42.7
X45.7Y-33.15
X45.7Y-35.5
X45.7Y-42.7
X47.1Y-35.5
X47.1Y-37.1
X47.1Y-39.1
X47.1Y-41.1
X47.1Y-42.7
X47.5Y-11.55
X48.45Y-33.15
X48.5Y-11.55
X49.45Y-34.15
X49.45Y-35.1
X49.5Y-44.2
X50.0Y-43.25
X51.1Y-43.25
X51.85Y-13.595
X51.85Y-14.865
X51.85Y-16.135
X52.2Y-43.25
X52.5Y-20.3
X52.65Y-32.74
X52.65Y-33.92
X52.65Y-36.34
X53.05Y-38.49
X53.1Y-41.5
X53.1Y-44.2
X55.95Y-39.51
X56.3Y-41.6
X56.8Y-44.2
X57.5Y-11.55
X58.5Y-11.55
X59.1Y-6.8
X60.9Y-11.55
X61.9Y-11.55
X66.0Y-14.95
X66.0Y-15.85
X66.0Y-16.75
X67.2Y-22.6
X67.4Y-38.24
X67.4Y-42.64
X70.2Y-14.95
X70.2Y-15.85
X70.2Y-16.75
X73.9Y-10.1
X73.9Y-11.0
X73.9Y-11.9
X76.85Y-13.595
X76.85Y-14.865
X76.85Y-16.135
X77.4Y-27.08
X77.5Y-20.3
X80.66Y-36.39
X89.0Y-5.0
X91.987Y-6.188
T2
X-8.9Y5.1
X-8.9Y-47.9
X-8.197Y6.797
X-8.197Y3.403
X-8.197Y-46.203
X-8.197Y-49.597
X-6.5Y7.5
X-6.5Y2.7
X-6.5Y-45.5
X-6.5Y-50.3
X-4.803Y6.797
X-4.803Y3.403
X-4.803Y-46.203
X-4.803Y-49.597
X-4.1Y5.1
X-4.1Y-47.9
X89.1Y5.1
X89.1Y-47.9
X89.803Y6.797
X89.803Y3.403
X89.803Y-46.203
X89.803Y-49.597
X91.5Y7.5
X91.5Y2.7
X91.5Y-45.5
X91.5Y-50.3
X93.197Y6.797
X93.197Y3.403
X93.197Y-46.203
X93.197Y-49.597
X93.9Y5.1
X93.9Y-47.9
T4
X23.28Y-42.6
X25.82Y-42.6
X28.36Y-42.6
X30.9Y-42.6
X59.56Y-26.3
X59.56Y-28.84
X59.56Y-31.38
X59.56Y-33.92
X59.56Y-36.46
X59.56Y-39.0
X74.8Y-26.3
X74.8Y-28.84
X74.8Y-31.38
X74.8Y-33.92
X74.8Y-39.0
X77.34Y-39.0
X79.88Y-39.0
X82.42Y-39.0
T5
X88.7Y-8.5
X88.7Y-12.0
X88.7Y-15.5
X88.7Y-19.0
T6
X0.0Y0.0
X5.0Y0.0
X10.0Y0.0
X15.0Y0.0
X20.0Y0.0
X25.0Y0.0
X30.0Y0.0
X35.0Y0.0
X40.0Y0.0
X45.0Y0.0
X50.0Y0.0
X55.0Y0.0
X60.0Y0.0
X65.0Y0.0
X70.0Y0.0
X75.0Y0.0
X80.0Y0.0
X85.0Y0.0
T7
X-6.5Y5.1
X-6.5Y-47.9
X91.5Y5.1
X91.5Y-47.9
T3
X-6.95Y-32.83G85X-7.55Y-32.83
G05
X-6.95Y-41.47G85X-7.55Y-41.47
G05
X-2.52Y-32.83G85X-3.62Y-32.83
G05
X-2.52Y-41.47G85X-3.62Y-41.47
G05
T0
M30
